<?xml version="1.0" encoding="utf-8"?>
<!-- Generator: Adobe Illustrator 17.0.0, SVG Export Plug-In . SVG Version: 6.00 Build 0)  -->
<!DOCTYPE svg PUBLIC "-//W3C//DTD SVG 1.1//EN" "http://www.w3.org/Graphics/SVG/1.1/DTD/svg11.dtd">
<svg version="1.1" xmlns="http://www.w3.org/2000/svg" xmlns:xlink="http://www.w3.org/1999/xlink" x="0px" y="0px" width="426px"
	 height="52px" viewBox="0 0 426 52" enable-background="new 0 0 426 52" xml:space="preserve">
<g id="baybio-white-paper-report-cover">
	<g>
		<path fill="#FFFFFF" d="M78.703,4.511h7.775c5.011,0,8.735,0.621,11.17,1.863c2.436,1.242,4.441,3.262,6.019,6.059
			c1.577,2.797,2.365,6.062,2.365,9.797c0,2.656-0.441,5.098-1.323,7.324c-0.882,2.227-2.1,4.074-3.653,5.543
			c-1.553,1.469-3.235,2.484-5.046,3.047c-1.811,0.562-4.948,0.844-9.413,0.844h-7.892V4.511z M85.219,10.839v21.75h3.047
			c3,0,5.176-0.344,6.527-1.032c1.351-0.688,2.457-1.846,3.316-3.473c0.859-1.627,1.289-3.629,1.289-6.007
			c0-3.659-1.023-6.499-3.07-8.517c-1.844-1.814-4.805-2.722-8.883-2.722H85.219z"/>
		<path fill="#FFFFFF" d="M130.406,13.488h6.398v25.5h-6.398v-2.695c-1.249,1.188-2.501,2.043-3.757,2.566
			c-1.256,0.523-2.618,0.785-4.085,0.785c-3.293,0-6.142-1.277-8.545-3.832s-3.605-5.73-3.605-9.527c0-3.938,1.163-7.164,3.488-9.68
			c2.325-2.516,5.15-3.773,8.474-3.773c1.529,0,2.965,0.289,4.307,0.867c1.342,0.578,2.583,1.445,3.723,2.602V13.488z
			 M123.68,18.738c-1.978,0-3.621,0.699-4.929,2.098s-1.962,3.191-1.962,5.379c0,2.203,0.666,4.016,1.997,5.438
			s2.97,2.133,4.917,2.133c2.009,0,3.675-0.699,4.999-2.098s1.986-3.23,1.986-5.496c0-2.219-0.662-4.016-1.986-5.391
			S125.705,18.738,123.68,18.738z"/>
		<path fill="#FFFFFF" d="M140.543,13.488h6.519l6.442,15.047l6.428-15.047h6.486l-10.852,25.5h-4.148L140.543,13.488z"/>
		<path fill="#FFFFFF" d="M172.652,2.988c1.122,0,2.084,0.406,2.886,1.219c0.802,0.812,1.204,1.797,1.204,2.953
			c0,1.141-0.397,2.113-1.192,2.918c-0.795,0.805-1.745,1.207-2.851,1.207c-1.137,0-2.107-0.41-2.91-1.23s-1.203-1.816-1.203-2.988
			c0-1.125,0.397-2.086,1.192-2.883S171.53,2.988,172.652,2.988z M169.453,13.488h6.398v25.5h-6.398V13.488z"/>
		<path fill="#FFFFFF" d="M197.273,17.05l-3.961,3.961c-1.609-1.594-3.07-2.391-4.383-2.391c-0.719,0-1.281,0.152-1.688,0.457
			c-0.406,0.305-0.609,0.684-0.609,1.137c0,0.344,0.129,0.66,0.387,0.949s0.894,0.684,1.91,1.184l2.344,1.172
			c2.469,1.219,4.164,2.461,5.086,3.727c0.922,1.266,1.383,2.75,1.383,4.453c0,2.266-0.832,4.156-2.496,5.672
			s-3.895,2.273-6.691,2.273c-3.719,0-6.688-1.453-8.906-4.359l3.938-4.289c0.75,0.875,1.629,1.582,2.637,2.121
			s1.902,0.809,2.684,0.809c0.844,0,1.523-0.203,2.039-0.609s0.773-0.875,0.773-1.406c0-0.984-0.93-1.945-2.789-2.883l-2.156-1.078
			c-4.125-2.078-6.188-4.68-6.188-7.805c0-2.016,0.777-3.738,2.332-5.168c1.555-1.43,3.543-2.145,5.965-2.145
			c1.656,0,3.215,0.363,4.676,1.09C195.02,14.648,196.258,15.691,197.273,17.05z"/>
		<path fill="#FFFFFF" d="M214.301,4.511h6.747l8.675,24.492l8.8-24.492h6.739L232.84,38.988h-6.328L214.301,4.511z"/>
		<path fill="#FFFFFF" d="M252.316,2.988c1.122,0,2.084,0.406,2.886,1.219c0.802,0.812,1.204,1.797,1.204,2.953
			c0,1.141-0.397,2.113-1.192,2.918c-0.795,0.805-1.745,1.207-2.851,1.207c-1.137,0-2.107-0.41-2.91-1.23s-1.203-1.816-1.203-2.988
			c0-1.125,0.397-2.086,1.192-2.883S251.194,2.988,252.316,2.988z M249.117,13.488h6.398v25.5h-6.398V13.488z"/>
		<path fill="#FFFFFF" d="M276.938,17.05l-3.961,3.961c-1.609-1.594-3.07-2.391-4.383-2.391c-0.719,0-1.281,0.152-1.688,0.457
			c-0.406,0.305-0.609,0.684-0.609,1.137c0,0.344,0.129,0.66,0.387,0.949s0.894,0.684,1.91,1.184l2.344,1.172
			c2.469,1.219,4.164,2.461,5.086,3.727c0.922,1.266,1.383,2.75,1.383,4.453c0,2.266-0.832,4.156-2.496,5.672
			s-3.895,2.273-6.691,2.273c-3.719,0-6.688-1.453-8.906-4.359l3.938-4.289c0.75,0.875,1.629,1.582,2.637,2.121
			s1.902,0.809,2.684,0.809c0.844,0,1.523-0.203,2.039-0.609s0.773-0.875,0.773-1.406c0-0.984-0.93-1.945-2.789-2.883l-2.156-1.078
			c-4.125-2.078-6.188-4.68-6.188-7.805c0-2.016,0.777-3.738,2.332-5.168c1.555-1.43,3.543-2.145,5.965-2.145
			c1.656,0,3.215,0.363,4.676,1.09C274.684,14.648,275.922,15.691,276.938,17.05z"/>
		<path fill="#FFFFFF" d="M284.941,2.988c1.122,0,2.084,0.406,2.886,1.219c0.802,0.812,1.204,1.797,1.204,2.953
			c0,1.141-0.397,2.113-1.192,2.918c-0.795,0.805-1.745,1.207-2.851,1.207c-1.137,0-2.107-0.41-2.91-1.23s-1.203-1.816-1.203-2.988
			c0-1.125,0.397-2.086,1.192-2.883S283.819,2.988,284.941,2.988z M281.742,13.488h6.398v25.5h-6.398V13.488z"/>
		<path fill="#FFFFFF" d="M305.93,12.831c2.406,0,4.668,0.602,6.785,1.805c2.117,1.203,3.77,2.836,4.957,4.898
			c1.187,2.062,1.781,4.289,1.781,6.68c0,2.406-0.598,4.656-1.793,6.75s-2.824,3.73-4.887,4.91s-4.336,1.77-6.82,1.77
			c-3.656,0-6.777-1.301-9.363-3.902c-2.586-2.602-3.879-5.762-3.879-9.48c0-3.984,1.461-7.305,4.383-9.961
			C299.656,13.988,302.602,12.831,305.93,12.831z M306.035,18.855c-1.988,0-3.643,0.691-4.965,2.074
			c-1.323,1.383-1.984,3.152-1.984,5.309c0,2.219,0.653,4.016,1.96,5.391c1.307,1.375,2.962,2.062,4.965,2.062
			c2.003,0,3.67-0.695,5-2.086c1.33-1.391,1.996-3.18,1.996-5.367s-0.654-3.965-1.96-5.332
			C309.74,19.538,308.07,18.855,306.035,18.855z"/>
		<path fill="#FFFFFF" d="M324.68,13.488h6.398v2.613c1.451-1.223,2.765-2.074,3.943-2.552c1.178-0.479,2.383-0.718,3.616-0.718
			c2.528,0,4.673,0.883,6.436,2.648c1.482,1.5,2.223,3.719,2.223,6.656v16.852h-6.328V27.821c0-3.043-0.137-5.063-0.409-6.062
			s-0.748-1.76-1.427-2.283c-0.678-0.522-1.516-0.784-2.513-0.784c-1.294,0-2.405,0.434-3.332,1.299
			c-0.927,0.867-1.571,2.064-1.929,3.594c-0.187,0.797-0.281,2.521-0.281,5.174v10.23h-6.398V13.488z"/>
	</g>
</g>
<g id="nyt_x5F_png_x5F_info" display="none">
</g>
</svg>
