<?xml version="1.0" encoding="utf-8"?>
<!-- Generator: Adobe Illustrator 17.0.0, SVG Export Plug-In . SVG Version: 6.00 Build 0)  -->
<!DOCTYPE svg PUBLIC "-//W3C//DTD SVG 1.1//EN" "http://www.w3.org/Graphics/SVG/1.1/DTD/svg11.dtd">
<svg version="1.1" xmlns="http://www.w3.org/2000/svg" xmlns:xlink="http://www.w3.org/1999/xlink" x="0px" y="0px" width="426px"
	 height="52px" viewBox="0 0 426 52" enable-background="new 0 0 426 52" xml:space="preserve">
<g id="baybio-white-paper-report-cover">
	<g>
		<path fill="#FFFFFF" d="M34.206,30.651l6.001,7.756h-7.769l-3.048-3.922c-2.519,1.381-5.327,2.07-8.425,2.07
			c-5.178,0-9.481-1.785-12.907-5.355s-5.139-7.824-5.139-12.762c0-3.297,0.797-6.324,2.392-9.082s3.788-4.949,6.579-6.574
			c2.791-1.625,5.789-2.438,8.994-2.438c4.894,0,9.096,1.766,12.606,5.297s5.265,7.838,5.265,12.914
			C38.754,23.229,37.238,27.26,34.206,30.651z M30.105,25.35c1.391-2.062,2.086-4.342,2.086-6.842c0-3.266-1.103-6.039-3.308-8.32
			s-4.872-3.422-8-3.422c-3.222,0-5.92,1.109-8.094,3.328c-2.174,2.219-3.261,5.039-3.261,8.461c0,3.812,1.369,6.828,4.108,9.047
			c2.144,1.734,4.578,2.602,7.301,2.602c1.565,0,3.036-0.305,4.414-0.916l-6.174-7.943h7.829L30.105,25.35z"/>
		<path fill="#FFFFFF" d="M44.215,10.188h6.469v12.281c0,2.391,0.165,4.051,0.493,4.98c0.329,0.93,0.858,1.652,1.586,2.168
			c0.728,0.516,1.625,0.773,2.69,0.773c1.065,0,1.969-0.254,2.714-0.762s1.296-1.254,1.656-2.238
			c0.266-0.734,0.399-2.305,0.399-4.711V10.188h6.398v10.805c0,4.453-0.352,7.5-1.055,9.141c-0.859,2-2.125,3.535-3.797,4.605
			c-1.672,1.07-3.797,1.605-6.375,1.605c-2.797,0-5.059-0.625-6.785-1.875c-1.727-1.25-2.941-2.992-3.645-5.227
			c-0.5-1.547-0.75-4.359-0.75-8.438V10.188z"/>
		<path fill="#FFFFFF" d="M91.863,10.188h6.398v25.5h-6.398v-2.695c-1.249,1.188-2.501,2.043-3.757,2.566
			c-1.256,0.523-2.618,0.785-4.085,0.785c-3.293,0-6.142-1.277-8.545-3.832s-3.605-5.73-3.605-9.527c0-3.938,1.163-7.164,3.488-9.68
			c2.325-2.516,5.15-3.773,8.474-3.773c1.529,0,2.965,0.289,4.307,0.867c1.342,0.578,2.583,1.445,3.723,2.602V10.188z
			 M85.137,15.438c-1.978,0-3.621,0.699-4.929,2.098s-1.962,3.191-1.962,5.379c0,2.203,0.666,4.016,1.997,5.438
			s2.97,2.133,4.917,2.133c2.009,0,3.675-0.699,4.999-2.098s1.986-3.23,1.986-5.496c0-2.219-0.662-4.016-1.986-5.391
			S87.162,15.438,85.137,15.438z"/>
		<path fill="#FFFFFF" d="M123.551,0.344h6.398v35.344h-6.398v-2.695c-1.249,1.188-2.501,2.043-3.757,2.566
			c-1.256,0.523-2.618,0.785-4.085,0.785c-3.293,0-6.142-1.277-8.545-3.832s-3.605-5.73-3.605-9.527c0-3.938,1.163-7.164,3.488-9.68
			c2.325-2.516,5.15-3.773,8.474-3.773c1.529,0,2.965,0.289,4.307,0.867c1.342,0.578,2.583,1.445,3.723,2.602V0.344z
			 M116.825,15.438c-1.978,0-3.621,0.699-4.929,2.098s-1.962,3.191-1.962,5.379c0,2.203,0.666,4.016,1.997,5.438
			s2.97,2.133,4.917,2.133c2.009,0,3.675-0.699,4.999-2.098s1.986-3.23,1.986-5.496c0-2.219-0.662-4.016-1.986-5.391
			S118.849,15.438,116.825,15.438z"/>
		<path fill="#FFFFFF" d="M155.238,0.344h6.398v35.344h-6.398v-2.695c-1.249,1.188-2.501,2.043-3.757,2.566
			c-1.256,0.523-2.618,0.785-4.085,0.785c-3.293,0-6.142-1.277-8.545-3.832s-3.605-5.73-3.605-9.527c0-3.938,1.163-7.164,3.488-9.68
			c2.325-2.516,5.15-3.773,8.474-3.773c1.529,0,2.965,0.289,4.307,0.867c1.342,0.578,2.583,1.445,3.723,2.602V0.344z
			 M148.512,15.438c-1.978,0-3.621,0.699-4.929,2.098s-1.962,3.191-1.962,5.379c0,2.203,0.666,4.016,1.997,5.438
			s2.97,2.133,4.917,2.133c2.009,0,3.675-0.699,4.999-2.098s1.986-3.23,1.986-5.496c0-2.219-0.662-4.016-1.986-5.391
			S150.537,15.438,148.512,15.438z"/>
		<path fill="#FFFFFF" d="M166.605,10.188h5.484v3.211c0.594-1.266,1.383-2.227,2.367-2.883s2.062-0.984,3.234-0.984
			c0.828,0,1.695,0.219,2.602,0.656l-1.992,5.508c-0.75-0.375-1.367-0.562-1.852-0.562c-0.984,0-1.816,0.609-2.496,1.828
			s-1.02,3.609-1.02,7.172l0.023,1.242v10.313h-6.352V10.188z"/>
		<path fill="#FFFFFF" d="M202.277,10.188h6.398v25.5h-6.398v-2.695c-1.249,1.188-2.501,2.043-3.757,2.566
			c-1.256,0.523-2.618,0.785-4.085,0.785c-3.293,0-6.142-1.277-8.545-3.832s-3.605-5.73-3.605-9.527c0-3.938,1.163-7.164,3.488-9.68
			c2.325-2.516,5.15-3.773,8.474-3.773c1.529,0,2.965,0.289,4.307,0.867c1.342,0.578,2.583,1.445,3.723,2.602V10.188z
			 M195.551,15.438c-1.978,0-3.621,0.699-4.929,2.098s-1.962,3.191-1.962,5.379c0,2.203,0.666,4.016,1.997,5.438
			s2.97,2.133,4.917,2.133c2.009,0,3.675-0.699,4.999-2.098s1.986-3.23,1.986-5.496c0-2.219-0.662-4.016-1.986-5.391
			S197.576,15.438,195.551,15.438z"/>
		<path fill="#FFFFFF" d="M247.371,5.899l-4.86,4.289c-1.707-2.375-3.444-3.562-5.213-3.562c-0.861,0-1.565,0.23-2.113,0.691
			s-0.822,0.98-0.822,1.559s0.196,1.125,0.587,1.641c0.532,0.688,2.137,2.164,4.813,4.43c2.504,2.094,4.022,3.414,4.555,3.961
			c1.33,1.344,2.273,2.629,2.829,3.855c0.556,1.227,0.833,2.566,0.833,4.02c0,2.828-0.978,5.164-2.933,7.008
			c-1.955,1.844-4.505,2.766-7.648,2.766c-2.456,0-4.595-0.602-6.417-1.805s-3.383-3.094-4.681-5.672l5.516-3.328
			c1.659,3.047,3.568,4.57,5.728,4.57c1.126,0,2.074-0.328,2.84-0.984c0.767-0.656,1.15-1.414,1.15-2.273
			c0-0.781-0.29-1.562-0.869-2.344c-0.579-0.781-1.855-1.977-3.827-3.586c-3.757-3.062-6.183-5.426-7.279-7.09
			s-1.643-3.324-1.643-4.98c0-2.391,0.911-4.441,2.734-6.152c1.822-1.711,4.071-2.566,6.746-2.566c1.721,0,3.36,0.398,4.916,1.195
			C243.871,2.336,245.556,3.789,247.371,5.899z"/>
		<path fill="#FFFFFF" d="M265.512,9.532c2.406,0,4.668,0.602,6.785,1.805c2.117,1.203,3.77,2.836,4.957,4.898
			c1.187,2.062,1.781,4.289,1.781,6.68c0,2.406-0.598,4.656-1.793,6.75s-2.824,3.73-4.887,4.91s-4.336,1.77-6.82,1.77
			c-3.656,0-6.777-1.301-9.363-3.902c-2.586-2.602-3.879-5.762-3.879-9.48c0-3.984,1.461-7.305,4.383-9.961
			C259.238,10.688,262.184,9.532,265.512,9.532z M265.617,15.555c-1.988,0-3.643,0.691-4.965,2.074
			c-1.323,1.383-1.984,3.152-1.984,5.309c0,2.219,0.653,4.016,1.96,5.391c1.307,1.375,2.962,2.062,4.965,2.062
			c2.003,0,3.67-0.695,5-2.086c1.33-1.391,1.996-3.18,1.996-5.367s-0.654-3.965-1.96-5.332
			C269.323,16.239,267.652,15.555,265.617,15.555z"/>
		<path fill="#FFFFFF" d="M281.215,10.188h2.273c0.015-3.344,0.07-5.32,0.164-5.93c0.172-1.406,0.762-2.52,1.77-3.34
			s2.434-1.23,4.277-1.23c1.328,0,2.828,0.305,4.5,0.914v4.875c-0.922-0.266-1.68-0.398-2.273-0.398
			c-0.75,0-1.297,0.156-1.641,0.469c-0.25,0.234-0.375,0.719-0.375,1.453l-0.023,3.187h4.055v5.414h-4.055v20.086h-6.398V15.602
			h-2.273V10.188z"/>
		<path fill="#FFFFFF" d="M298.465,0.789h6.398v9.398h3.797v5.508h-3.797v19.992h-6.398V15.696h-3.281v-5.508h3.281V0.789z"/>
		<path fill="#FFFFFF" d="M309.258,10.188h6.263l5.128,14.508l5.517-14.508h3.831l5.418,14.344l5.134-14.344h6.304l-9.305,25.5
			h-4.055l-5.438-14.531l-5.602,14.531h-4.008L309.258,10.188z"/>
		<path fill="#FFFFFF" d="M369.293,10.188h6.398v25.5h-6.398v-2.695c-1.249,1.188-2.501,2.043-3.757,2.566
			c-1.256,0.523-2.618,0.785-4.085,0.785c-3.293,0-6.142-1.277-8.545-3.832s-3.605-5.73-3.605-9.527c0-3.938,1.163-7.164,3.488-9.68
			c2.325-2.516,5.15-3.773,8.474-3.773c1.529,0,2.965,0.289,4.307,0.867c1.342,0.578,2.583,1.445,3.723,2.602V10.188z
			 M362.567,15.438c-1.978,0-3.621,0.699-4.929,2.098s-1.962,3.191-1.962,5.379c0,2.203,0.666,4.016,1.997,5.438
			s2.97,2.133,4.917,2.133c2.009,0,3.675-0.699,4.999-2.098s1.986-3.23,1.986-5.496c0-2.219-0.662-4.016-1.986-5.391
			S364.591,15.438,362.567,15.438z"/>
		<path fill="#FFFFFF" d="M380.66,10.188h5.484v3.211c0.594-1.266,1.383-2.227,2.367-2.883s2.062-0.984,3.234-0.984
			c0.828,0,1.695,0.219,2.602,0.656l-1.992,5.508c-0.75-0.375-1.367-0.562-1.852-0.562c-0.984,0-1.816,0.609-2.496,1.828
			s-1.02,3.609-1.02,7.172l0.023,1.242v10.313h-6.352V10.188z"/>
		<path fill="#FFFFFF" d="M423.059,24.789h-20.555c0.297,1.812,1.09,3.254,2.379,4.324s2.933,1.605,4.934,1.605
			c2.391,0,4.445-0.836,6.164-2.508l5.391,2.531c-1.344,1.906-2.953,3.316-4.828,4.23s-4.102,1.371-6.68,1.371
			c-4,0-7.258-1.262-9.773-3.785c-2.516-2.523-3.773-5.684-3.773-9.48c0-3.891,1.254-7.121,3.762-9.691s5.652-3.855,9.434-3.855
			c4.016,0,7.281,1.285,9.797,3.855c2.516,2.57,3.773,5.965,3.773,10.184L423.059,24.789z M416.66,19.75
			c-0.423-1.422-1.256-2.578-2.5-3.469s-2.688-1.336-4.332-1.336c-1.784,0-3.349,0.5-4.695,1.5
			c-0.845,0.625-1.628,1.727-2.348,3.305H416.66z"/>
	</g>
</g>
<g id="nyt_x5F_png_x5F_info" display="none">
</g>
</svg>
