<?xml version="1.0" encoding="utf-8"?>
<!DOCTYPE svg PUBLIC "-//W3C//DTD SVG 1.1//EN" "http://www.w3.org/Graphics/SVG/1.1/DTD/svg11.dtd">
<svg version="1.1" id="Layer_1" xmlns="http://www.w3.org/2000/svg" xmlns:xlink="http://www.w3.org/1999/xlink" x="0px" y="0px"
	 width="800px" height="800px" viewBox="0 0 800 800" enable-background="new 0 0 800 800" xml:space="preserve">
<g id="g434" transform="matrix(0,0.57231079,0.60095048,0,-28.846594,-438.76277)">
	<path id="path184" fill="#FFFFFF" d="M1606.751,1298.289
		c-10.856-2.585-14.733-5.17-24.556-16.543c-6.462-7.496-7.754-10.598-5.428-12.924c2.068-2.068,3.619-2.068,5.945,0.259
		c6.462,6.462,24.814,3.619,39.547-5.687c16.026-10.339,17.577-12.924,21.971-33.085c2.326-12.407,2.326-15.767-0.776-20.161
		c-3.36-4.911-6.72-5.428-33.861-6.203c-16.543-0.259-30.501-1.292-31.276-2.068s-0.259-4.394,1.292-8.271
		c1.809-5.17,3.877-6.72,7.237-5.687c5.945,2.068,25.589-14.733,37.48-31.793c17.06-24.814,44.717-86.591,50.662-113.731
		c6.462-28.95,8.788-51.954,5.428-51.954c-1.551,0-3.619,2.068-4.394,4.653c-1.034,2.326-5.687,9.564-10.598,15.767
		c-10.081,13.441-23.005,37.738-29.467,55.832c-11.115,31.276-50.145,45.234-67.722,24.297c-3.619-4.394-6.72-9.822-6.462-12.149
		c0.259-8.53,4.136-14.733,9.047-14.733c3.102,0,5.687-2.843,7.496-8.013c1.551-4.394,3.877-9.564,5.428-11.632
		c2.068-2.585,2.326-8.013,1.034-17.835c-1.292-7.754-2.843-36.963-3.619-64.62c-1.809-81.421-6.462-135.443-13.182-156.38
		c-3.36-9.822-5.428-18.869-4.653-19.903c2.326-4.394,6.203-1.551,10.081,7.754c8.271,19.386,11.373,33.344,11.373,52.213
		c0,10.598,1.292,24.039,2.585,29.725c1.292,5.687,2.585,49.37,3.102,97.447l0.775,86.849l-6.203,6.72
		c-3.619,3.619-7.754,6.72-9.564,6.72c-5.17,0-6.979,4.911-3.36,9.305c6.979,8.271,16.543,11.373,27.14,8.53
		c14.216-3.877,25.073-15.509,33.602-35.412c10.339-24.814,24.039-50.404,29.467-54.798c4.394-3.619,10.081-14.475,19.128-36.704
		c4.136-10.598,11.115-13.958,7.754-3.877c-1.809,5.687-1.551,45.234,0.517,48.594c1.809,3.102-9.564,49.628-16.284,66.946
		c-3.619,9.305-14.216,31.793-23.263,49.887c-12.924,25.331-20.678,36.963-33.344,50.404
		c-12.407,13.182-15.509,17.577-12.665,19.128c4.394,2.585,51.437-1.551,61.001-5.17c14.475-5.687,51.954-32.568,70.048-50.145
		c21.712-21.454,48.594-59.709,54.798-78.061c2.326-6.72,5.945-15.767,8.013-19.903c2.326-4.136,7.237-24.039,11.373-44.2
		c12.407-60.484,24.814-104.426,34.378-121.744c1.809-3.102,3.102-11.373,3.36-18.611c0-10.856,0.776-13.182,6.462-16.026
		c7.237-3.619,29.984-4.394,32.052-1.034c0.775,1.034,4.911,2.843,9.047,3.619c4.136,0.775,11.89,4.653,17.06,8.271
		c5.428,3.619,12.407,6.462,15.509,6.462c8.271,0,24.556-18.611,24.556-27.916c0-12.407-5.17-16.026-27.14-20.42
		c-20.161-3.619-20.42-3.619-24.814,2.068c-5.428,7.496-11.115,4.136-9.047-5.428c1.292-7.237,1.292-7.496-16.026-9.305
		c-9.564-1.034-40.581-2.068-69.014-2.068l-51.696-0.258l0.775,7.496c1.034,10.081-5.17,7.496-8.271-3.36
		c-3.877-13.958-1.551-14.475,50.404-13.958c27.14,0.258,46.268-0.517,46.268-1.809c0-1.292-2.843-3.102-6.462-4.136
		c-7.237-1.809-9.047-10.856-2.585-12.665c12.407-3.877,12.407-4.911,0-6.721c-6.979-1.034-20.161-2.068-28.95-2.068
		c-19.128-0.258-41.357-4.653-49.111-9.822l-5.687-3.877l8.013-10.081c8.53-10.856,14.992-11.373,8.013-0.775
		c-3.619,5.687-3.619,6.979-0.517,9.047c2.068,1.292,4.911,2.326,6.203,2.585c1.551,0.258,6.203,1.034,10.339,1.809
		c4.394,0.517,37.996,1.292,74.959,1.551c36.963,0.258,69.273,1.292,71.857,2.585c8.788,4.136,13.699-4.394,15.509-26.365
		c1.034-10.856,3.619-25.073,5.945-31.535c3.102-8.53,3.877-16.543,2.585-29.467c-1.034-14.992-2.585-19.128-8.53-25.331
		c-11.632-12.149-19.903-9.564-34.119,10.598c-14.216,19.903-22.488,26.365-34.119,26.882c-7.237,0.517-8.788-0.517-8.788-4.653
		c0-4.394,1.551-4.911,8.53-4.394c7.237,0.775,10.081-0.517,17.835-9.305c4.911-5.687,11.632-14.733,14.733-20.161
		c10.339-18.611,35.412-19.903,47.043-2.326c7.237,11.115,7.754,40.064,1.034,66.688c-3.619,14.216-5.17,25.589-4.136,31.018
		c3.36,16.284,3.102,18.352-2.326,19.386c-2.843,0.775-8.271,3.36-12.148,6.204c-6.462,4.394-7.754,4.653-14.733,0.775
		c-13.182-6.72-63.586-2.843-68.239,5.428c-1.034,2.068-3.619,3.619-5.687,3.619c-7.496,0-6.203,5.17,2.326,8.788
		c4.653,2.068,9.822,5.428,11.115,7.496c1.551,3.102,8.013,4.394,26.623,5.17c31.535,1.292,49.628,6.462,61.001,17.577
		c7.496,7.237,8.788,10.339,8.788,20.42c0,12.149-7.754,26.623-18.869,35.67c-6.979,5.687-25.848,4.653-35.153-1.809
		c-4.394-3.36-9.822-5.17-11.89-4.653c-1.809,0.775-4.653,0-6.462-1.809c-5.687-7.237-31.018,4.136-31.018,13.958
		c0,1.034,5.428,6.462,11.89,11.632c13.441,11.115,13.441,9.047,1.034,42.649c-11.632,31.276-14.475,43.425-10.856,47.043
		c2.068,2.068,3.877,2.068,6.979-0.517c6.203-5.17,17.835-23.263,21.971-33.602c3.877-10.339,18.611-33.861,23.78-38.255
		c6.203-5.17,18.611,0,21.195,8.788c1.034,4.136,3.102,9.305,4.394,11.373c1.292,2.068,3.877,7.754,5.945,12.407
		c2.068,4.394,4.911,8.271,6.462,8.271c7.754,0,20.937-42.391,20.937-68.239c0-16.801,7.237-61.777,11.632-72.374
		c3.102-6.979,5.428-9.305,10.339-9.305c8.013,0,11.632,6.72,12.407,23.263c0.259,7.237,1.292,12.924,2.585,12.924
		c1.034,0,1.809-0.517,1.809-1.292c0-0.775,2.326-12.149,5.428-25.331c11.632-51.179,14.733-76.51,12.149-95.379
		c-1.809-10.856-3.877-17.318-5.428-16.801c-1.551,0.517-5.945,6.979-9.564,14.475c-8.013,16.026-18.094,22.746-24.039,16.284
		c-2.068-2.585-4.394-9.564-4.911-16.026c-1.551-15.25,4.653-92.794,8.271-101.841c1.551-4.136,4.136-20.937,5.687-37.997
		c4.394-43.166-1.551-47.56-18.869-13.958c-18.094,35.412-33.861,51.954-43.166,46.268c-4.911-3.102-5.687-23.005-1.809-44.459
		c1.551-8.53,1.292-10.856-1.551-10.856c-7.496,0-24.039,33.085-27.916,55.573c-3.36,19.903-10.081,40.064-13.441,40.064
		c-4.653,0-4.653-5.428,0-16.284c3.619-8.53,5.687-22.488,7.754-55.056c2.326-38.513,3.619-45.751,9.822-60.484
		c12.666-29.467,24.039-41.615,34.378-36.187c5.687,3.102,11.373,21.195,9.305,29.467c-0.775,2.843,0.517,7.754,2.326,10.339
		c4.136,5.687,4.394,5.687,9.305-16.543c7.754-34.636,21.195-45.234,34.119-26.365c3.877,5.428,6.979,11.115,6.979,12.407
		c0,1.551,2.326,4.911,5.428,7.754c5.17,4.653,5.428,4.653,9.047-0.258c2.068-2.843,3.102-7.754,2.326-10.856
		c-0.775-3.619,0.776-8.013,4.911-12.924c5.17-5.945,7.237-6.72,11.115-4.394c8.53,4.911,14.216,21.195,17.835,52.213
		c3.877,31.276,3.619,51.696-1.809,93.053c-2.326,19.128-2.326,26.106,0.259,33.861c2.326,7.237,2.326,11.115,0.258,15.25
		c-2.843,5.17-1.551,13.441,2.068,13.441c6.204,0,11.89-26.882,8.271-36.963c-3.619-9.564,1.034-17.318,10.598-17.318
		c5.945,0,7.237,1.292,7.237,5.945c0,3.36-2.326,8.53-5.169,11.632c-2.843,3.102-5.17,8.013-5.17,11.373
		c0,9.305-5.17,26.106-9.822,31.276c-5.945,6.72-10.598,5.428-15.25-4.653c-2.326-4.911-5.17-9.047-6.462-9.047
		c-3.619,0-2.326-18.094,2.068-26.106c2.068-4.394,3.36-9.305,2.843-10.856c-0.517-1.809,0.258-13.182,2.068-25.331
		c6.203-42.391,0.258-118.125-10.081-128.465c-3.619-3.619-4.136-3.102-6.721,3.102c-1.292,3.877-2.585,8.53-2.585,10.081
		c0,6.979-8.271,14.733-15.25,14.733c-6.979,0-15.767-6.72-15.767-11.89c0-5.687-6.72-16.284-10.856-17.318
		c-6.462-1.809-11.373,5.428-14.992,21.454c-1.551,7.754-3.877,17.577-4.653,21.712c-2.585,10.598-9.305,14.216-15.767,8.271
		c-3.619-3.36-5.687-9.564-6.979-21.454c-2.068-20.161-6.462-23.522-16.284-11.89c-13.958,16.801-28.95,78.836-18.611,78.319
		c0.776-0.258,5.17-6.203,9.305-13.699c6.203-10.598,9.047-13.441,14.216-13.441h6.462v27.14c0,22.229,0.776,27.14,3.877,27.14
		c4.136,0,17.06-18.352,27.657-38.772c7.237-14.216,20.678-29.725,25.589-29.725c1.809,0,5.17,2.585,7.237,5.687
		c5.687,8.013,5.428,45.751,0,61.518c-2.326,6.462-5.428,19.128-6.72,28.433c-3.619,22.229-4.136,96.672-0.775,97.964
		c1.551,0.517,4.911-3.619,7.754-9.305c19.644-38.772,30.501-34.636,30.501,12.149c0.258,29.208-1.551,40.323-12.407,82.714
		c-3.619,14.992-7.496,36.704-8.271,48.594c-1.551,22.488-4.653,27.399-7.237,11.632c-0.775-5.428-3.36-13.182-5.687-17.06
		c-2.843-5.428-3.619-11.115-2.326-19.645c2.843-20.937-9.564-29.208-12.666-8.53c-0.775,5.17-2.585,16.026-3.877,23.78
		s-3.102,25.331-3.877,38.772c-1.551,30.242-9.305,55.832-20.678,69.014c-7.237,8.53-8.788,9.305-12.666,6.203
		c-2.326-1.809-4.136-5.428-4.394-7.754c-0.258-7.237-16.543-35.153-20.678-35.929c-4.911-1.034-15.767,14.475-28.433,40.84
		c-10.856,22.488-20.42,33.602-28.95,33.602c-6.979,0-12.148-4.394-12.148-10.598c0-5.17,16.801-59.709,20.678-66.946
		c1.292-2.585,2.068-6.462,1.292-8.271c-1.292-2.843-17.577-14.992-20.42-14.992c-1.551,0-13.182,35.929-17.835,54.281
		c-2.068,9.305-6.462,25.59-9.305,36.187c-2.843,10.598-5.428,22.488-5.428,26.107c0,19.386-19.386,73.925-33.085,94.087
		c-3.877,5.687-8.788,13.699-10.856,18.094c-2.068,4.136-14.216,18.352-27.14,31.793c-25.589,26.882-61.518,52.73-82.972,59.192
		l-13.182,4.136l1.292,11.115c2.068,18.352-3.619,35.67-14.992,46.01c-12.149,10.856-19.128,14.992-31.793,18.352
		c-5.428,1.292-9.564,3.877-9.305,5.17c2.585,9.047,45.492,11.115,61.001,3.102c7.754-4.136,21.454-19.903,21.454-24.814
		c0-6.979,12.924-26.623,24.039-35.929c15.25-13.182,26.365-14.475,41.357-4.136c14.216,9.564,17.835,7.754,21.712-10.598
		c7.237-32.827,8.788-38.513,15.25-51.954c5.17-11.115,8.788-14.992,18.094-19.644c11.632-5.687,11.89-5.687,15.509-1.034
		c2.326,3.36,3.102,8.53,2.068,15.509c-1.034,5.945-1.809,11.89-2.068,13.182c0,1.551,2.843,2.843,6.72,3.36
		c4.911,0.517,8.013-0.776,10.856-5.428c6.72-9.822,16.543-40.581,18.352-57.383c1.034-8.53,2.843-16.543,3.877-18.094
		c1.034-1.292,2.585-8.271,3.619-15.509c2.585-22.488,4.136-30.501,10.081-52.73c4.394-16.801,7.237-22.488,12.665-26.623
		c8.788-6.203,11.632-4.653,13.958,6.979c0.776,4.911,2.585,9.047,3.877,9.047c2.843,0,13.958-24.297,17.835-39.289
		c3.619-13.699,8.788-16.026,13.441-5.945c2.326,4.911,2.326,11.373,0,26.623c-1.809,10.856-3.102,27.14-3.102,36.187
		c0,19.128,3.619,20.937,14.733,6.462c8.53-11.115,24.039-40.064,24.039-44.459c0-5.945,10.598-26.365,14.475-27.916
		c6.979-2.585,10.339,4.911,15.25,32.31c2.585,14.733,5.687,27.14,6.72,27.916c4.136,2.585,14.992-7.496,21.454-19.644
		c7.237-13.958,15.767-49.111,18.352-76.51c1.034-9.822,2.068-50.404,2.326-90.21c0.775-74.959,2.326-87.366,11.89-96.93
		c7.496-7.496,12.924-3.877,12.924,8.013c0,5.428,1.292,10.081,2.585,10.081c3.877,0,12.924-20.42,12.924-28.691
		c0-3.877,2.326-18.352,5.428-32.31c7.238-34.895,6.979-70.824-0.517-81.68c-7.754-10.598-3.36-12.924,5.687-2.585
		c6.979,7.754,7.496,9.564,7.496,31.018c0,13.182-2.326,33.344-5.17,47.043c-2.843,13.182-5.169,27.916-5.169,32.827
		c0,11.632-12.407,41.615-18.611,44.976c-7.496,3.877-12.924-1.809-11.89-12.149c0.517-4.653-0.259-8.788-1.809-9.047
		c-6.72-0.775-8.788,19.645-9.305,85.815c-0.259,71.082-4.136,122.261-10.856,141.906c-2.326,6.462-5.428,16.543-6.979,22.746
		c-1.809,6.979-6.72,14.992-13.182,21.454c-10.339,10.339-17.06,12.407-22.488,6.979c-2.326-2.326-7.754-22.746-12.407-48.077
		c-0.776-3.36-2.585-5.687-4.394-4.911c-3.102,1.034-14.733,28.691-14.733,35.67c0,2.326-3.877,9.305-8.53,15.509
		c-4.653,6.204-10.339,14.216-12.407,17.835c-2.326,3.619-7.237,8.271-11.115,10.081c-6.203,3.36-7.237,3.36-11.115-0.517
		c-3.877-3.619-3.877-7.237-1.034-36.963c1.809-17.835,2.585-33.085,2.068-33.602c-0.517-0.775-4.136,6.203-8.013,14.992
		c-8.271,18.611-13.441,25.331-19.903,25.331c-3.36,0-4.911-2.326-5.428-9.564c-0.517-7.754-1.809-9.822-5.687-9.822
		c-5.945,0-12.149,19.645-18.094,56.607c-5.428,34.378-11.632,64.878-17.577,86.074c-6.462,22.229-17.06,34.636-30.759,35.153
		l-8.788,0.517v-17.318c0-9.305-0.775-17.835-1.551-18.611c-0.776-0.775-5.428,1.034-10.081,4.136
		c-10.081,6.979-18.61,28.174-23.263,56.866c-3.102,21.195-8.53,35.153-13.958,37.221c-2.585,1.034-6.462-1.551-10.598-6.462
		c-6.203-7.237-19.644-13.182-30.242-13.182c-6.203,0-25.331,17.577-25.331,23.005c0,2.326-1.034,5.428-2.326,6.979
		c-1.551,1.292-5.945,8.788-10.081,16.543c-10.339,19.386-24.297,27.916-48.594,29.467
		C1622.518,1299.581,1610.887,1299.323,1606.751,1298.289z"/>
	<path id="path186" fill="#FFFFFF" d="M1375.153,1284.073
		c-3.619-1.551-10.856-6.462-16.026-10.856c-7.496-6.203-9.047-8.53-6.462-10.598c1.809-1.551,19.903-3.877,40.064-5.428
		c31.276-2.068,38.255-3.36,47.819-8.788c6.203-3.36,20.678-10.339,32.568-15.25c13.958-5.687,26.106-13.182,35.67-21.712
		l14.216-12.924l1.292-25.848c1.034-28.174,4.911-96.672,9.047-157.156c2.068-32.827,1.809-40.581-1.809-52.988
		c-2.326-8.013-5.17-16.026-6.462-17.577c-1.034-1.292-3.877-9.047-5.945-16.801c-2.068-7.754-4.911-17.318-6.462-21.195
		c-3.36-8.788-3.619-12.149-0.776-12.149c3.102,0,9.822,14.216,15.767,33.602c2.843,9.305,7.496,23.005,10.339,30.759
		c3.877,10.081,4.911,18.094,4.136,28.433c-0.517,8.013-1.551,33.602-2.585,57.124c-0.775,23.522-2.843,51.438-4.136,62.035
		c-1.292,10.598-3.36,52.73-4.653,93.57c-1.292,40.84-3.102,75.218-3.877,76.769c-1.034,1.551-5.428-0.775-10.856-6.203
		c-12.149-12.407-24.297-12.149-64.361,1.292c-16.801,5.428-37.221,10.856-45.234,11.632c-7.754,0.776-16.543,2.068-19.386,2.326
		C1384.2,1286.657,1378.772,1285.882,1375.153,1284.073z M1451.405,1265.203c36.187-11.632,43.425-12.407,64.361-7.237l6.979,1.809
		v-23.522c0-12.924-0.776-23.522-1.551-23.522s-8.013,5.17-16.026,11.373c-8.271,6.203-20.42,13.441-27.657,16.026
		c-6.979,2.585-18.61,7.754-25.848,11.632c-14.733,8.013-34.378,12.666-53.764,12.666c-19.128,0-33.085,2.843-32.052,6.203
		c1.292,4.136,24.556,8.788,37.997,7.496C1410.307,1277.352,1431.76,1271.665,1451.405,1265.203z"/>
	<path id="path188" fill="#FFFFFF" d="M1230.663,1148.112
		c-43.942-4.394-58.417-9.305-56.09-18.352c1.551-5.687-2.326-9.305-10.856-10.598c-3.619-0.258-6.72-2.068-7.237-3.619
		c-0.517-1.809,12.149-2.585,39.806-2.326c22.488,0.259,42.391-0.775,44.2-2.068c1.809-1.551,3.102-8.788,3.102-18.869
		c0-15.25,2.326-20.42,6.462-13.958c1.292,2.068,2.843,2.068,4.911,0.259c5.687-4.911,6.204-0.259,1.034,10.339
		c-5.945,12.407-5.17,19.386,1.809,18.352c2.843-0.517,9.047-1.551,13.699-2.326c4.394-0.775,8.53-2.585,8.53-4.394
		c0.517-4.394-0.259-12.407-1.809-19.128c-1.034-5.17-0.517-5.945,4.136-4.394c4.136,1.292,5.945,0.517,6.979-3.619
		c2.068-7.754,6.204-6.72,4.653,1.034c-0.776,3.619-1.809,9.305-2.585,12.666c-2.068,10.339,5.428,10.081,23.263-1.292
		c9.305-5.687,16.801-11.632,16.801-12.924c0-5.17-13.182-28.433-16.801-29.984c-5.687-2.068-16.801,6.203-16.801,12.407
		c0,4.394-1.034,5.17-6.203,3.877c-3.877-1.034-7.237,0-9.047,2.068c-1.809,2.068-9.047,4.394-16.543,5.428
		c-7.496,1.034-14.475,2.585-16.026,3.619c-1.292,0.775-7.754,1.551-14.216,1.551h-11.632l-0.258,16.284
		c-0.517,19.645-3.36,23.78-12.407,17.577c-5.687-3.619-6.72-6.203-6.72-15.767c0-11.89,4.136-16.284,5.687-5.945
		c1.292,9.822,7.237,8.53,7.237-1.551c0-8.788-0.258-9.047-11.89-10.856c-14.216-2.068-16.801,0-17.835,14.733
		c-0.259,6.203-0.776,13.441-1.034,16.026c0,2.326-1.292,4.394-2.326,4.394c-2.326,0-2.843-41.098-0.517-41.615
		c0.775-0.258,8.013-0.517,16.284-1.034c8.271-0.517,15.509-1.292,16.284-1.809c0.517-0.775,3.36-13.441,5.945-28.174
		c2.843-14.733,6.979-32.31,9.047-39.03c2.326-6.72,4.653-19.128,5.17-27.657c0.517-8.788,2.326-17.577,4.136-19.644
		c4.136-4.911-2.585-8.013-9.564-4.394c-6.979,3.877-43.683,11.632-62.811,13.182c-9.305,0.775-16.543,2.843-16.543,4.136
		c1.292,7.496,9.564,59.967,12.666,78.836c9.305,55.056,10.339,69.273,5.17,64.103c-0.775-0.775-3.102-11.632-5.428-24.297
		c-2.068-12.666-6.203-35.67-9.047-51.438c-2.585-15.509-5.945-36.446-6.979-46.009c-2.585-20.161-5.687-24.297-19.645-25.589
		l-10.081-0.775l-4.911,16.284c-5.945,18.869-10.339,21.195-8.013,3.877c3.102-21.971,3.36-21.195-13.441-26.882
		c-18.869-6.462-21.454-8.53-37.738-33.085c-12.924-19.644-14.216-26.107-5.17-26.107c6.72,0,20.937-13.699,20.937-20.42
		c0-5.687,3.619-7.237,6.462-2.843c1.034,1.551,6.72-1.809,13.441-7.754c12.407-10.856,16.284-12.407,16.284-6.979
		c0,3.36-24.814,25.073-28.691,25.073c-1.034,0-2.585,2.326-3.619,4.911c-0.775,2.843-5.428,6.462-10.339,8.013
		c-4.911,1.551-9.047,3.877-9.047,4.653c0,1.034,3.102,7.754,6.72,14.733c10.856,20.161,21.195,30.501,35.153,35.153
		c14.475,4.911,13.182,5.945,17.318-17.06c5.945-32.31,9.564-46.268,12.665-47.302c3.619-1.034,2.585,12.149-2.068,25.331
		c-1.292,3.619-3.36,13.699-4.653,22.746c-2.585,17.835-1.551,19.386,11.89,21.971c6.72,1.292,8.788,0.775,10.081-2.843
		c0.775-2.326,3.877-6.462,6.979-8.788c4.653-3.877,4.911-5.17,2.068-12.924c-4.136-11.89-3.877-24.556,0.776-42.649
		c2.068-8.013,3.877-25.59,3.877-39.03c0-25.073,4.136-39.289,11.632-39.289c2.068,0,6.979-2.843,10.856-6.203l7.237-6.462
		l-11.115-11.373c-11.89-12.149-11.373-17.577,1.292-11.632c4.394,2.068,8.271,6.72,9.822,11.632
		c3.877,11.632,5.687,12.666,12.407,6.462c6.462-5.945,31.017-19.386,40.064-21.712c8.788-2.326,6.72-6.462-5.687-12.149
		c-9.305-3.877-12.924-7.754-18.352-18.352c-6.72-12.924-6.72-18.094-0.258-18.094c2.585,0,4.136-6.979,5.428-23.78l1.809-24.039
		l-12.149-10.856l-12.407-10.856l1.809-16.801c2.326-22.746,5.17-29.467,13.699-32.827c4.136-1.551,9.564-4.653,12.407-7.237
		c2.843-2.585,7.496-5.428,10.339-5.945c2.843-0.775,6.979-2.326,9.305-3.102c3.619-1.551,4.394,1.292,5.428,21.454
		c1.292,25.848,5.17,33.861,17.06,33.861h6.462l-1.809,26.623c-1.551,25.59-1.292,26.882,4.653,35.153
		c8.013,10.856,18.61,17.318,41.357,25.848c26.623,10.081,31.276,20.678,19.645,44.2c-7.754,15.509-16.543,20.161-52.988,28.433
		c-17.06,3.877-21.971,8.53-21.971,21.712c-0.259,21.971-5.945,34.636-21.712,49.887c-10.598,10.081-14.475,15.767-13.699,19.128
		c0.775,2.585-0.776,7.496-3.102,10.598c-6.203,8.271-7.496,37.738-1.809,39.806c4.653,1.809,4.394,1.809,26.106-10.081l15.25-8.271
		l0.259-17.318l0.517-17.06l17.318-18.094c9.564-9.822,19.386-21.195,21.971-25.331c6.72-10.856,22.488-24.039,36.187-29.984
		c27.657-11.89,51.954-33.602,60.743-55.056c9.305-21.971-10.856-51.696-46.268-68.497c-11.373-5.17-23.78-12.924-27.657-17.06
		c-7.754-8.53-12.407-23.263-12.407-39.547c0-8.788-1.551-12.666-6.72-17.577c-6.721-6.203-6.979-6.979-5.687-29.467
		c1.034-15.25,0.517-23.522-1.551-25.073c-4.911-3.877-35.412-10.598-55.315-12.407c-18.094-1.551-18.869-1.551-25.589,5.687
		c-5.687,5.945-6.979,10.081-7.237,20.42c0,7.237-1.034,12.924-2.585,12.924s-2.326-4.911-1.809-10.856
		c1.034-13.441-1.034-13.699-16.284-3.36c-10.598,7.237-11.373,8.788-13.182,22.488c-0.776,8.271-2.843,17.06-4.136,19.903
		c-4.911,9.047-6.72,0.258-3.619-16.543c4.911-24.814,6.462-28.433,12.407-28.433c2.843,0,8.53-2.585,12.407-5.687
		c3.877-3.36,9.047-7.237,11.632-8.788c2.843-1.551,4.136-4.394,3.36-6.72c-2.326-5.687-32.051-1.292-39.547,5.687
		c-3.102,2.843-6.462,4.394-7.237,3.36c-1.551-1.551-6.72,0.258-20.42,7.237c-43.683,21.971-46.785,24.814-35.67,30.759
		c6.203,3.36,11.115,12.149,8.788,15.767c-2.068,3.36-12.924-6.462-18.352-16.543c-5.945-11.89-5.17-12.924,26.365-28.691
		c7.237-3.619,14.733-7.754,16.801-9.047c4.136-2.585,14.216-6.721,21.454-9.047c2.843-1.034,4.394-4.136,4.394-9.305
		c0-4.394,1.034-10.081,2.326-12.666c2.585-4.653,9.047-56.866,7.237-58.675c-1.034-1.034-24.297,10.598-29.467,14.992
		c-2.068,1.551-3.36,12.666-3.877,31.276c-0.517,20.161-1.809,28.95-4.136,29.725c-2.585,0.775-2.843-4.911-1.809-26.365
		l1.551-27.399h-7.238h-6.979l8.788-7.496c4.911-4.136,11.89-8.271,15.509-9.047c3.619-0.517,11.89-4.653,18.352-9.047
		c10.598-6.462,12.407-9.047,13.958-18.611c1.034-6.204,3.619-15.767,5.428-21.195c4.394-12.407,1.809-13.699-17.577-9.822
		c-26.106,5.687-26.623,5.945-25.589,32.052c0.517,14.992-0.259,22.488-2.068,22.488c-2.585,0-4.136-13.441-3.877-32.827
		c0.259-7.754-0.258-8.013-9.047-7.496c-5.17,0.258-11.373,1.551-13.958,2.585c-2.585,1.292-5.428,1.551-6.203,0.775
		c-0.776-1.034,1.292-2.843,4.911-4.136c8.53-3.36,13.182-9.305,13.958-19.128c0.258-4.653,2.068-18.352,3.877-30.759
		c3.102-20.937,5.17-26.106,8.53-20.678c1.292,2.068-1.551,29.725-5.17,50.404c-1.809,11.632,0.258,11.89,20.161,4.394
		c7.496-2.843,16.543-5.17,20.161-5.17c3.619,0,9.822-1.809,13.699-3.877c10.081-5.17,10.598-1.809,3.619,26.365
		c-3.36,13.182-5.687,24.556-4.911,25.331c0.775,0.517,4.394,0.517,8.013-0.517c5.945-1.551,6.203-1.034,3.36,2.585
		c-2.068,2.326-5.945,4.394-9.047,4.911c-4.911,0.775-5.687,2.585-5.945,13.699c-0.517,13.182-4.911,48.336-7.754,59.45
		c-1.551,5.945-1.292,5.945,14.992,4.653c8.788-0.775,16.801-2.068,17.577-3.102c1.292-1.292,0.775-24.297-3.102-127.431
		c-0.775-22.229-2.585-27.916-5.945-17.577c-1.809,5.428-6.462,7.237-6.462,2.585c0-1.551,1.809-6.979,3.877-12.149
		c2.068-4.911,3.877-12.924,3.877-17.318c0-4.394,1.292-9.822,2.585-11.89c1.551-2.585,0.776-6.462-2.585-12.407
		c-2.843-4.653-5.17-9.564-5.17-10.856c0-1.034,5.428-4.911,12.407-8.271c11.373-5.428,14.733-5.945,49.111-5.17
		c20.42,0.258,46.526,2.326,58.158,4.394c48.077,8.788,55.832,9.564,85.298,8.271c16.801-0.775,31.793-2.585,33.602-3.877
		c6.979-5.945,32.31-13.441,49.37-14.733c14.216-1.292,21.454-0.517,32.568,3.102c13.441,4.653,14.733,5.687,22.229,21.195
		c18.61,37.48,11.115,62.294-23.78,76.769c-5.17,2.068-10.081,6.462-11.373,10.339c-2.843,6.979-7.754,6.204-7.754-1.292
		c0-4.136,9.822-15.767,13.699-15.767c2.585,0,24.039-14.992,27.916-19.645c1.809-2.326,3.36-10.081,3.36-17.318
		c0.258-19.386-9.047-36.704-24.297-44.976c-10.339-5.428-13.958-6.204-33.085-4.911c-12.924,0.517-23.78,2.585-27.399,4.911
		c-11.115,7.496-38.255,14.733-54.539,14.733c-17.835,0-20.42,1.809-28.691,19.903c-2.585,5.945-5.687,11.115-6.72,11.115
		c-4.394,0-1.551-10.598,4.653-18.094c3.877-4.394,5.945-9.047,4.653-10.081c-3.877-3.619-75.993-15.509-97.964-16.284
		c-17.835-0.517-20.678,0-21.454,3.877c-1.034,5.428-5.687,5.945-5.687,0.517c0-8.271-17.318-9.564-29.725-2.068
		c-4.653,2.843-4.653,3.619-1.292,6.979c2.068,2.326,9.822,4.394,16.801,5.17c7.237,0.517,14.992,1.809,17.577,2.843
		c2.326,1.034,6.979,1.292,10.081,0.517c3.102-0.775,8.013-0.258,10.856,1.551c5.428,3.102,9.047,3.877,28.174,5.428
		c5.17,0.517,10.598,1.551,11.632,2.585c3.36,3.619,19.127,9.305,21.454,7.754c1.292-0.775,3.102,0.517,3.877,2.843
		c1.034,2.326,6.979,6.979,13.699,10.339c18.094,9.305,28.174,17.835,38.255,32.052c4.911,7.237,12.407,14.475,16.543,16.284
		c9.305,4.136,9.564,6.204,0.517,8.53c-5.945,1.551-8.013,0.517-12.407-5.687c-10.081-14.216-31.534-34.378-36.704-34.378
		c-3.877,0-6.979,4.136-12.407,15.767l-6.979,15.767l5.945,6.204c3.102,3.36,6.72,6.204,8.013,6.204
		c1.034,0,23.005,20.937,48.594,46.268c36.446,36.187,47.56,46.009,51.696,44.976c14.733-3.877,33.344,17.06,44.2,49.628
		c4.653,14.475,5.687,23.005,5.17,42.391c-0.517,26.365,1.292,31.276,12.407,31.276c12.149,0,16.543-5.428,17.835-22.488
		c1.034-13.441,0.258-16.026-5.687-23.263c-5.428-6.204-6.72-10.856-6.72-21.195c0-7.237-2.843-25.073-6.203-39.806
		c-3.36-14.475-6.979-32.052-8.013-39.289c-1.034-6.979-3.36-18.611-5.17-25.848c-5.687-21.454-6.979-35.412-3.36-34.378
		c1.809,0.775,3.877,4.653,4.911,8.788c0.775,4.136,3.619,16.284,5.945,26.882c2.068,10.598,6.979,32.827,10.598,49.111
		c3.619,16.284,7.237,36.446,8.271,44.717c1.034,9.822,3.877,18.352,8.013,24.556c9.564,14.216,10.339,29.467,1.809,48.336
		c-3.877,8.53-9.305,18.094-12.148,21.195c-4.911,5.17-4.911,5.428-0.259,8.013c2.585,1.551,3.877,3.619,2.843,4.394
		c-4.136,4.394-15.509-2.326-24.814-13.958l-10.081-12.665l1.292-19.903c1.551-25.331-3.102-50.662-13.441-71.599
		c-10.339-20.937-17.318-25.073-32.568-20.161c-14.992,4.911-16.543,10.598-7.754,28.433c17.577,35.67,20.42,42.649,18.61,44.459
		c-3.36,3.36-14.475-1.809-29.208-13.441c-7.496-5.687-18.352-12.924-24.556-15.509c-6.204-2.843-14.992-9.822-19.386-15.509
		c-11.373-14.216-41.615-36.446-66.946-49.37c-11.373-5.945-21.454-11.632-22.229-12.924c-1.551-2.843-12.407-3.102-14.992-0.258
		c-1.034,1.034-6.203,1.809-11.373,1.809c-9.047,0-9.305,0.258-10.081,10.339c-0.258,5.687-1.034,13.182-1.292,16.801
		c-0.775,5.945,0.258,6.462,9.564,7.237c5.687,0.517,11.373,1.809,12.924,2.843c1.292,1.292,7.238,3.619,12.924,5.428
		c14.733,4.653,30.759,14.733,47.56,29.984c39.289,35.412,52.73,42.908,74.184,41.615c8.788-0.517,10.081,0.258,10.856,5.687
		c0.775,5.428,0.258,5.945-5.17,4.394c-3.102-1.034-12.407-2.843-20.161-3.877c-20.937-2.843-27.657-6.979-63.844-39.806
		c-12.149-11.115-23.522-19.644-25.073-19.128c-1.809,0.517-2.843,8.53-2.843,20.161c0,17.835,0.258,19.128,5.945,19.903
		c5.17,0.775,5.687,2.326,5.687,16.284c0,11.89,1.809,18.869,7.754,30.501c8.271,16.801,15.509,23.005,34.895,30.242
		c22.229,8.271,47.56,39.289,47.819,58.417c0,3.877-2.843,13.182-5.945,20.678c-8.788,19.645-42.908,49.887-61.26,54.539
		c-10.598,2.585-31.018,19.903-32.568,27.399c-0.776,3.619-3.102,9.822-5.17,13.699c-2.068,3.619-3.619,9.305-3.619,12.407
		c0,3.36-1.292,5.17-3.102,4.394c-1.809-0.517-3.102-3.619-2.843-6.721c0.517-2.843-0.258-5.428-1.292-5.428
		c-2.843,0-19.903,18.352-23.522,25.073c-3.102,6.204-3.877,24.039-0.776,24.039c2.068,0,12.924-7.237,49.628-33.344
		c55.832-39.547,69.014-46.268,84.781-41.874c9.822,2.585,6.462,6.462-5.428,5.945c-11.115-0.775-22.488,5.687-62.552,34.378
		c-18.869,13.699-71.599,48.336-80.646,53.247c-7.496,4.136-8.271,5.428-10.081,24.556c-1.034,11.373-1.809,26.882-2.068,34.636
		c-0.259,13.699,0,14.216,6.203,13.699c9.564-0.517,38.772-9.305,49.111-14.733c27.657-14.475,60.484-39.547,88.659-67.463
		c27.657-27.657,34.119-37.221,27.916-41.098c-3.619-2.326-41.357,12.924-51.954,20.937c-9.305,6.979-30.242,18.869-33.344,18.869
		c-6.462,0-2.068-5.687,10.081-13.182c6.979-4.394,22.746-18.352,34.636-31.276c23.263-24.814,32.568-27.399,12.924-3.619
		c-7.496,9.305-10.339,14.475-7.754,14.475c2.068,0,4.653-1.034,5.428-2.585c0.776-1.292,4.136-2.585,7.237-2.585
		c3.102,0,8.013-1.809,10.598-3.877c5.945-4.394,16.026-5.17,18.352-1.292c0.775,1.551,3.877,2.585,6.72,2.585
		c6.72,0,6.203,1.809-4.136,13.182c-8.788,9.822-12.149,23.263-6.72,26.623c4.136,2.585,34.378-19.644,42.649-31.276
		c8.013-11.373,29.984-59.967,29.984-66.171s14.992-27.14,20.678-28.95c3.102-1.034,7.754-0.258,11.373,2.326
		c5.428,3.36,5.945,5.428,4.911,15.509c-1.034,8.53,0.258,15.767,4.394,26.106c6.721,16.284,5.945,29.208-2.068,40.064
		c-3.877,4.911-7.496,6.462-15.767,6.721l-10.856,0.258l-7.754,21.712c-4.136,11.89-11.632,33.861-16.801,48.853
		c-4.911,14.992-10.856,30.759-12.924,35.412c-2.068,4.394-4.394,11.632-5.17,16.026c-1.809,8.271-7.496,14.992-9.564,11.373
		c-1.292-2.326,21.195-74.701,28.174-89.951c4.911-11.373,16.026-43.166,17.06-49.111c0.776-4.394,2.585-5.17,11.89-4.394
		c19.386,1.551,22.229-5.428,13.699-35.412c-2.585-9.305-5.687-17.06-7.237-17.577c-8.013-2.843-14.216,4.394-24.814,27.657
		c-18.869,41.615-20.678,44.976-31.535,55.573c-10.339,10.339-38.772,27.14-45.751,27.14c-2.068,0-5.945-2.326-8.53-5.17
		c-4.653-5.17-4.911-4.911-22.746,14.216c-9.822,10.598-23.263,22.488-29.725,26.365c-6.72,3.877-17.318,10.598-23.78,15.25
		c-6.462,4.394-13.699,8.788-16.026,9.564c-5.945,2.068-6.462,23.005-0.776,27.657c2.068,1.809,3.877,5.428,3.877,8.013
		c0,7.237,4.136,6.203,19.128-4.653c31.276-22.746,63.586-51.954,63.586-57.641c0-5.945,15.25-28.95,18.094-27.14
		c1.292,0.775-1.551,9.822-6.462,20.161c-7.754,16.801-11.89,21.195-37.996,43.942c-16.026,13.699-33.602,27.399-38.772,30.242
		c-10.598,5.687-11.89,8.788-6.203,15.25c1.809,2.326,4.653,7.496,5.945,11.632c1.292,4.394,3.877,8.271,5.428,8.788
		c1.809,0.517,11.115-7.237,20.678-17.318c16.026-17.06,17.835-18.094,25.073-16.284c4.394,1.292,8.013,3.877,8.53,6.203
		c0.517,3.102-1.551,3.877-9.047,3.619c-8.271-0.259-10.081,0.775-13.182,6.979c-2.068,4.136-9.305,11.373-16.543,16.543
		c-11.115,8.013-12.666,10.081-11.115,16.026c2.068,8.271,20.678,25.331,30.501,27.399c5.428,1.292,10.081-0.259,19.386-5.945
		c12.924-8.013,41.874-14.992,53.764-12.666c19.386,3.619,37.996-11.89,36.704-30.242l-0.775-10.598l-12.149,0.776
		c-11.89,0.775-12.666,0.258-16.543-8.271c-5.945-12.407-3.36-17.835,7.237-15.767c10.856,2.068,19.903,8.53,27.399,19.386
		c6.979,10.598,7.237,16.026,0.259,30.242c-8.788,18.094-17.318,22.488-46.268,23.522c-25.073,0.776-40.323,4.911-50.403,13.699
		c-2.843,2.585-17.577,10.339-32.568,17.577c-25.589,12.149-29.208,13.182-56.865,15.767
		C1270.469,1150.955,1259.871,1150.955,1230.663,1148.112z M1256.511,1139.324c0-2.068-1.034-4.653-2.585-5.428
		c-1.292-0.775-2.585-2.843-2.585-4.653c0-1.551,4.136,1.034,9.047,5.945l8.788,8.53l21.454-2.843
		c11.89-1.551,28.174-3.619,36.446-4.653c9.047-1.034,18.352-3.877,23.522-7.496c4.911-3.36,10.856-6.462,13.441-6.979
		c6.203-1.034,7.754-7.237,1.809-7.237c-2.843,0-11.632-6.462-19.644-14.475l-14.475-14.475l-12.407,6.721
		c-6.72,3.619-16.801,8.271-22.488,10.339c-8.788,3.619-9.822,4.911-8.271,11.115c1.034,4.136,4.136,9.305,7.237,11.89
		c6.462,5.428,4.394,8.788-3.36,5.428c-3.102-1.551-6.979-6.72-8.53-11.373c-3.36-10.339-6.204-10.856-31.276-3.877
		c-17.06,4.653-36.446,6.979-57.382,6.462c-10.856-0.259-13.699,0.517-13.699,3.877c0,4.911,11.632,9.822,18.611,7.496
		c2.585-0.775,6.462-0.258,8.271,1.551c2.068,1.551,12.665,3.619,23.78,4.911c11.373,1.292,21.195,2.326,22.488,2.585
		C1255.736,1142.684,1256.511,1141.391,1256.511,1139.324z M1237.901,1063.331c4.136-2.585,3.36-47.043-0.776-47.302
		c-3.619-0.258-14.992,43.166-12.666,47.302C1226.269,1065.915,1233.506,1065.915,1237.901,1063.331z M1259.871,1059.712
		c3.102-1.809,8.013-3.36,10.856-3.36c3.36,0,5.428-2.068,5.945-5.945c0.775-5.17,0-5.945-4.394-4.394
		c-4.136,1.292-5.428,0.517-5.17-3.102c0-7.237,8.788-27.14,11.373-26.106c1.034,0.517,2.585,7.496,2.843,16.026
		c0.517,8.271,1.292,15.767,2.068,16.284c2.843,2.843,9.564-2.068,11.89-8.53c2.326-5.687,3.36-6.203,6.72-3.36
		c3.102,2.585,4.653,2.326,8.013-1.034s3.619-4.911,0.775-8.013c-1.809-2.326-4.911-4.136-6.72-4.136
		c-2.585,0-3.102-2.843-2.068-11.373c1.034-6.204,0.517-11.89-0.775-12.666c-1.034-0.775-9.047,1.034-17.577,3.877
		c-8.53,3.102-20.161,6.203-25.848,6.979l-10.339,1.551l-0.775,21.712C1245.655,1063.589,1247.206,1066.691,1259.871,1059.712z
		 M1188.014,947.015l23.263-4.394l-0.776-15.767c-0.517-8.788,0.259-20.42,1.809-25.848c1.292-5.428,3.102-12.924,3.877-16.801
		c0.775-3.877,7.754-11.632,18.352-20.161c14.216-11.632,16.801-14.992,16.801-21.712c0-4.653,1.034-12.666,2.326-17.835
		c1.292-5.17,1.551-10.339,0.776-11.115c-0.776-0.775-5.945,2.843-11.373,8.271c-10.598,10.339-15.767,10.081-8.788-0.517
		c5.428-8.271,26.882-25.331,36.704-29.208c4.136-1.551,13.958-4.136,21.712-5.687c8.013-1.551,18.094-4.911,22.746-7.754
		c16.026-9.822,23.78-31.018,14.216-39.289c-2.585-2.326-10.598-5.945-17.835-8.271c-15.767-5.17-42.391-21.454-42.391-26.106
		c0-1.809-1.809-4.911-4.136-6.72c-3.619-3.102-4.136-6.979-2.843-25.848l1.809-22.229l-8.013-7.496
		c-10.339-9.564-13.182-16.801-14.992-35.67c-0.776-8.53-2.843-15.767-4.394-16.284c-5.687-1.809-26.882,17.835-29.467,27.399
		c-3.877,14.216-3.36,28.691,1.292,28.691c2.068,0,5.687,2.843,8.013,6.462c2.326,3.619,5.945,6.462,8.271,6.462
		c3.36,0,3.619,3.102,1.809,22.746c-3.877,43.166-3.619,47.043,1.034,55.573c2.585,4.653,7.754,9.047,13.182,10.856
		c18.869,6.462,15.25,18.094-8.271,26.107c-15.509,5.17-19.127,10.598-21.454,32.827c-1.034,9.564-2.843,17.318-4.394,17.318
		s-2.068-5.428-0.776-15.25c1.034-9.564,0.776-15.767-1.034-16.801c-3.102-2.068-18.869,7.496-32.31,19.386
		c-8.53,7.496-9.305,9.305-9.305,22.746c-0.259,14.475-2.585,35.412-7.496,67.463l-2.585,16.543l8.013,6.72
		c7.754,6.462,8.53,14.216,1.292,11.373c-4.394-1.551-13.182,8.013-10.856,11.632
		C1153.895,952.443,1160.357,952.184,1188.014,947.015z M1440.29,584.109c-5.17-10.339-12.924-24.039-17.577-30.501
		c-11.632-16.543-47.56-52.73-60.484-60.743c-5.945-3.877-15.509-11.373-21.454-16.801c-14.216-12.924-28.95-18.611-50.145-19.128
		c-14.216-0.258-17.318-1.034-18.094-4.653c-0.775-3.619,0.775-4.653,5.687-4.653c9.047,0,13.958-10.081,9.822-19.386
		c-4.136-8.788-3.877-9.822,0.775-8.013c2.326,0.775,4.911-0.775,6.721-4.136c2.326-4.136,2.068-6.204-1.292-9.564
		c-3.877-3.877-4.394-3.619-5.687,1.809c-2.326,8.013-5.945,6.979-7.754-2.068c-1.292-6.203-3.102-7.754-8.53-7.754h-6.979
		l-1.034,30.501c-0.517,16.543-1.034,37.738-1.292,47.043v16.801h12.924c10.081,0.258,18.094,2.843,34.895,11.373
		c12.149,5.945,26.623,14.216,32.31,18.352s18.094,12.924,27.657,19.644c9.564,6.462,18.094,13.958,18.869,16.543
		c1.809,5.687,14.475,15.509,27.399,21.712c4.911,2.326,13.699,8.788,19.128,14.475s10.598,9.564,11.632,9.047
		C1448.82,603.236,1445.46,594.448,1440.29,584.109z M1430.726,538.875c0.775-2.585,2.843-6.72,4.653-9.047
		c2.843-3.877-1.809-9.305-38.255-45.492c-23.005-22.488-46.009-44.459-51.438-48.594l-9.822-7.237l-8.53,10.081
		c-4.911,5.687-8.788,11.115-8.788,12.149c0,1.034,4.136,3.877,9.305,5.945c5.17,2.068,13.699,7.754,19.127,12.407
		c5.17,4.394,16.801,13.441,25.331,19.386c8.788,6.204,19.644,15.767,24.297,21.454
		C1426.332,545.337,1427.883,546.629,1430.726,538.875z M1247.206,535.773c2.326-3.619,2.585-62.035,0.517-77.027
		c-1.551-9.564-1.034-13.699,0.776-13.699s3.619,1.809,4.394,3.877c3.619,9.047,4.911,2.326,5.17-24.556
		c0.258-25.848,0-28.433-4.394-28.433c-2.585,0-5.428,1.292-6.203,2.585c-1.292,2.068-2.843,2.068-5.17,0
		c-2.326-1.809-3.877-1.809-5.945,0.517c-2.326,2.843-6.979,55.056-9.564,106.752c-0.517,7.237-2.068,16.284-3.619,20.161
		c-1.551,4.136-2.326,8.53-1.292,9.822C1223.684,538.875,1245.396,538.875,1247.206,535.773z M1218.773,514.061
		c0.776-4.653,2.326-20.678,3.102-35.412c3.102-61.001,10.856-121.227,16.543-127.948c5.687-6.72-9.047-8.788-21.712-3.102
		l-7.238,3.102l1.809,69.79c1.034,38.514,1.809,77.027,1.809,86.074C1212.828,523.624,1216.188,528.019,1218.773,514.061z
		 M1312.084,447.631c3.102-4.911-1.551-36.187-5.428-36.187c-1.809,0-4.136,3.102-5.17,7.237
		c-0.775,3.877-2.585,11.115-3.877,16.026c-1.809,7.237-1.551,9.564,2.068,12.407
		C1304.847,450.991,1310.016,451.25,1312.084,447.631z M1326.301,430.572c2.843-3.102,2.843-4.653-0.517-8.013
		c-4.911-4.653-9.822-2.585-9.822,4.136C1315.961,435.224,1321.131,437.034,1326.301,430.572z M1341.292,399.037
		c4.653-9.822,8.271-18.352,8.271-19.128c0-2.585-28.433-15.509-31.793-14.216c-4.394,1.551-7.754,25.331-4.136,28.95
		c1.292,1.292,2.326,4.653,2.326,7.496c0,6.204,7.237,14.475,12.666,14.475C1331.47,416.614,1335.864,410.152,1341.292,399.037z
		 M1306.915,393.35c-4.394-4.911-4.653-6.72-1.809-17.06c1.809-6.204,3.102-12.924,3.102-14.992c0-4.136-27.916-10.598-36.963-8.271
		c-4.394,1.034-6.979,0.258-8.013-2.326c-1.551-4.136-13.182-5.428-15.509-1.551c-1.034,1.292-2.585,9.822-3.877,18.869
		c-2.843,20.161-0.517,23.78,12.924,21.712c5.428-0.775,10.598-0.517,11.373,1.034c0.776,1.292,3.36,2.585,5.687,2.585
		c3.36,0,3.877-2.326,2.326-15.25c-1.034-9.047-0.776-16.026,0.775-16.801c3.877-2.585,5.428,2.068,6.462,17.318
		c0.775,17.06,2.585,19.903,11.89,19.903c4.136,0,8.271,1.292,9.305,2.843c1.034,2.068,2.326,2.068,4.394,0
		C1310.792,399.554,1310.275,396.969,1306.915,393.35z"/>
	<path id="path190" fill="#FFFFFF" d="M1317.512,1116.836c-3.619-2.843-6.72-6.462-6.72-7.754
		c0-4.394,6.72-2.326,12.407,3.619C1333.021,1123.039,1329.144,1125.883,1317.512,1116.836z"/>
	<path id="path192" fill="#FFFFFF" d="M1203.523,842.847c-2.585-3.877-0.776-4.911,10.598-6.462
		l10.081-1.292l-6.203,5.17C1211.277,846.207,1206.108,847.241,1203.523,842.847z"/>
	<path id="path194" fill="#FFFFFF" d="M1245.138,435.741c-2.585-6.462-1.809-19.128,1.034-19.128
		c1.551,0,2.585,3.36,2.585,7.496s0.776,9.305,1.551,11.632s0.517,4.136-1.034,4.136
		C1247.981,439.877,1245.913,438.068,1245.138,435.741z"/>
	<path id="path196" fill="#FFFFFF" d="M1261.681,372.672c0-12.666,3.102-17.06,6.203-8.788
		c2.068,5.428-0.776,21.712-3.877,21.712C1262.715,385.596,1261.681,379.909,1261.681,372.672z"/>
	<path id="path198" fill="#FFFFFF" d="M1159.581,1130.277c-1.551-2.843,2.326-5.945,4.911-3.619
		c2.326,2.326,1.809,5.945-0.775,5.945C1162.166,1132.603,1160.615,1131.569,1159.581,1130.277z"/>
	<path id="path200" fill="#FFFFFF" d="M1109.178,1120.972c0-0.776,3.102-4.394,6.979-7.755
		c6.979-5.945,7.237-5.945,2.326-11.373c-2.843-3.102-4.394-5.945-3.619-6.72c2.326-2.326,14.992,3.619,14.992,6.72
		c0,6.203-10.856,20.42-15.767,20.42C1111.504,1122.264,1109.178,1121.747,1109.178,1120.972z"/>
	<path id="path202" fill="#FFFFFF" d="M1085.139,1112.183
		c-10.081-6.721-10.598-7.496-7.238-11.632c4.394-5.17,2.326-7.755-11.631-14.475c-13.182-6.462-46.009-37.738-43.425-41.615
		c0.775-1.551,7.496,3.619,14.733,11.115c16.284,16.801,37.479,31.018,43.166,29.208c2.585-0.775,5.945,0.517,8.013,2.843
		c2.843,3.36,2.843,4.653,0.517,5.428c-5.428,1.809-3.877,10.339,3.102,15.767C1103.75,1117.87,1098.063,1120.455,1085.139,1112.183
		z"/>
	<path id="path204" fill="#FFFFFF" d="M1053.346,1098.742
		c-6.979-4.653-18.61-13.182-25.848-19.386c-7.237-6.203-14.475-11.373-16.284-11.373c-4.136,0-3.36-5.17,1.034-6.979
		c2.326-0.775,5.428,0.258,7.237,2.326c5.945,7.496,41.874,35.153,47.819,36.963c6.204,1.809,7.754,6.462,2.326,6.462
		C1067.821,1106.755,1060.583,1103.136,1053.346,1098.742z"/>
	<path id="path206" fill="#FFFFFF" d="M1094.961,1093.573c-1.034-1.551-1.292-3.36-0.258-4.136
		c2.068-2.068,14.475,1.551,14.475,4.394C1109.178,1097.191,1097.029,1097.191,1094.961,1093.573z"/>
	<path id="path208" fill="#FFFFFF" d="M1712.469,1082.2c-1.034-2.585-0.517-8.271,1.292-12.666
		c21.454-52.471,29.725-102.358,17.06-102.358c-5.17,0-9.564-7.237-10.598-17.577c-0.517-5.17-1.809-13.699-2.585-18.869
		c-1.809-10.856,1.551-14.216,9.305-10.081c3.619,1.809,6.462,2.068,8.53,0.517c4.653-3.619,40.581-6.72,40.581-3.619
		c0,1.551-1.292,3.102-2.585,3.619c-1.551,0.517-3.36,5.17-4.394,10.598c-1.034,7.237-0.259,10.856,2.843,14.475
		c6.462,6.979,2.843,19.128-22.488,76.51c-3.102,7.237-9.305,17.577-13.441,23.263c-4.394,5.945-10.081,16.284-12.666,23.263
		C1717.38,1085.301,1714.796,1088.403,1712.469,1082.2z M1749.432,1004.139c3.619-8.271,9.822-22.229,13.958-31.276l7.754-16.284
		l-6.72-7.754c-3.877-4.911-6.462-11.115-6.462-16.026v-8.271l-13.182,1.034c-8.53,0.517-13.441,2.068-14.475,4.653
		c-0.776,2.068,2.326,12.407,6.72,22.746c7.496,16.801,8.271,21.195,7.237,35.412c-0.776,9.047-2.068,19.386-3.102,23.522
		C1738.059,1023.783,1742.453,1019.647,1749.432,1004.139z"/>
	<path id="path210" fill="#FFFFFF" d="M1082.554,1075.221c-1.809-5.17,1.034-20.161,3.619-18.611
		c3.102,1.809,3.102,21.712,0,21.712C1084.881,1078.322,1083.33,1076.771,1082.554,1075.221z"/>
	<path id="path212" fill="#FFFFFF" d="M1419.095,1070.568
		c-12.924-6.72-16.801-11.89-12.666-16.801c2.585-3.102,4.136-3.36,6.72-1.034c2.068,1.551,5.945,2.326,9.047,1.551
		c8.013-2.068,23.005,7.754,23.005,15.25c0,5.428-1.292,6.204-8.271,6.204C1432.277,1075.479,1424.264,1073.411,1419.095,1070.568z"
		/>
	<path id="path214" fill="#FFFFFF" d="M1129.856,1060.229
		c-11.632-2.843-32.568-12.666-43.166-20.161c-4.653-3.36-12.666-6.72-17.577-7.496c-10.339-1.551-12.149-5.945-2.585-5.945
		c8.53,0,24.297,6.462,31.018,12.924c4.911,4.394,29.725,15.509,34.895,15.509c1.551,0,2.585-1.809,2.585-4.136
		c0-2.326,1.809-3.619,4.653-3.102c2.585,0.517,4.394,3.102,4.394,6.979C1144.073,1062.297,1142.005,1063.072,1129.856,1060.229z"/>
	<path id="path216" fill="#FFFFFF" d="M1205.849,1049.373c0.775-4.653,0.517-12.666-0.775-17.577
		c-1.809-7.754-2.326-8.271-3.877-3.877c-1.034,2.843-3.102,7.754-4.394,11.115c-1.292,3.36-2.326,8.271-2.326,10.856
		c0,2.843-1.034,5.17-2.585,5.17c-3.619,0-3.102-10.339,1.034-26.623c2.068-7.496,4.394-24.039,5.428-36.963
		c3.36-40.84,10.081-46.785,10.598-9.305c0,12.407,1.034,28.95,2.068,37.221c2.585,16.284,0,38.255-4.136,38.255
		C1205.332,1057.644,1204.815,1054.284,1205.849,1049.373z"/>
	<path id="path218" fill="#FFFFFF" d="M945.56,1020.681c-27.14-31.535-34.895-42.649-44.2-60.743
		c-8.788-17.577-22.229-57.9-22.229-66.946c0-4.394-1.551-12.407-3.36-17.835c-6.204-17.835-7.754-71.341-2.585-100.032
		l4.136-25.073l-5.945-6.204c-3.877-4.394-5.17-8.013-3.877-11.115c1.551-4.136,2.326-3.877,7.496,2.585
		c3.102,3.877,6.462,6.979,7.496,6.979s1.809-5.428,1.809-12.149c0-18.352,3.102-39.547,5.428-39.547
		c1.292,0,2.326,1.809,2.326,3.877c0,2.068,1.034,3.877,2.068,3.877c1.292,0,4.394-9.047,6.979-19.903
		c2.326-11.115,6.72-27.916,9.305-37.48c2.843-9.305,4.911-19.386,4.911-21.971s2.326-9.305,5.17-14.992
		c2.843-5.687,5.17-11.373,5.17-13.182c0-1.551,2.843-8.013,6.204-14.475c3.619-6.721,7.496-20.678,9.305-32.052
		c1.551-11.373,3.36-22.488,4.136-24.814c1.034-3.102,0-4.653-2.585-4.653c-4.136,0-26.882,33.344-29.984,43.942
		c-1.034,3.619-6.979,19.386-13.441,34.895c-6.462,15.767-14.733,39.031-18.611,51.696c-16.543,54.539-28.174,89.176-30.242,89.176
		c-3.619,0-2.843-5.687,4.136-26.107c3.619-10.598,8.788-26.623,11.632-35.929c2.585-9.305,8.53-28.95,12.666-43.942
		c10.339-35.67,23.78-67.98,36.704-88.142c4.136-6.462,7.496-14.216,7.496-17.318c0-3.36,1.551-5.687,3.877-5.687
		c4.136,0,19.386-19.386,19.386-24.814c0-1.809,9.305-11.115,20.678-20.937c30.242-26.106,31.793-27.14,62.552-42.391
		c4.653-2.326,30.501,0,30.501,2.843c0,0.775-3.877,8.53-8.271,17.06c-6.979,12.407-8.53,18.094-8.53,30.759
		c0,11.89-0.775,15.509-3.877,15.509c-7.496,0-8.013-19.128-0.775-36.187c9.305-22.488,9.047-23.522-2.585-22.488
		c-16.284,1.551-44.975,20.937-70.823,47.56l-13.182,13.699l-1.809,24.556c-1.034,13.441-4.394,33.344-7.237,43.942
		c-3.102,10.598-5.687,26.882-6.204,36.187c-0.258,9.305-2.326,31.276-4.394,49.111c-2.068,17.835-4.653,64.62-5.687,104.167
		c-1.034,39.289-2.843,71.599-4.136,71.599c-4.653,0-0.517-138.545,5.945-194.635c2.843-25.848,2.326-33.602-2.068-29.467
		c-0.775,1.034-3.102,8.53-4.911,16.801c-5.428,24.039-18.611,73.408-22.746,85.04c-2.068,5.945-4.653,16.026-5.428,22.488
		c-1.034,6.721-2.843,12.666-4.136,13.441s-2.326,5.17-2.326,9.822c0,4.394-1.034,9.305-2.326,10.598
		c-10.339,11.632-10.598,74.959-0.258,124.07c4.136,18.869,6.462,21.971,11.632,15.25c5.17-6.979,5.17,0.517-0.258,11.373
		c-3.619,7.496-3.619,9.305,1.551,23.522c3.102,8.53,7.237,16.026,9.305,16.801c2.068,0.775,3.619,3.102,3.619,5.428
		c0,5.687,9.822,24.556,12.924,24.556c1.292,0,3.619-4.653,5.17-10.339c3.102-11.632,9.305-14.733,6.72-3.102
		c-5.687,24.297-5.428,25.848,5.17,36.187c5.687,5.17,13.441,13.958,17.577,19.386c4.136,5.17,9.564,9.564,12.149,9.564
		c3.36,0,4.911,1.809,4.911,6.203c0,3.619-1.034,6.979-2.068,7.754C971.408,1049.114,959.259,1036.707,945.56,1020.681z"/>
	<path id="path220" fill="#FFFFFF" d="M1129.856,1038c-3.619-1.809-8.53-3.36-10.856-3.619
		c-4.136,0-8.788-4.394-6.721-6.462c1.809-1.809,18.611,3.619,23.78,7.237C1142.78,1040.067,1137.61,1042.394,1129.856,1038z"/>
	<path id="path222" fill="#FFFFFF" d="M1040.422,1030.762c-1.034-2.585-0.517-5.687,1.034-7.237
		c2.068-2.068,3.36-1.809,4.653,1.551c1.034,2.585,0.517,5.687-1.034,7.237C1043.007,1034.381,1041.714,1034.122,1040.422,1030.762z
		"/>
	<path id="path224" fill="#FFFFFF" d="M973.993,1022.232c-3.102-2.843-1.809-9.305,2.585-14.475
		c4.394-4.653,4.394-5.17-5.687-13.441c-5.428-4.911-10.856-8.271-11.89-7.496c-1.034,0.517-2.585,4.653-3.619,8.788
		c-1.034,4.394-2.843,7.754-4.136,7.754c-3.102,0-3.102-12.149,0.258-14.216c7.237-4.394-1.551-21.712-27.14-54.281
		c-11.632-14.733-19.903-42.132-20.42-67.205l-0.258-20.678l7.754-1.292c5.428-1.034,8.013-3.102,8.53-7.237
		c1.034-6.72,4.394-7.496,6.72-1.551c1.034,2.843,3.36,3.619,7.754,2.585c3.619-0.775,6.979-0.517,8.013,0.775
		c1.809,3.36-5.945,7.496-18.611,10.081c-9.822,2.068-9.822,2.068-11.373,17.318c-1.809,16.284-0.517,22.746,9.822,45.234
		c10.856,23.78,53.247,80.129,60.484,80.129c1.292,0,2.326-2.326,2.326-5.17c0-6.979,4.136-6.462,6.203,0.517
		c1.292,5.428,2.585,4.653,18.869-10.856c9.564-9.305,18.352-17.835,19.386-19.386c1.034-1.292,2.585-1.551,3.619-0.517
		c1.292,1.034-7.237,10.856-18.869,21.971c-11.373,10.856-22.746,23.78-25.073,28.174c-2.326,4.653-5.687,8.271-7.496,7.754
		c-1.551-0.258-2.843,1.551-2.326,4.136C980.196,1024.042,977.095,1025.593,973.993,1022.232z"/>
	<path id="path226" fill="#FFFFFF" d="M1079.453,1019.13c-1.809-3.102,3.102-6.203,6.462-4.136
		c2.843,1.809,1.034,6.462-2.585,6.462C1082.037,1021.457,1080.486,1020.423,1079.453,1019.13z"/>
	<path id="path228" fill="#FFFFFF" d="M1056.448,1002.846c2.068-7.237,3.102-8.53,5.17-6.462
		c2.326,2.068-1.551,12.149-4.394,12.149C1055.672,1008.533,1055.414,1005.948,1056.448,1002.846z"/>
	<path id="path230" fill="#FFFFFF" d="M1041.973,981.392c0-11.115,1.034-19.386,2.585-19.386
		c1.551,0,2.585,8.271,2.585,19.386c0,11.115-1.034,19.386-2.585,19.386C1043.007,1000.778,1041.973,992.507,1041.973,981.392z"/>
	<path id="path232" fill="#FFFFFF" d="M1065.236,980.875c0-6.462,3.877-9.822,6.462-5.687
		c1.034,1.551,0,4.653-2.326,6.979C1065.495,986.045,1065.236,986.045,1065.236,980.875z"/>
	<path id="path234" fill="#FFFFFF" d="M1615.798,935.641c0-21.712-0.775-52.213-2.068-67.98
		c-2.068-28.174-1.809-34.895,2.068-34.895c3.36,0,5.687,23.78,6.721,72.374c1.034,48.594-0.259,69.79-4.394,69.79
		C1616.832,974.93,1615.798,957.354,1615.798,935.641z"/>
	<path id="path236" fill="#FFFFFF" d="M1072.991,959.422c0-3.36,1.292-5.17,3.36-4.394
		c1.551,0.517,3.102,2.585,3.102,4.394s-1.551,3.877-3.102,4.653C1074.283,964.591,1072.991,962.782,1072.991,959.422z"/>
	<path id="path238" fill="#FFFFFF" d="M1040.422,952.96c-1.809-4.394,1.034-9.564,4.394-7.754
		c3.102,2.068,3.102,11.632-0.259,11.632C1043.007,956.837,1041.198,955.027,1040.422,952.96z"/>
	<path id="path240" fill="#FFFFFF" d="M907.564,945.981c0-4.394,4.653-11.373,6.204-9.564
		c2.068,1.809-1.292,12.666-3.877,12.666C908.597,949.082,907.564,947.532,907.564,945.981z"/>
	<path id="path242" fill="#FFFFFF" d="M992.862,938.743c0-1.292,1.292-2.585,2.585-2.585
		c1.551,0,2.585,1.292,2.585,2.585c0,1.551-1.034,2.585-2.585,2.585C994.154,941.328,992.862,940.294,992.862,938.743z"/>
	<path id="path244" fill="#FFFFFF" d="M1657.672,917.806c-3.877-10.598-5.687-23.005-3.36-23.005
		c3.877,0,10.856,24.039,8.013,26.882C1660.773,923.234,1659.223,921.942,1657.672,917.806z"/>
	<path id="path246" fill="#FFFFFF" d="M986.658,912.12c-3.36-3.36-8.53-10.856-11.632-16.543
		c-6.203-12.407-19.128-50.921-23.78-70.565c-1.551-7.754-4.394-16.284-5.945-18.611c-1.809-3.36-1.809-5.428,0.258-7.496
		c3.877-3.877,8.53-0.775,8.53,6.203c0,3.102,2.843,17.318,6.462,31.535c7.496,29.467,22.229,61.26,31.276,67.205
		c6.462,4.136,8.013,10.081,3.619,12.924C994.154,917.548,990.019,915.48,986.658,912.12z"/>
	<path id="path248" fill="#FFFFFF" d="M1679.384,905.399c-2.585-2.843-6.979-5.687-10.081-6.462
		c-11.632-3.102-42.908-63.586-33.085-63.586c1.809,0,8.013,10.856,14.216,24.297c9.564,20.161,13.182,25.331,23.005,32.052
		c11.632,8.013,16.284,14.733,12.407,17.06C1684.553,909.535,1681.71,907.984,1679.384,905.399z"/>
	<path id="path250" fill="#FFFFFF" d="M998.031,893.509c0-8.788,8.271-51.179,13.182-67.722
		c3.102-9.564,5.945-21.454,6.72-25.848c2.326-15.25,7.754-10.081,9.564,9.047c2.326,27.14,4.394,37.738,8.271,40.064
		c4.136,2.326,4.911,13.699,0.775,16.026c-3.619,2.585-4.136,1.551-7.496-12.924c-5.428-23.005-8.53-32.31-10.856-32.31
		c-1.034,0-2.068,4.394-2.068,9.822s-1.034,10.856-2.326,12.149c-1.034,1.551-4.136,14.475-6.72,29.208
		c-2.843,14.475-5.687,26.365-6.979,26.365C999.065,897.386,998.031,895.577,998.031,893.509z"/>
	<path id="path252" fill="#FFFFFF" d="M1768.559,875.674l-34.636-2.843l-4.136-20.937
		c-3.877-18.611-5.687-22.746-16.543-35.412c-6.72-8.013-18.611-19.903-26.365-26.623c-15.767-13.441-17.835-17.577-6.979-14.992
		c15.767,3.877,38.255,24.556,52.213,48.336c3.102,4.911,6.203,16.543,7.237,25.589c1.809,15.767,2.068,16.284,9.564,16.801
		c12.149,1.034,45.751,6.204,49.628,7.754c4.653,1.809,4.136-5.945-1.034-14.992c-4.394-7.496-4.394-7.496,5.17-17.318
		c12.924-13.182,27.399-19.903,49.628-23.78c15.509-2.326,19.644-2.326,28.174,1.292c12.407,5.17,9.305,10.081-4.136,6.462
		c-6.72-2.068-14.216-1.551-27.657,1.292c-34.636,7.237-48.594,20.937-38.513,37.48c2.326,3.877,2.585,6.462,0.517,9.564
		C1807.073,879.034,1808.882,878.776,1768.559,875.674z"/>
	<path id="path254" fill="#FFFFFF" d="M1136.318,874.123c0.775-1.292,2.585-2.585,4.136-2.585
		c1.292,0,2.326,1.292,2.326,2.585c0,1.551-1.809,2.585-4.136,2.585C1136.577,876.708,1135.543,875.674,1136.318,874.123z"/>
	<path id="path256" fill="#FFFFFF" d="M1679.125,858.873c-2.068-4.136-7.237-10.081-11.632-13.182
		c-4.136-3.102-7.754-7.496-7.754-9.564c0-2.326-1.809-6.203-4.136-8.788c-2.326-2.585-2.843-4.911-1.292-5.945
		c1.292-1.034,4.653,1.292,7.237,5.17c2.585,3.619,8.271,10.856,12.666,16.026c7.754,9.047,13.958,19.128,13.958,22.229
		C1688.172,869.212,1682.744,865.335,1679.125,858.873z"/>
	<path id="path258" fill="#FFFFFF" d="M1702.389,849.309c-3.877-11.115-7.754-17.06-17.577-25.073
		c-12.666-10.856-18.869-19.128-16.284-21.712c2.326-2.585,35.153,27.916,35.153,32.568c0,2.326,1.809,6.72,3.877,9.564
		c3.877,5.17,5.428,19.128,1.809,19.128C1708.334,863.784,1705.232,857.322,1702.389,849.309z"/>
	<path id="path260" fill="#FFFFFF" d="M1040.681,832.249c1.034-6.203,3.619-15.25,5.687-20.161
		c6.203-14.992,13.182-37.48,16.026-52.213c3.36-18.352,7.496-28.691,10.598-26.623c3.102,2.068,3.619,103.909,0.258,105.718
		c-3.36,2.068-6.203-37.48-4.136-56.866c2.068-18.094-2.068-23.522-4.911-6.721c-2.843,14.992-20.678,67.722-23.005,67.722
		C1039.905,843.106,1039.647,838.195,1040.681,832.249z"/>
	<path id="path262" fill="#FFFFFF" d="M1104.784,820.618c1.034-9.564,2.843-18.352,4.394-19.903
		c1.292-1.292,2.585-5.17,2.585-8.013c0-3.102,2.843-8.271,6.462-11.632c7.496-7.237,8.013-9.564,2.068-16.026
		c-3.36-3.619-3.619-5.428-1.292-7.754c2.326-2.326,4.653-1.809,10.081,2.326c9.564,6.979,10.339,22.229,1.551,23.522
		c-7.496,1.034-16.284,12.407-16.284,20.937c0,10.339-5.945,33.861-8.788,33.861
		C1104.267,837.936,1104.008,830.699,1104.784,820.618z"/>
	<path id="path264" fill="#FFFFFF" d="M1424.523,825.271c-4.394-8.271-3.102-15.767,3.36-18.094
		c8.013-3.102,21.454-22.746,23.522-35.153c2.843-15.509,11.89-34.378,18.869-40.064c10.856-8.53,30.242-13.441,42.649-11.115
		c10.598,2.326,11.115,2.843,10.598,11.115c-0.517,9.564-6.203,15.509-14.733,15.509c-3.102,0-10.856,2.843-17.577,6.204
		c-6.979,3.36-12.407,5.17-12.407,4.136c0-4.394,18.61-16.284,27.916-17.835c11.632-2.068,14.475-9.564,4.653-12.149
		c-8.53-2.068-31.793,5.687-39.289,13.182c-3.36,3.36-8.53,14.475-11.632,24.814c-6.72,23.005-15.767,39.547-24.556,45.492
		c-5.687,3.619-5.945,4.653-2.843,8.013c8.013,7.754,21.712-6.979,28.691-30.759c2.326-8.013,5.945-16.543,8.013-19.386
		c3.619-4.653,3.619-4.653,3.877,0.775c0,8.271-10.081,36.963-16.284,45.751c-4.911,6.979-18.352,14.475-26.106,14.475
		C1428.917,830.182,1426.074,827.855,1424.523,825.271z"/>
	<path id="path266" fill="#FFFFFF" d="M1606.234,801.232c-3.102-3.36-9.047-11.632-13.182-18.869
		c-4.394-6.979-10.339-14.475-13.441-16.284c-5.687-3.36-4.911-8.271,1.551-8.271c6.203,0,23.78,15.509,26.623,23.522
		c2.326,6.979,3.102,7.237,9.305,4.394c11.89-5.428,15.25,6.72,4.911,17.318C1616.573,808.469,1612.438,807.952,1606.234,801.232z"
		/>
	<path id="path268" fill="#FFFFFF" d="M959.518,800.715c-2.843-3.36-2.843-5.17-0.775-7.237
		c2.068-2.068,3.36-1.809,4.653,1.292C965.98,801.749,963.395,805.368,959.518,800.715z"/>
	<path id="path270" fill="#FFFFFF" d="M963.395,783.138c-6.462-7.496-11.632-14.733-11.115-16.026
		c0.517-1.292,4.653-4.394,9.305-6.979c4.653-2.326,10.339-6.203,12.666-8.013c2.326-2.068,8.788-5.687,14.216-8.271
		c11.632-5.428,12.407-3.619-16.026-33.602l-19.386-20.161l7.237-5.945c8.53-6.72,6.979-12.666-2.843-10.856
		c-3.619,0.775-6.979-0.258-7.496-2.068c-2.068-5.17,13.958-50.662,23.263-65.912c4.653-7.754,9.305-16.543,10.339-19.645
		c2.326-7.754,47.302-50.921,50.662-48.853c2.068,1.292,1.034,4.136-3.36,8.788s-6.979,11.89-9.047,24.814
		c-1.551,10.081-5.17,29.208-8.271,42.649c-2.843,13.441-6.203,32.052-7.496,41.357c-2.326,18.352-8.788,36.187-13.182,36.187
		c-2.843,0-1.551-8.013,3.102-20.678c1.292-3.36,4.653-19.645,7.496-36.187c2.843-16.284,7.496-39.03,10.339-50.145
		c2.585-11.373,4.394-21.195,3.619-21.712c-2.585-2.585-22.488,18.869-28.691,31.018c-3.36,6.72-7.237,12.665-8.53,13.441
		s-7.237,12.666-13.182,26.623l-11.115,25.073l8.271,6.721c8.788,7.496,9.564,11.632,4.911,22.229
		c-3.102,6.462-2.326,7.496,11.632,20.42c8.013,7.496,14.733,14.992,14.733,16.284c0,1.292,2.843,5.428,6.462,9.305
		s5.945,8.013,5.17,9.305c-0.775,1.034-8.53,5.687-17.318,10.339c-9.047,4.394-19.128,10.081-22.746,12.924l-6.462,4.911
		l6.204,6.462c3.619,3.619,8.53,6.72,11.115,6.72c3.619,0,4.911,1.551,4.136,5.687C980.713,798.906,975.802,797.355,963.395,783.138
		z"/>
	<path id="path272" fill="#FFFFFF" d="M1107.885,744.366c1.551-16.801,5.687-27.916,9.564-27.916
		c1.292,0,1.809,2.068,1.034,4.653c-0.776,2.326-2.585,12.149-4.394,21.971C1110.47,765.303,1105.559,766.337,1107.885,744.366z"/>
	<path id="path274" fill="#FFFFFF" d="M1164.492,745.659c1.034-8.271,2.843-34.119,3.877-57.383
		c2.068-36.704,1.809-43.683-1.809-51.179c-3.102-6.462-3.36-9.305-1.034-11.632c2.326-2.326,3.36-1.809,4.653,2.068
		c1.034,2.585,3.619,6.979,5.687,9.305c2.585,3.36,3.36,7.237,2.068,14.216c-1.034,5.428-2.843,30.242-3.877,55.056
		c-2.326,45.492-3.619,54.281-8.53,54.281C1163.717,760.392,1163.458,755.222,1164.492,745.659z"/>
	<path id="path276" fill="#FFFFFF" d="M1672.922,756.773c-2.585-3.102-1.551-4.394,6.72-8.013
		c19.903-8.788,22.746-10.598,36.446-23.263c22.746-20.678,47.043-52.213,47.043-61.001c0-5.687,1.551-8.013,5.945-9.564
		c7.237-2.326,50.92-0.775,50.92,1.809c0,1.034-10.081,3.102-22.488,4.394l-22.488,2.326l-8.271,14.475
		c-4.653,7.754-18.61,25.848-31.276,39.806c-18.61,20.937-25.589,26.882-39.547,33.344c-9.305,4.394-17.577,8.271-18.352,8.788
		C1676.799,760.134,1674.731,758.841,1672.922,756.773z"/>
	<path id="path278" fill="#FFFFFF" d="M1582.196,749.794c0-1.551,3.102-5.17,6.72-8.271
		c3.877-2.843,8.53-9.305,10.598-14.216c4.911-11.632,12.924-18.352,22.229-18.611c8.788,0,11.115,5.428,6.979,15.767
		c-2.843,6.462-4.653,7.754-10.081,6.72c-5.17-1.034-8.53,1.034-17.06,10.081C1591.501,752.121,1582.196,755.998,1582.196,749.794z"
		/>
	<path id="path280" fill="#FFFFFF" d="M1028.532,735.578c-2.068-3.619,0.775-32.052,3.36-32.052
		c1.034,0,2.326,2.326,2.843,5.17c1.292,8.788,5.17,6.203,10.598-6.979c16.543-40.581,28.95-60.226,38.255-60.226
		c1.292,0,9.822-5.17,19.386-11.632c9.305-6.462,18.094-11.115,19.386-10.081c1.292,0.775,1.809,2.326,1.034,3.619
		c-1.551,2.585-32.051,23.263-34.378,23.263c-0.775,0-5.17,2.843-10.081,6.721c-8.788,6.72-15.25,17.835-24.297,41.615
		c-2.843,7.237-6.721,14.733-8.788,16.284c-2.068,1.809-3.877,5.17-3.877,7.496C1041.714,723.946,1030.083,738.421,1028.532,735.578
		z"/>
	<path id="path282" fill="#FFFFFF" d="M1557.898,729.891c-1.809-3.102,1.551-23.78,3.877-23.78
		c1.292,0,2.326,1.809,2.326,3.877c0,12.149,21.195-5.17,24.297-19.903c16.801-78.319,29.984-172.923,25.073-178.868
		c-2.585-3.102-2.068-4.394,2.326-6.72c4.136-2.326,5.428-2.068,6.979,1.292c2.326,6.72-3.619,71.857-9.564,102.1
		c-2.843,14.992-6.462,34.119-8.013,42.649c-8.271,46.526-14.475,60.743-32.051,73.408
		C1561,732.476,1559.966,732.993,1557.898,729.891z"/>
	<path id="path284" fill="#FFFFFF" d="M1666.201,726.79c-2.326-3.877,0.259-6.72,12.149-12.665
		c6.203-3.102,16.543-11.632,23.263-19.128c6.72-7.237,12.924-12.407,13.958-11.373s0,3.877-2.326,6.462
		c-2.585,2.585-4.394,6.72-4.394,8.788c0,2.326-6.203,7.754-13.441,12.407c-7.496,4.653-16.801,10.598-20.678,13.182
		C1670.596,727.307,1667.235,728.341,1666.201,726.79z"/>
	<path id="path286" fill="#FFFFFF" d="M1818.188,702.234c1.551-19.903,1.292-20.42-6.462-27.657
		c-6.203-5.687-6.979-7.496-3.877-8.788c6.204-2.326,14.475,3.619,16.284,11.373c3.102,14.216,3.36,14.475,9.305,9.305
		c2.843-2.843,10.081-11.115,15.509-18.869c11.89-15.767,11.89-16.284-6.203-37.997l-10.339-12.407l1.292-27.399
		c0.517-14.992,2.585-38.772,4.136-52.988c2.585-19.903,2.585-30.501,0-46.526c-1.551-11.373-3.877-27.14-4.653-34.895
		c-3.102-23.78-12.149-40.323-38.513-69.79c-13.441-14.992-31.535-33.861-40.323-42.132c-18.869-17.835-56.09-43.942-58.933-41.098
		c-1.034,1.034,1.551,15.767,5.945,32.827c6.979,27.916,7.754,34.895,7.496,69.531c0,48.077-6.462,89.693-18.61,124.587
		c-2.068,5.945-2.068,13.441,0.517,28.433c6.204,37.997,6.204,37.997,2.326,36.704c-2.068-0.775-4.911-8.53-6.979-19.128
		c-3.877-20.937-10.598-44.976-13.958-49.111c-5.428-6.979-14.475-40.581-15.25-56.607c-1.551-25.59,3.619-24.297,7.496,2.068
		c3.619,25.073,13.441,52.213,18.869,52.213c2.326,0,4.136-3.877,5.17-10.339c2.326-15.767,7.237-42.132,11.632-60.743
		c2.068-9.305,3.619-25.073,3.619-35.153c0-21.454-4.394-59.192-7.754-67.722l-2.585-5.687l-13.182,6.979
		c-13.182,6.72-36.704,10.856-44.975,7.496c-3.36-1.292-2.585-3.102,4.394-10.081c5.428-5.17,12.149-17.06,17.318-30.242
		c10.339-26.365,10.339-42.908-0.258-53.505l-6.72-6.462l-7.754,5.687c-9.305,6.979-11.373,10.856-20.678,37.48
		c-4.136,11.373-8.271,20.161-9.822,19.386c-3.36-1.809-2.326-5.945,9.564-39.547c9.564-27.14,15.25-36.963,15.25-26.365
		c0,2.068,1.809,3.877,3.877,3.877c2.326,0,3.877-2.326,3.877-6.462c0-3.619,0.775-6.462,1.551-6.462
		c5.428,0,17.835,12.924,21.971,22.746c7.754,17.577,3.619,39.547-13.182,70.824c-6.462,12.149-6.462,12.407,1.292,12.407
		c10.081,0,37.479-14.733,37.479-20.161c0-5.687-8.53-29.984-11.89-34.636c-1.551-1.809-3.619-5.428-4.394-7.754
		c-2.585-7.237,5.428-5.687,25.331,4.653c28.691,14.992,52.471,34.378,87.625,71.857c39.031,41.874,45.751,54.022,54.798,101.066
		c3.877,21.195,4.136,27.657,1.034,65.912c-1.809,23.522-3.877,51.179-4.394,61.518l-1.292,18.611l13.182,17.06
		c13.182,17.318,15.509,22.488,10.598,25.59c-1.292,0.775-2.585,4.136-2.585,7.237c0,5.945-19.645,27.14-30.242,32.568
		c-4.136,2.068-5.945,5.687-6.462,13.699c-0.517,6.203-2.326,11.115-4.394,11.89
		C1817.154,722.137,1816.895,718.777,1818.188,702.234z"/>
	<path id="path288" fill="#FFFFFF" d="M1099.614,712.315
		c-2.585-3.619-10.081-13.441-16.801-21.712c-6.979-8.53-12.407-16.026-12.407-16.801c0-0.775,2.326-1.292,4.911-1.292
		c3.36,0,10.081,6.72,18.869,18.352c12.407,16.801,13.699,18.094,16.801,13.699c7.754-11.89,10.856-14.992,12.666-13.441
		c4.394,4.394-10.081,27.916-17.318,27.916C1105.301,719.035,1102.199,715.933,1099.614,712.315z"/>
	<path id="path290" fill="#FFFFFF" d="M1561.517,698.357c0-1.292,1.292-2.585,2.585-2.585
		c1.551,0,2.585,1.292,2.585,2.585c0,1.551-1.034,2.585-2.585,2.585C1562.81,700.942,1561.517,699.908,1561.517,698.357z"/>
	<path id="path292" fill="#FFFFFF" d="M1653.277,698.098c-1.551-2.068,3.102-8.271,13.699-18.352
		c8.788-8.013,16.026-15.509,16.026-16.026c0-0.775,3.36-6.203,7.496-12.407c4.136-6.203,8.013-13.699,9.047-16.801
		c2.068-6.203,8.53-12.666,10.856-10.339c0.775,0.775-1.551,6.462-5.17,12.924c-8.53,14.475-8.788,20.937-0.776,18.352
		c3.102-1.034,8.53-3.877,11.89-6.462c3.36-2.843,7.754-4.911,9.822-4.911c8.271,0,0.776,6.462-20.678,18.094
		c-13.182,6.979-28.433,17.835-36.446,25.59C1659.223,697.581,1654.57,700.425,1653.277,698.098z"/>
	<path id="path294" fill="#FFFFFF" d="M1504.652,690.086c-16.284-4.653-22.229-5.17-81.421-4.653
		c-18.094,0.258-21.195-0.517-25.073-5.428c-2.585-2.843-4.653-7.237-4.653-9.564c0-2.068-1.809-5.945-4.136-8.53
		c-5.945-6.462-2.068-11.632,4.394-5.945c4.911,4.394,5.428,4.136,14.733-4.911c5.428-5.17,10.598-9.564,11.632-9.564
		c4.653,0,0.775,6.979-9.047,16.026c-9.047,8.271-10.339,10.856-8.271,14.475c3.877,6.203,34.636,10.339,46.009,6.203
		c4.653-1.809,11.115-3.102,14.733-3.102c6.979,0,40.064,6.462,54.539,10.856c7.237,2.068,10.598,2.068,13.182,0
		c5.428-4.653,7.496-0.258,2.585,5.17C1528.949,696.806,1526.364,696.547,1504.652,690.086z"/>
	<path id="path296" fill="#FFFFFF" d="M1031.634,688.018c0-1.292,1.292-2.585,2.585-2.585
		c1.551,0,2.585,1.292,2.585,2.585c0,1.551-1.034,2.585-2.585,2.585C1032.926,690.602,1031.634,689.569,1031.634,688.018z"/>
	<path id="path298" fill="#FFFFFF" d="M1149.759,683.365c-5.428-5.687-5.428-8.271-1.034-8.271
		c4.653,0,12.666,8.788,10.339,11.115C1156.479,689.052,1154.153,688.276,1149.759,683.365z"/>
	<path id="path300" fill="#FFFFFF" d="M890.504,673.284c0.775-5.428,2.326-17.577,3.102-27.14
		c1.034-9.822,2.843-17.577,3.877-17.577c3.36,0,2.843,24.814-0.775,40.581C893.089,684.657,888.178,687.759,890.504,673.284z"/>
	<path id="path302" fill="#FFFFFF" d="M1628.98,677.937c-2.585-1.809-1.809-6.462,3.619-23.005
		s6.203-21.971,3.877-26.106c-1.551-3.102-2.326-6.462-1.551-7.496c0.517-1.034,3.102-13.441,5.428-27.657
		c2.326-14.216,5.428-26.882,6.72-28.174c3.877-4.394,2.585,16.543-2.585,37.997c-4.394,18.869-4.394,20.937,0.517,20.161
		c2.843-0.517-0.258,18.094-4.911,31.793c-2.068,5.428-3.619,12.666-3.619,16.026C1636.476,678.454,1633.633,680.78,1628.98,677.937
		z"/>
	<path id="path304" fill="#FFFFFF" d="M1642.938,677.678c0.776-1.292,2.068-2.585,2.843-2.585
		c0.517,0,1.034,1.292,1.034,2.585c0,1.551-1.292,2.585-2.843,2.585C1642.68,680.263,1642.163,679.229,1642.938,677.678z"/>
	<path id="path306" fill="#FFFFFF" d="M1136.577,656.483
		c4.136-45.492,10.598-82.197,14.475-82.197c2.843,0,2.585,10.856-0.517,24.039c-1.551,5.945-4.136,24.814-5.945,41.615
		c-2.068,19.644-4.394,31.276-6.462,32.052C1135.801,672.767,1135.543,668.89,1136.577,656.483z"/>
	<path id="path308" fill="#FFFFFF" d="M1649.4,670.182c0-1.292,4.136-8.53,9.047-16.026
		c8.788-13.441,12.407-24.297,11.373-34.636c-1.034-9.564,0.258-16.801,2.843-16.801c1.551,0,2.585,2.843,2.585,6.204
		c0,3.36,1.551,7.496,3.619,9.305c4.653,3.619,2.585,9.047-13.441,35.67C1655.087,670.699,1649.4,676.645,1649.4,670.182z"/>
	<path id="path310" fill="#FFFFFF" d="M1034.219,664.754c0-1.292,1.292-2.585,2.585-2.585
		c1.551,0,2.585,1.292,2.585,2.585c0,1.551-1.034,2.585-2.585,2.585C1035.511,667.339,1034.219,666.305,1034.219,664.754z"/>
	<path id="path312" fill="#FFFFFF" d="M1034.219,654.674c0-1.551,1.292-3.36,2.585-4.136
		c1.551-0.775,2.585,0.258,2.585,2.326c0,2.326-1.034,4.136-2.585,4.136C1035.511,657,1034.219,655.966,1034.219,654.674z"/>
	<path id="path314" fill="#FFFFFF" d="M1013.54,645.627c0-1.809,1.551-4.911,3.619-6.462
		c2.843-2.326,3.102-1.551,2.068,3.619C1017.934,649.504,1013.54,651.83,1013.54,645.627z"/>
	<path id="path316" fill="#FFFFFF" d="M1023.362,629.86c1.034-2.843,5.945-12.665,10.856-21.971
		s10.339-20.161,11.89-24.297c3.102-8.788,8.788-12.149,8.788-5.428c0,5.687-19.386,40.84-27.399,49.887
		C1022.587,633.478,1021.812,633.737,1023.362,629.86z"/>
	<path id="path318" fill="#FFFFFF" d="M1728.237,587.21c-0.775-1.292,3.102-6.979,8.788-12.407
		c5.945-5.687,10.598-11.89,10.598-13.958c0-2.068,2.068-6.721,4.911-10.081c7.754-10.081,14.216-44.717,11.89-64.362
		c-3.619-31.535-3.36-36.704,3.36-37.738c4.136-0.775,5.687,0.258,5.687,3.877c0,2.843-1.551,5.687-3.102,6.203
		c-2.068,0.775-1.551,1.551,1.292,1.551c4.911,0.258,5.945,4.136,1.551,6.72c-3.102,2.068-1.809,9.822,5.945,36.187
		c3.102,10.081,6.203,25.073,6.979,33.602c1.292,12.924,2.326,15.509,6.203,14.733c7.238-1.292,4.911,2.843-5.945,10.598
		c-6.203,4.394-10.339,9.305-10.339,12.407c0,6.72-6.203,5.17-7.237-1.809c-0.517-2.843,2.585-8.013,6.72-12.149l7.496-7.237
		l-3.36-18.094c-5.428-28.691-9.822-30.242-12.666-4.653c-1.292,10.856-4.394,19.903-10.598,29.984
		c-9.305,15.767-8.53,21.454,2.843,21.454c7.754,0,14.216,2.585,14.216,5.428c0,3.102-9.047,2.843-21.195-0.775
		c-8.013-2.326-11.373-2.326-15.25,0C1731.08,590.571,1730.304,590.571,1728.237,587.21z"/>
	<path id="path320" fill="#FFFFFF" d="M1535.669,581.782c0-4.136,11.632-20.937,26.365-37.997
		l7.237-8.53v-67.722c0-43.425,1.551-81.938,4.136-107.269c2.585-25.848,3.619-56.09,3.102-88.4l-0.776-48.853l-11.373-11.632
		c-21.712-22.229-58.158-35.929-92.536-35.153c-10.339,0.258-20.161-0.517-21.712-1.292c-1.809-1.292,1.034-4.911,6.979-9.822
		c9.305-7.754,10.598-8.013,29.208-7.237c10.856,0.258,20.678,1.809,22.229,3.102c1.292,1.292,4.653,2.326,7.754,2.326
		c2.843,0,7.496,1.551,10.339,3.36c11.632,8.013,29.725,12.149,42.132,9.564c6.72-1.292,13.958-2.843,16.284-3.877
		c5.428-2.068,19.128-18.869,21.454-26.623c1.034-3.102,3.102-5.687,4.394-5.687c3.619,0,0.517,9.047-7.237,22.488
		c-11.115,19.128-37.997,25.848-64.361,16.284c-31.535-11.632-46.526-15.509-59.709-15.509c-7.496,0-13.699,1.292-13.699,2.585
		c0,2.585,2.068,2.843,23.522,3.619c6.72,0.258,13.699,1.551,15.509,3.102c2.068,1.551,7.237,3.619,11.373,4.653
		c16.026,3.877,41.874,18.611,55.056,31.793l13.441,13.441v48.594c0,26.623-1.292,59.192-2.585,71.857
		c-1.551,12.924-3.36,54.022-4.136,91.76c-2.068,110.371-1.551,105.718-15.25,120.969c-4.394,4.911-12.149,13.699-17.318,19.386
		C1539.288,582.041,1535.669,584.367,1535.669,581.782z"/>
	<path id="path322" fill="#FFFFFF" d="M1098.839,564.464c0-1.292-4.136-6.979-9.047-12.666
		c-4.911-5.945-9.047-12.149-9.047-14.216c0-1.809,2.585-0.258,5.428,3.877c2.843,3.877,6.72,6.979,8.53,6.979
		c1.809,0,4.911-8.53,7.754-21.195c2.326-11.89,6.72-28.95,9.305-38.255c2.843-9.305,6.462-24.814,8.271-34.636
		c2.068-10.598,4.911-18.352,6.979-19.128c2.843-1.034,3.102,0.258,1.809,4.911c-2.326,7.754-6.72,34.119-8.013,46.785
		c-0.517,5.17-2.843,12.149-4.911,15.767c-2.585,3.619-4.394,12.407-4.653,20.678c-0.259,8.013-1.551,14.216-2.843,13.958
		c-4.394-0.775-8.271,18.869-4.653,24.556c2.326,3.619,2.068,4.653-1.034,4.653C1100.648,566.532,1098.839,565.498,1098.839,564.464
		z"/>
	<path id="path324" fill="#FFFFFF" d="M1070.406,523.624c0-2.068,1.292-3.102,2.585-2.326
		c1.551,0.775,2.585,2.585,2.585,4.136c0,1.292-1.034,2.326-2.585,2.326C1071.698,527.76,1070.406,525.951,1070.406,523.624z"/>
	<path id="path326" fill="#FFFFFF" d="M906.53,509.925c-3.619-5.687-6.721-11.632-6.721-12.924
		c0-1.551-2.326-3.877-5.17-5.428c-9.047-4.911-6.721-11.632,17.577-49.111c22.488-34.378,57.124-64.103,101.066-87.108
		c12.149-6.462,23.522-12.666,24.814-13.699c11.115-9.047,63.844-20.937,67.205-15.25c0.775,1.292-1.809,5.945-6.203,10.598
		c-20.937,23.263-28.691,32.568-28.691,33.861c0,3.102,22.746,0.258,27.14-3.36c3.102-2.585,4.911-2.585,6.979-0.517
		c2.326,2.326,1.551,4.911-3.619,10.081c-9.822,10.856-19.386,32.31-12.407,27.916c3.102-1.809,7.754,9.305,7.754,18.352
		c0,3.619,1.809,6.979,3.877,7.754c3.102,1.292,3.36,2.326,1.034,5.17c-2.326,2.843-2.326,5.428,0,10.339
		c3.36,7.754,3.877,30.501,0.517,28.174c-1.551-0.775-3.36-6.979-4.136-13.699c-0.776-6.72-2.585-14.216-4.136-16.543
		c-1.292-2.585-2.326-8.013-2.326-12.149c0-10.856-2.326-15.767-7.754-15.767c-6.979,0-8.271-10.339-2.585-21.454
		c6.462-12.149,6.72-18.094,0.775-16.284c-2.585,0.775-9.047,2.068-14.216,3.102c-8.271,1.292-9.822,0.775-9.822-2.843
		c0-4.136,24.039-35.412,28.691-36.963c5.17-2.068,1.809-5.687-4.911-5.687c-13.182,0-34.895,9.564-42.391,18.611
		c-4.136,4.653-10.081,11.89-13.699,15.767c-9.047,10.081-14.216,23.78-14.216,36.963c0,6.204-1.034,11.373-2.585,11.373
		c-3.877,0-3.102-27.657,1.034-35.67c2.068-3.877,5.945-9.305,9.047-11.89c5.687-5.17,7.237-11.89,2.843-11.89
		c-4.653,0-21.712,9.564-26.106,14.475c-2.326,2.843-6.203,10.598-8.788,17.318c-4.394,11.89-4.653,13.182,0,27.14
		c2.326,8.013,5.428,16.026,6.979,17.835c1.292,1.809,1.292,3.36,0,4.394c-1.551,0.775-4.136-0.258-5.945-2.585
		c-4.136-4.911-12.407-29.467-11.373-33.085c5.428-18.094,2.068-22.229-8.788-10.856c-4.653,4.911-5.945,9.305-6.203,22.488
		c-0.258,13.958,1.034,18.352,6.979,27.657c3.877,6.203,6.462,11.89,5.687,12.665c-2.326,2.585-9.305-1.551-11.115-6.204
		c-0.775-2.585-3.619-6.462-6.462-8.53c-4.136-3.36-4.394-5.17-2.326-11.373c1.551-3.877,2.843-11.373,2.843-16.543v-9.305
		l-16.801,16.543c-15.509,15.25-20.161,22.229-35.153,50.921l-5.687,10.598l6.462,7.754c8.788,10.598,13.958,23.263,10.339,26.882
		C914.026,519.747,911.182,517.421,906.53,509.925z"/>
	<path id="path328" fill="#FFFFFF" d="M1087.982,511.734c3.102-3.102,6.462-4.653,7.496-3.619
		c1.034,1.034-0.258,3.619-2.843,5.687C1084.622,519.489,1081.52,518.196,1087.982,511.734z"/>
	<path id="path330" fill="#FFFFFF" d="M1622.26,496.742c-4.136-2.585-9.822-4.911-12.407-4.911
		c-9.305-0.517-11.115-18.094-3.877-36.963c3.102-8.271,17.577-20.161,24.556-20.161c8.013,0,21.454,9.822,21.454,15.509
		c0,5.17-0.259,5.17-8.53-1.034c-4.911-3.877-10.339-6.72-12.407-6.72c-7.237,0-18.094,11.632-19.386,20.678
		c-1.292,8.53-0.517,10.339,10.856,21.454C1636.218,497.776,1635.959,504.755,1622.26,496.742z"/>
	<path id="path332" fill="#FFFFFF" d="M933.928,472.445c-11.632-8.271-11.373-7.754-9.564-18.094
		c2.326-11.89,6.462-12.149,6.462-0.517c0,7.237,1.292,9.564,6.979,12.407c3.877,1.809,7.496,5.428,8.013,8.013
		C947.111,480.2,944.268,479.683,933.928,472.445z"/>
	<path id="path334" fill="#FFFFFF" d="M1456.833,401.105c-2.843-1.034-8.013-1.551-11.373-0.775
		c-5.17,1.292-5.687,0.775-4.394-3.877c2.068-5.945-4.394-10.856-13.699-10.856c-7.237,0-6.72-4.136,1.034-9.305
		c4.394-2.843,9.047-3.619,15.509-2.585c5.945,1.292,11.373,0.517,16.543-2.326c17.835-9.047,32.051-1.809,25.589,13.441
		C1479.062,401.363,1469.757,406.533,1456.833,401.105z M1474.927,390.507c2.843-4.136-0.259-5.687-7.754-3.877
		c-3.619,1.034-5.945,2.843-5.17,4.136C1464.07,394.126,1472.859,394.126,1474.927,390.507z"/>
	<path id="path336" fill="#FFFFFF" d="M1339.225,351.218c0-2.068,1.809-4.394,3.877-5.428
		c2.068-0.775,3.877-0.517,3.877,0.775s-1.809,3.619-3.877,5.428C1340,354.578,1339.225,354.578,1339.225,351.218z"/>
	<path id="path338" fill="#FFFFFF" d="M1313.377,339.328c0-1.292,1.292-3.36,2.585-4.136
		c1.551-0.775,2.585-0.517,2.585,1.034c0,1.292-1.034,3.36-2.585,4.136C1314.669,341.138,1313.377,340.879,1313.377,339.328z"/>
	<path id="path340" fill="#FFFFFF" d="M1284.944,333.9c0-3.36,7.237-6.462,9.822-4.136
		c0.776,1.034,0,2.843-2.068,4.136C1287.529,337.26,1284.944,337.002,1284.944,333.9z"/>
	<path id="path342" fill="#FFFFFF" d="M1616.056,242.398c-3.619-4.394-1.551-49.111,3.102-63.586
		c3.102-10.598,3.102-43.166-0.259-47.302c-2.843-3.619-0.258-14.992,3.36-15.25c3.619-0.258,6.979,25.073,5.428,40.581
		c-6.72,68.497-7.237,79.353-4.653,81.938c2.326,2.326,4.136,1.809,7.754-1.292c5.687-5.17,8.271-5.687,8.271-1.551
		C1639.061,244.208,1621.484,249.119,1616.056,242.398z"/>
</g>
</svg>
