<?xml version="1.0" encoding="utf-8"?>
<!-- Generator: Adobe Illustrator 17.0.0, SVG Export Plug-In . SVG Version: 6.00 Build 0)  -->
<!DOCTYPE svg PUBLIC "-//W3C//DTD SVG 1.1//EN" "http://www.w3.org/Graphics/SVG/1.1/DTD/svg11.dtd">
<svg version="1.1" id="Layer_1" xmlns="http://www.w3.org/2000/svg" xmlns:xlink="http://www.w3.org/1999/xlink" x="0px" y="0px"
	 width="263.511px" height="122.563px" viewBox="0 0 263.511 122.563" enable-background="new 0 0 263.511 122.563"
	 xml:space="preserve">
<rect x="0" y="0" width="263.511" height="122.563"/>
<g>
	<path fill="#00AEEF" d="M16.473,21.643h12.609v15.42l13.207-15.42h16.77L44.169,37.044l15.557,25.403H44.2l-8.604-16.78
		l-6.515,6.824v9.957H16.473V21.643z"/>
	<path fill="#00AEEF" d="M94.017,50.478H71.305c0.204,1.818,0.696,3.173,1.475,4.064c1.095,1.28,2.524,1.921,4.286,1.921
		c1.113,0,2.171-0.278,3.173-0.835c0.612-0.353,1.271-0.974,1.976-1.865l11.161,1.03c-1.707,2.969-3.767,5.098-6.179,6.388
		c-2.412,1.29-5.873,1.934-10.382,1.934c-3.915,0-6.995-0.552-9.241-1.656s-4.105-2.858-5.581-5.261
		c-1.475-2.403-2.213-5.228-2.213-8.475c0-4.62,1.48-8.359,4.439-11.217s7.046-4.286,12.261-4.286c4.231,0,7.571,0.64,10.02,1.921
		c2.449,1.28,4.314,3.136,5.595,5.567c1.28,2.431,1.921,5.595,1.921,9.491V50.478z M82.494,45.051
		c-0.223-2.19-0.812-3.758-1.767-4.704s-2.213-1.42-3.771-1.42c-1.8,0-3.238,0.714-4.314,2.143c-0.687,0.891-1.123,2.217-1.308,3.98
		H82.494z"/>
	<path fill="#00AEEF" d="M99.639,21.643h11.328v7.71H99.639V21.643z M99.639,32.887h11.328v29.559H99.639V32.887z"/>
	<path fill="#00AEEF" d="M131.87,21.643v11.245h6.235v8.294h-6.235v10.472c0,1.26,0.121,2.094,0.362,2.5
		c0.371,0.629,1.021,0.945,1.948,0.945c0.835,0,2.004-0.241,3.507-0.722l0.447,7.903c-2.802,0.612-5.03,0.835-7.461,0.835
		c-2.82,0-4.899-0.362-6.235-1.084c-1.336-0.724-2.324-1.82-2.964-3.294c-0.64-1.474-0.96-3.86-0.96-7.158V41.182h-4.175v-8.294
		h4.175V27.46L131.87,21.643z"/>
	<path fill="#00AEEF" d="M143.504,21.643h11.328v15.03c1.54-1.596,3.071-2.737,4.593-3.424c1.522-0.687,3.321-1.03,5.4-1.03
		c3.08,0,5.506,0.937,7.278,2.811s2.658,4.75,2.658,8.628v18.788h-11.384V46.192c0-1.856-0.343-3.168-1.03-3.938
		s-1.651-1.155-2.895-1.155c-1.373,0-2.486,0.52-3.34,1.559c-0.854,1.039-1.28,2.904-1.28,5.595v14.195h-11.328V21.643z"/>
</g>
<g>
	<path fill="#00AEEF" d="M44.002,103.25V62.446h21.014c3.897,0,6.875,0.334,8.935,1.002c2.06,0.668,3.72,1.907,4.982,3.716
		c1.262,1.809,1.893,4.013,1.893,6.61c0,2.264-0.482,4.217-1.449,5.859c-0.965,1.642-2.293,2.974-3.982,3.994
		c-1.076,0.649-2.553,1.188-4.429,1.614c1.503,0.503,2.596,1.004,3.283,1.505c0.464,0.334,1.135,1.05,2.016,2.145
		c0.881,1.096,1.469,1.941,1.766,2.536l6.106,11.823H69.891l-6.74-12.469c-0.854-1.614-1.614-2.663-2.282-3.145
		c-0.909-0.631-1.939-0.946-3.09-0.946h-1.113v16.561H44.002z M56.666,78.979h5.316c0.575,0,1.689-0.186,3.34-0.557
		c0.835-0.167,1.517-0.594,2.046-1.28c0.529-0.687,0.793-1.475,0.793-2.366c0-1.317-0.418-2.329-1.253-3.034
		c-0.835-0.705-2.403-1.058-4.704-1.058h-5.539V78.979z"/>
	<path fill="#00AEEF" d="M97.748,83.266l-10.827-1.141c0.408-1.893,0.997-3.382,1.767-4.467s1.879-2.027,3.326-2.825
		c1.039-0.575,2.468-1.021,4.286-1.336c1.818-0.315,3.785-0.473,5.901-0.473c3.396,0,6.123,0.19,8.183,0.571
		c2.06,0.38,3.776,1.174,5.149,2.38c0.965,0.835,1.726,2.018,2.282,3.549c0.557,1.531,0.835,2.992,0.835,4.384V96.96
		c0,1.392,0.088,2.482,0.264,3.27s0.561,1.795,1.155,3.02h-10.632c-0.427-0.761-0.705-1.341-0.835-1.74
		c-0.13-0.399-0.26-1.025-0.39-1.879c-1.484,1.429-2.96,2.449-4.426,3.062c-2.004,0.816-4.333,1.225-6.986,1.225
		c-3.526,0-6.202-0.816-8.03-2.449c-1.828-1.633-2.742-3.646-2.742-6.04c0-2.245,0.659-4.092,1.976-5.539
		c1.317-1.447,3.748-2.524,7.292-3.229c4.249-0.854,7.005-1.452,8.267-1.795c1.262-0.343,2.598-0.793,4.008-1.35
		c0-1.392-0.288-2.366-0.863-2.923c-0.575-0.557-1.587-0.835-3.034-0.835c-1.856,0-3.247,0.297-4.175,0.891
		C98.778,81.113,98.193,81.985,97.748,83.266z M107.573,89.222c-1.559,0.557-3.182,1.048-4.871,1.475
		c-2.301,0.612-3.758,1.215-4.37,1.809c-0.631,0.612-0.946,1.308-0.946,2.088c0,0.891,0.311,1.619,0.932,2.185
		c0.622,0.566,1.535,0.849,2.742,0.849c1.262,0,2.435-0.306,3.521-0.918s1.856-1.359,2.31-2.241
		c0.455-0.881,0.682-2.027,0.682-3.437V89.222z"/>
	<path fill="#00AEEF" d="M138.134,62.112v11.245h6.235v8.294h-6.235v10.472c0,1.26,0.121,2.094,0.362,2.5
		c0.371,0.629,1.021,0.945,1.948,0.945c0.835,0,2.004-0.241,3.507-0.722l0.835,7.82c-2.802,0.612-5.418,0.919-7.849,0.919
		c-2.82,0-4.899-0.362-6.235-1.084c-1.336-0.724-2.324-1.82-2.964-3.294c-0.64-1.474-0.96-3.86-0.96-7.158V81.651h-4.175v-8.294
		h4.175l-0.105-10.911L138.134,62.112z"/>
	<path fill="#00AEEF" d="M149.769,73.691h10.549v4.815c1.577-1.967,3.173-3.372,4.787-4.217c1.614-0.844,3.581-1.266,5.901-1.266
		c3.136,0,5.59,0.932,7.362,2.797s2.658,4.746,2.658,8.642v18.788h-11.384V86.995c0-1.856-0.343-3.168-1.03-3.938
		s-1.651-1.155-2.895-1.155c-1.373,0-2.486,0.52-3.34,1.559c-0.854,1.039-1.28,2.904-1.28,5.595v14.195h-11.328V73.691z"/>
	<path fill="#00AEEF" d="M220.604,91.282h-22.712c0.204,1.818,0.696,3.173,1.475,4.064c1.095,1.28,2.524,1.921,4.286,1.921
		c1.113,0,2.171-0.278,3.173-0.835c0.612-0.353,1.271-0.974,1.976-1.865l11.161,1.03c-1.707,2.969-3.767,5.098-6.179,6.388
		c-2.412,1.29-5.873,1.934-10.382,1.934c-3.915,0-6.995-0.552-9.241-1.656s-4.105-2.858-5.581-5.261
		c-1.475-2.403-2.213-5.228-2.213-8.475c0-4.62,1.48-8.359,4.439-11.217c2.96-2.858,7.046-4.286,12.261-4.286
		c4.231,0,7.571,0.64,10.02,1.921s4.314,3.136,5.595,5.567s1.921,5.595,1.921,9.491V91.282z M209.081,85.854
		c-0.223-2.19-0.812-3.758-1.767-4.704s-2.213-1.42-3.771-1.42c-1.8,0-3.238,0.714-4.314,2.143c-0.687,0.891-1.123,2.217-1.308,3.98
		H209.081z"/>
	<path fill="#00AEEF" d="M225.921,73.691h10.605v4.843c1.021-2.097,2.074-3.539,3.159-4.328c1.086-0.789,2.426-1.183,4.022-1.183
		c1.67,0,3.498,0.52,5.483,1.559l-3.507,8.072c-1.336-0.557-2.394-0.835-3.173-0.835c-1.484,0-2.635,0.612-3.451,1.837
		c-1.169,1.726-1.753,4.954-1.753,9.686v9.909h-11.384V73.691z"/>
</g>
<text transform="matrix(1 0 0 1 -225.7414 -65.8144)" fill="#00AEEF" font-family="'Arial-Black'" font-size="18">Keith Ratner</text>
</svg>
