<?xml version="1.0" encoding="utf-8"?>
<!-- Generator: Adobe Illustrator 17.0.0, SVG Export Plug-In . SVG Version: 6.00 Build 0)  -->
<!DOCTYPE svg PUBLIC "-//W3C//DTD SVG 1.1//EN" "http://www.w3.org/Graphics/SVG/1.1/DTD/svg11.dtd">
<svg version="1.1" id="Layer_1" xmlns="http://www.w3.org/2000/svg" xmlns:xlink="http://www.w3.org/1999/xlink" x="0px" y="0px"
	 width="232.524px" height="82.275px" viewBox="0 0 232.524 82.275" enable-background="new 0 0 232.524 82.275"
	 xml:space="preserve">
<g>
	<path fill="#FFFFFF" d="M77.544,28.835H54.832c0.204,1.818,0.696,3.173,1.475,4.064c1.095,1.28,2.524,1.921,4.286,1.921
		c1.113,0,2.171-0.278,3.173-0.835c0.612-0.353,1.271-0.974,1.976-1.865l11.161,1.03c-1.707,2.969-3.767,5.098-6.179,6.388
		c-2.412,1.29-5.873,1.934-10.382,1.934c-3.915,0-6.995-0.552-9.241-1.656c-2.245-1.104-4.105-2.858-5.581-5.261
		c-1.475-2.403-2.213-5.228-2.213-8.475c0-4.62,1.48-8.359,4.439-11.217c2.96-2.858,7.046-4.286,12.261-4.286
		c4.231,0,7.571,0.64,10.02,1.921c2.449,1.28,4.314,3.136,5.595,5.567s1.921,5.595,1.921,9.491V28.835z M66.021,23.408
		c-0.223-2.19-0.812-3.758-1.767-4.704c-0.956-0.946-2.213-1.42-3.771-1.42c-1.8,0-3.238,0.714-4.314,2.143
		c-0.687,0.891-1.123,2.217-1.308,3.98H66.021z"/>
	<path fill="#FFFFFF" d="M83.166,0h11.328v7.71H83.166V0z M83.166,11.245h11.328v29.559H83.166V11.245z"/>
	<path fill="#FFFFFF" d="M127.032,0h11.328v15.03c1.54-1.596,3.071-2.737,4.592-3.424c1.522-0.687,3.321-1.03,5.4-1.03
		c3.08,0,5.506,0.937,7.278,2.811c1.772,1.874,2.658,4.75,2.658,8.628v18.788h-11.384V24.549c0-1.856-0.343-3.168-1.03-3.938
		c-0.687-0.77-1.651-1.155-2.895-1.155c-1.373,0-2.486,0.52-3.34,1.559s-1.28,2.904-1.28,5.595v14.195h-11.328V0z"/>
</g>
<g>
	<path fill="#FFFFFF" d="M61.366,69.784c-0.297-0.595-0.884-1.44-1.766-2.536c-0.881-1.095-1.552-1.811-2.016-2.145
		c-0.687-0.501-1.78-1.002-3.283-1.505c1.876-0.427,3.352-0.965,4.429-1.614c1.689-1.021,3.017-2.352,3.982-3.994
		c0.966-1.642,1.449-3.595,1.449-5.859c0-2.598-0.631-4.801-1.893-6.61c-1.262-1.809-2.922-3.048-4.982-3.716
		c-2.06-0.668-5.038-1.002-8.935-1.002h-5.098L27.696,15.401L42.585,0h-16.77L12.609,15.42V0H0v40.804h12.609v-9.957l6.515-6.824
		l8.604,16.78h-0.192v40.804h12.466V65.047h1.113c1.15,0,2.18,0.315,3.089,0.946c0.668,0.482,1.429,1.531,2.282,3.145l6.74,12.469
		h14.246L61.366,69.784z M50.703,55.5c-0.529,0.687-1.211,1.113-2.046,1.28c-1.651,0.371-2.765,0.557-3.34,0.557h-5.316v-8.294
		h5.539c2.301,0,3.869,0.353,4.704,1.058c0.835,0.705,1.253,1.716,1.253,3.034C51.496,54.025,51.232,54.813,50.703,55.5z"/>
	<path fill="#FFFFFF" d="M81.083,61.623l-10.827-1.141c0.408-1.893,0.997-3.382,1.767-4.467s1.879-2.027,3.326-2.825
		c1.039-0.575,2.468-1.021,4.286-1.336c1.818-0.315,3.785-0.473,5.901-0.473c3.396,0,6.123,0.19,8.183,0.571s3.776,1.174,5.149,2.38
		c0.965,0.835,1.726,2.018,2.282,3.549c0.557,1.531,0.835,2.992,0.835,4.384v13.054c0,1.392,0.088,2.482,0.264,3.27
		s0.561,1.795,1.155,3.02H92.773c-0.427-0.761-0.705-1.341-0.835-1.74c-0.13-0.399-0.26-1.025-0.39-1.879
		c-1.484,1.429-2.96,2.449-4.426,3.062c-2.004,0.816-4.333,1.225-6.986,1.225c-3.526,0-6.202-0.816-8.03-2.449
		c-1.828-1.633-2.742-3.646-2.742-6.04c0-2.245,0.659-4.092,1.976-5.539s3.748-2.524,7.292-3.229
		c4.249-0.854,7.005-1.452,8.267-1.795c1.262-0.343,2.598-0.793,4.008-1.35c0-1.392-0.288-2.366-0.863-2.923
		c-0.575-0.557-1.587-0.835-3.034-0.835c-1.856,0-3.247,0.297-4.175,0.891C82.113,59.471,81.528,60.343,81.083,61.623z
		 M90.908,67.579c-1.559,0.557-3.182,1.048-4.871,1.475c-2.301,0.612-3.758,1.215-4.37,1.809c-0.631,0.612-0.946,1.308-0.946,2.088
		c0,0.891,0.311,1.619,0.932,2.185c0.622,0.566,1.535,0.849,2.742,0.849c1.262,0,2.435-0.306,3.521-0.919s1.856-1.359,2.31-2.241
		c0.455-0.881,0.682-2.027,0.682-3.437V67.579z"/>
	<path fill="#FFFFFF" d="M123.973,73.925c-0.928,0-1.577-0.315-1.948-0.945c-0.241-0.407-0.362-1.24-0.362-2.5V60.009h6.235v-8.294
		h-6.235V40.47l-0.002,0v-8.198c-1.503,0.481-3.119,1.185-3.954,1.185c-0.928,0-1.577-0.315-1.948-0.945
		c-0.241-0.407-0.362-1.24-0.362-2.5V19.539h6.235v-8.294h-6.235V0l-11.356,5.817v5.428h-4.175v8.294h4.175v10.397
		c0,3.298,0.32,5.684,0.96,7.158c0.64,1.474,1.628,2.57,2.964,3.294c0.619,0.334,1.404,0.588,2.341,0.768v10.559h-4.175v8.294h4.175
		v10.397c0,3.298,0.32,5.684,0.96,7.158c0.64,1.474,1.628,2.57,2.964,3.294c1.336,0.722,3.414,1.084,6.235,1.084
		c2.431,0,4.659-0.223,7.461-0.835v-8.365C126.424,73.222,124.808,73.925,123.973,73.925z"/>
	<path fill="#FFFFFF" d="M133.103,52.048h10.549v4.815c1.577-1.967,3.173-3.372,4.787-4.217s3.581-1.266,5.901-1.266
		c3.136,0,5.59,0.932,7.362,2.797c1.772,1.865,2.658,4.746,2.658,8.642v18.788h-11.384V65.353c0-1.856-0.343-3.168-1.03-3.938
		c-0.687-0.77-1.651-1.155-2.895-1.155c-1.373,0-2.486,0.52-3.34,1.559c-0.854,1.039-1.28,2.904-1.28,5.595v14.195h-11.328V52.048z"
		/>
	<path fill="#FFFFFF" d="M203.939,69.639h-22.712c0.204,1.818,0.696,3.173,1.475,4.064c1.095,1.28,2.524,1.921,4.286,1.921
		c1.113,0,2.171-0.278,3.173-0.835c0.612-0.353,1.271-0.974,1.976-1.865l11.161,1.03c-1.707,2.969-3.767,5.098-6.179,6.388
		c-2.412,1.29-5.873,1.934-10.382,1.934c-3.915,0-6.995-0.552-9.241-1.656c-2.245-1.104-4.105-2.858-5.581-5.261
		c-1.475-2.403-2.213-5.228-2.213-8.475c0-4.62,1.48-8.359,4.439-11.217c2.96-2.858,7.046-4.286,12.261-4.286
		c4.231,0,7.571,0.64,10.02,1.921c2.449,1.28,4.314,3.136,5.595,5.567s1.921,5.595,1.921,9.491V69.639z M192.416,64.212
		c-0.223-2.19-0.812-3.758-1.767-4.704s-2.213-1.42-3.771-1.42c-1.8,0-3.238,0.714-4.314,2.143c-0.687,0.891-1.123,2.217-1.308,3.98
		H192.416z"/>
	<path fill="#FFFFFF" d="M209.255,52.048h10.605v4.843c1.021-2.097,2.074-3.539,3.159-4.328c1.085-0.789,2.426-1.183,4.022-1.183
		c1.67,0,3.498,0.52,5.483,1.559l-3.507,8.072c-1.336-0.557-2.394-0.835-3.173-0.835c-1.484,0-2.635,0.612-3.451,1.837
		c-1.169,1.726-1.754,4.954-1.754,9.686v9.909h-11.384V52.048z"/>
</g>
</svg>
