<?xml version="1.0" encoding="utf-8"?>
<!-- Generator: Adobe Illustrator 17.0.0, SVG Export Plug-In . SVG Version: 6.00 Build 0)  -->
<!DOCTYPE svg PUBLIC "-//W3C//DTD SVG 1.1//EN" "http://www.w3.org/Graphics/SVG/1.1/DTD/svg11.dtd">
<svg version="1.1" xmlns="http://www.w3.org/2000/svg" xmlns:xlink="http://www.w3.org/1999/xlink" x="0px" y="0px" width="426px"
	 height="52px" viewBox="0 0 426 52" enable-background="new 0 0 426 52" xml:space="preserve">
<g id="baybio-white-paper-report-cover">
	<g>
		<path fill="#FFFFFF" d="M94.401,4.531h6.655l13.26,34.477h-6.82l-2.698-7.102H90.73l-2.805,7.102h-6.82L94.401,4.531z
			 M97.77,13.672l-4.625,11.836h9.224L97.77,13.672z"/>
		<path fill="#FFFFFF" d="M143.648,18.664l-5.327,2.93c-1.001-1.047-1.991-1.773-2.968-2.18c-0.978-0.406-2.124-0.609-3.438-0.609
			c-2.394,0-4.33,0.714-5.808,2.142c-1.479,1.427-2.217,3.257-2.217,5.487c0,2.168,0.711,3.939,2.135,5.312
			c1.424,1.373,3.293,2.06,5.608,2.06c2.863,0,5.092-0.977,6.688-2.93l5.045,3.454c-2.734,3.557-6.594,5.335-11.578,5.335
			c-4.485,0-7.996-1.328-10.535-3.984c-2.54-2.656-3.809-5.766-3.809-9.328c0-2.469,0.617-4.742,1.852-6.82
			c1.234-2.078,2.957-3.711,5.168-4.898c2.211-1.188,4.684-1.781,7.418-1.781c2.531,0,4.805,0.504,6.82,1.512
			S142.367,16.805,143.648,18.664z"/>
		<path fill="#FFFFFF" d="M168.234,13.508h6.398v25.5h-6.398v-2.695c-1.249,1.188-2.501,2.043-3.757,2.566
			c-1.256,0.523-2.618,0.785-4.085,0.785c-3.293,0-6.142-1.277-8.545-3.832s-3.605-5.73-3.605-9.527c0-3.938,1.163-7.164,3.488-9.68
			c2.325-2.516,5.15-3.773,8.474-3.773c1.529,0,2.965,0.289,4.307,0.867s2.583,1.445,3.723,2.602V13.508z M161.508,18.758
			c-1.978,0-3.621,0.699-4.929,2.098c-1.309,1.398-1.962,3.191-1.962,5.379c0,2.203,0.666,4.016,1.997,5.438s2.97,2.133,4.917,2.133
			c2.009,0,3.675-0.699,4.999-2.098c1.324-1.398,1.986-3.23,1.986-5.496c0-2.219-0.662-4.016-1.986-5.391
			C165.207,19.445,163.533,18.758,161.508,18.758z"/>
		<path fill="#FFFFFF" d="M199.922,3.664h6.398v35.344h-6.398v-2.695c-1.249,1.188-2.501,2.043-3.757,2.566
			c-1.256,0.523-2.618,0.785-4.085,0.785c-3.293,0-6.142-1.277-8.545-3.832s-3.605-5.73-3.605-9.527c0-3.938,1.163-7.164,3.488-9.68
			c2.325-2.516,5.15-3.773,8.474-3.773c1.529,0,2.965,0.289,4.307,0.867s2.583,1.445,3.723,2.602V3.664z M193.196,18.758
			c-1.978,0-3.621,0.699-4.929,2.098c-1.309,1.398-1.962,3.191-1.962,5.379c0,2.203,0.666,4.016,1.997,5.438s2.97,2.133,4.917,2.133
			c2.009,0,3.675-0.699,4.999-2.098c1.324-1.398,1.986-3.23,1.986-5.496c0-2.219-0.662-4.016-1.986-5.391
			C196.894,19.445,195.22,18.758,193.196,18.758z"/>
		<path fill="#FFFFFF" d="M238.336,28.109h-20.555c0.296,1.812,1.09,3.254,2.379,4.324s2.933,1.605,4.934,1.605
			c2.391,0,4.445-0.836,6.164-2.508l5.391,2.531c-1.344,1.906-2.953,3.316-4.828,4.23s-4.102,1.371-6.68,1.371
			c-4,0-7.258-1.262-9.773-3.785c-2.516-2.523-3.773-5.684-3.773-9.48c0-3.891,1.254-7.121,3.762-9.691s5.652-3.855,9.434-3.855
			c4.016,0,7.281,1.285,9.797,3.855c2.516,2.57,3.773,5.965,3.773,10.184L238.336,28.109z M231.938,23.07
			c-0.422-1.422-1.256-2.578-2.5-3.469s-2.688-1.336-4.332-1.336c-1.784,0-3.349,0.5-4.695,1.5
			c-0.845,0.625-1.627,1.727-2.348,3.305H231.938z"/>
		<path fill="#FFFFFF" d="M243.469,13.508h6.398v2.93c1.094-1.203,2.31-2.102,3.647-2.695s2.795-0.891,4.375-0.891
			c1.594,0,3.033,0.391,4.315,1.172c1.282,0.781,2.314,1.922,3.096,3.422c1.016-1.5,2.263-2.641,3.741-3.422
			c1.478-0.781,3.092-1.172,4.843-1.172c1.813,0,3.408,0.422,4.785,1.266c1.376,0.844,2.365,1.945,2.967,3.305
			c0.602,1.359,0.903,3.57,0.903,6.633v14.953h-6.445V26.07c0-2.891-0.36-4.848-1.078-5.871c-0.719-1.023-1.797-1.535-3.234-1.535
			c-1.094,0-2.074,0.312-2.941,0.938s-1.512,1.488-1.934,2.59s-0.633,2.871-0.633,5.309v11.508h-6.445V26.656
			c0-2.281-0.168-3.934-0.505-4.957c-0.337-1.023-0.842-1.785-1.516-2.285s-1.488-0.75-2.443-0.75c-1.065,0-2.032,0.316-2.901,0.949
			s-1.519,1.52-1.95,2.66s-0.646,2.938-0.646,5.391v11.344h-6.398V13.508z"/>
		<path fill="#FFFFFF" d="M285.803,13.508h6.539l6.624,16l7.309-16h6.557l-15.97,34.828h-6.608l5.243-11.23L285.803,13.508z"/>
		<path fill="#FFFFFF" d="M314.942,4.531h7.382l7.246,11.069l7.262-11.069h7.374l-10.939,16.716l11.627,17.761h-7.383l-7.935-12.121
			l-7.932,12.121h-7.43l11.661-17.774L314.942,4.531z"/>
	</g>
</g>
<g id="nyt_x5F_png_x5F_info" display="none">
</g>
</svg>
