<?xml version="1.0" encoding="utf-8"?>
<!DOCTYPE svg PUBLIC "-//W3C//DTD SVG 1.1//EN" "http://www.w3.org/Graphics/SVG/1.1/DTD/svg11.dtd">
<svg version="1.1" id="Layer_1" xmlns="http://www.w3.org/2000/svg" xmlns:xlink="http://www.w3.org/1999/xlink" x="0px" y="0px"
	 width="800px" height="800px" viewBox="0 0 800 800" enable-background="new 0 0 800 800" xml:space="preserve">
<g id="g1666" transform="matrix(0,0.69554285,0.83303465,0,-156.46507,-596.69717)">
	<path id="path128" fill="#FFFFFF" d="M1166.645,1100.955c-5.134-2.824-8.471-3.08-10.267-1.283
		c-4.107,4.107-21.562,2.823-32.086-2.31c-13.348-6.931-25.925-21.818-25.925-30.802c0-18.225,11.037-31.059,26.439-31.059
		c3.337,0,8.471-2.823,11.294-6.16c7.444-8.471,23.358-11.037,35.166-5.39c5.134,2.567,10.781,3.85,12.578,3.08
		c2.053-0.77,5.134-0.257,7.187,0.77c2.567,1.797,1.797,2.824-3.337,4.877c-4.107,1.54-7.187,4.877-7.701,8.471
		c-0.77,5.647-1.283,5.39-5.39-2.31c-3.337-6.16-6.674-8.727-13.861-10.011c-10.011-1.797-17.454,1.027-17.454,6.931
		c0,2.31-4.364,4.107-13.091,5.134c-16.685,2.053-18.225,3.08-22.845,14.374c-6.161,14.631-1.027,24.642,17.198,34.139
		c8.984,4.62,10.524,4.877,17.455,1.283c16.171-8.214,21.562-22.588,14.118-36.963c-3.337-6.93-2.824-10.524,1.54-10.524
		c1.283,0,5.134,4.364,8.727,9.497c7.187,11.037,8.214,23.615,2.567,32.599c-3.594,5.39-3.594,6.417,0,9.241
		c6.16,5.134,10.781,1.283,12.834-10.011c1.797-11.551,7.187-14.631,5.904-3.85c-1.027,9.754,4.62,10.524,9.497,1.283
		c5.134-10.267,6.417-10.011,6.417,1.027c0,6.931-1.027,8.984-4.62,8.984c-2.567,0-8.471,2.823-13.348,6.417
		C1175.373,1105.832,1176.143,1105.832,1166.645,1100.955z"/>
	<path id="path130" fill="#FFFFFF" d="M1209.768,1084.527c2.567-2.824,5.134-9.754,5.904-15.401
		c1.797-13.348,5.134-13.604,6.417-0.257c1.027,10.781-1.797,15.401-11.807,18.995
		C1205.405,1089.661,1205.405,1089.404,1209.768,1084.527z"/>
	<path id="path132" fill="#FFFFFF" d="M1515.48,1081.447
		c-26.182-8.471-78.802-20.535-96.514-22.075c-18.225-1.54-30.546,3.08-30.546,11.807c0,15.144-26.182,13.861-50.054-2.567
		c-8.471-5.39-14.118-7.187-28.235-7.957c-10.011-0.77-21.562-2.824-25.925-4.62c-9.497-4.107-20.535-1.797-22.332,4.877
		c-1.283,5.39-21.562,16.684-23.615,13.348s5.39-11.294,11.037-11.807c7.957-0.513,23.358-14.631,22.845-20.535
		c-0.513-4.107-2.054-5.134-8.984-4.364c-10.267,0.77-10.524-2.31-0.513-6.93c9.241-3.85,15.401-2.31,15.401,4.107
		c0.257,13.091,17.968,22.075,38.759,19.508c11.294-1.283,13.604-0.77,19.765,4.877c9.241,8.727,21.305,14.631,31.572,15.401
		c6.931,0.77,9.241-0.513,11.807-5.904c8.214-16.684,22.588-20.535,54.674-14.374c21.305,4.107,63.658,15.144,81.112,21.048
		c10.781,3.594,11.807,3.594,23.102-2.567c6.674-3.594,13.604-6.417,15.401-6.417c6.417,0,3.85,4.364-5.134,8.727
		c-4.62,2.053-10.011,5.647-11.807,7.957C1533.448,1087.607,1534.475,1087.607,1515.48,1081.447z"/>
	<path id="path134" fill="#FFFFFF" d="M1229.276,1081.704c0-1.283,1.797-2.567,3.85-2.567
		s3.85,1.283,3.85,2.567c0,1.54-1.797,2.567-3.85,2.567S1229.276,1083.244,1229.276,1081.704z"/>
	<path id="path136" fill="#FFFFFF" d="M1116.849,1076.057c-5.39-5.39-3.594-12.321,3.85-15.144
		c5.647-2.053,7.701-1.54,12.064,2.567c4.877,5.134,4.877,5.39,0.257,10.524C1127.886,1079.907,1121.469,1080.677,1116.849,1076.057
		z"/>
	<path id="path138" fill="#FFFFFF" d="M1562.967,1064.249c0-4.107-28.235-10.781-38.759-9.241
		c-10.267,1.797-12.834-0.257-6.417-5.134c7.701-5.904,5.39-40.3-3.594-55.957c-3.337-5.647-3.337-7.187,0-7.187
		c1.54,0,2.567,1.54,2.567,3.337c0,1.797,3.08,7.187,7.187,11.808c8.214,10.011,51.337,26.952,116.535,45.433
		c2.567,0.77,4.877-0.513,5.904-3.85c0.77-2.567,8.984-11.037,17.968-18.481c9.241-7.701,16.685-14.631,16.685-15.658
		s-5.134-2.567-11.551-3.594c-19.508-2.823-17.455-7.444,6.417-15.144c17.968-5.647,18.995-6.417,15.658-9.754
		c-1.54-1.54-2.823-11.037-2.823-21.048c0-10.524-1.283-19.508-3.08-21.305c-4.364-4.364-1.283-5.904,7.187-3.337
		c4.107,1.283,13.861,3.594,21.562,5.39s15.658,3.85,17.455,4.364c2.31,1.027,3.08-3.08,3.337-14.888
		c0-8.984,1.027-21.562,1.797-27.979c1.797-10.524,2.567-11.551,11.551-13.604c5.134-1.283,10.781-4.62,12.321-7.187
		c2.31-4.364,1.283-5.647-7.187-9.497c-5.39-2.31-13.604-7.187-18.225-10.267l-8.471-6.16l-19.508,7.187
		c-13.861,5.134-22.588,10.267-29.262,17.198c-11.551,11.807-22.845,33.369-22.845,43.636c0,7.187-0.513,7.444-8.214,5.904
		c-4.62-1.027-12.834-2.31-17.968-3.337c-14.374-2.053-11.807-5.904,3.337-5.134l13.091,0.513l5.134-14.118
		c2.823-7.701,7.701-16.685,10.524-20.021c4.62-5.134,4.877-6.16,1.797-8.214c-3.85-2.567-12.834-3.594-21.048-3.08
		c-5.39,0.513-5.647-0.513-1.54-7.187c4.364-6.93-0.257-14.374-8.471-13.348c-12.834,1.283-13.348,2.567-7.444,12.321l5.39,9.497
		l-5.134,5.39c-6.674,7.187-14.118,28.235-12.321,34.909c0.77,3.337,0,5.134-2.31,5.134c-6.16,0-7.187-7.701-2.823-20.021
		c2.567-6.417,3.85-12.064,3.08-12.834c-0.513-0.77-4.877,0.513-9.497,2.31c-4.62,2.053-10.267,3.594-12.578,3.594
		c-2.31,0-8.471,5.134-13.604,11.037c-7.701,9.497-9.241,13.091-9.241,23.615c0,6.93-1.027,15.401-2.31,18.738
		c-2.053,5.39-3.85,6.16-12.321,5.647c-5.39-0.513-16.684-3.08-24.898-6.16c-8.471-3.08-17.198-5.39-20.021-5.39
		c-8.984,0-4.364-6.93,7.701-11.551c6.674-2.567,13.091-5.39,14.118-6.417c1.283-1.027-1.54-7.701-5.647-15.144
		c-4.364-7.444-7.957-13.861-7.957-14.631c0-3.08,71.615-30.289,73.925-27.979c0.513,0.513,0,2.567-1.027,4.364
		c-2.567,3.85-1.54,15.144,1.54,18.481c1.283,1.283,4.877,0.513,8.727-1.797c6.931-4.62,6.674-12.064-0.513-20.535
		c-2.053-2.31-3.337-4.877-2.824-5.39c1.54-1.54,48.513-16.941,51.594-16.941c1.54,0,11.037-3.85,21.048-8.727
		c22.075-10.524,36.449-14.118,34.396-8.727c-0.77,2.053,0,5.647,2.054,8.471c2.053,2.567,3.594,7.444,3.594,10.781
		c0,4.107,1.54,5.904,4.62,5.904c7.957,0,7.957-2.567,0-18.225c-5.647-10.781-7.187-16.171-5.134-18.225
		c3.08-3.08,9.754,5.904,14.631,20.535c2.824,7.957,6.417,11.294,24.385,21.818c11.551,6.674,22.588,12.064,24.642,12.064
		s4.364,1.797,5.39,4.364c1.797,4.62-7.701,13.348-21.305,20.021c-6.417,3.08-8.471,5.904-10.781,17.198
		c-3.594,15.914-3.337,32.856,0.257,37.476c4.877,6.16-0.257,5.904-21.562-0.77c-11.551-3.594-22.588-6.16-24.642-5.39
		c-2.567,1.027-2.823,5.39-1.797,17.455c1.027,8.984,2.823,17.455,4.107,19.251c4.62,5.904-2.31,13.091-14.631,15.144
		c-6.417,0.77-11.551,2.567-11.551,3.85c0,1.027,3.594,4.107,7.701,6.674c9.497,5.39,9.754,8.984,1.027,13.861
		c-3.594,1.797-13.091,10.524-21.048,18.995c-9.754,10.524-15.914,15.144-19.508,14.631c-13.604-1.54-59.551-16.941-94.717-31.572
		l-17.455-7.444l0.77,15.658l0.77,15.658l14.118,5.134c7.7,2.824,15.144,6.161,16.684,7.444c1.283,1.283,4.877,2.31,7.957,2.31
		c3.337,0,6.674,1.283,7.444,2.567c1.027,1.54-1.797,2.567-6.16,2.567S1562.967,1065.276,1562.967,1064.249z M1556.807,937.96
		c0.257-4.877,0.513-12.064,0.77-15.658c0-3.594,4.107-11.037,8.727-16.685c4.62-5.39,9.754-13.348,11.551-17.198
		c2.567-6.16,2.31-7.444-1.283-8.727c-4.877-2.053-45.947,11.551-50.053,16.685c-4.107,4.877,1.54,15.401,8.727,16.428
		c7.187,1.027,9.241,8.984,2.823,11.551c-8.214,3.08-21.562,11.551-20.278,13.091c2.823,2.567,28.749,10.524,33.626,10.011
		C1555.523,946.944,1556.55,944.891,1556.807,937.96z M1618.924,874.816c0.77-6.16-7.187-14.374-11.807-11.551
		c-4.877,2.824,1.283,18.738,6.931,17.711C1616.357,880.463,1618.411,877.896,1618.924,874.816z M1680.785,865.832
		c5.39-9.754-0.513-21.305-12.064-22.332c-8.984-1.027-10.524,2.053-4.107,7.444c2.053,1.797,3.85,6.674,3.594,11.037
		c-0.77,11.551-0.513,12.321,4.364,11.294C1675.138,872.762,1678.732,869.425,1680.785,865.832z M1662.561,863.265
		c1.027-7.701-7.444-16.428-13.861-14.118c-2.824,1.027-3.594,3.337-2.567,7.444c0.77,3.08,1.54,7.701,1.54,10.267
		c0,3.594,1.54,4.62,7.187,3.85C1660.25,870.195,1662.047,868.399,1662.561,863.265z M1701.577,849.661
		c0-11.037-7.187-17.711-16.428-15.401c-7.957,1.797-8.471,6.16-1.54,12.578c2.823,2.567,5.134,6.674,5.134,8.984
		c0,6.16,2.567,7.957,7.957,4.877C1700.037,859.158,1701.577,855.308,1701.577,849.661z"/>
	<path id="path140" fill="#FFFFFF" d="M1351.715,1051.672c-1.027-0.77-0.257-3.337,1.797-5.647
		c5.904-6.93,0.513-14.631-16.684-23.102c-8.727-4.62-16.171-7.701-16.941-6.931c-0.513,0.513,1.283,5.904,4.364,11.807
		c3.08,5.904,4.877,11.551,4.107,12.321c-2.31,2.053-5.39-1.797-13.091-16.171l-6.674-12.578l5.904-4.877
		c3.337-2.567,10.267-6.93,15.658-9.754c10.524-5.39,10.781-7.444,2.823-23.872c-6.674-14.118-5.134-16.941,26.952-43.893
		l30.545-25.669l-1.283-17.968c-1.797-25.412-1.797-25.668-11.037-19.251c-13.091,9.497-68.021,60.578-78.289,73.412l-10.011,12.064
		l4.364,16.685c4.877,18.738,4.364,20.278-11.551,30.289c-6.417,4.107-9.754,8.214-9.754,12.064c-0.257,5.39-0.257,5.647-3.85,0.77
		c-6.674-8.727-4.62-13.091,9.241-18.995c11.551-4.62,13.091-6.16,11.807-11.294c-0.77-3.337-2.567-10.011-3.594-14.888
		c-2.053-7.957-3.594-8.984-13.091-11.037c-14.118-2.824-13.861-6.93,0.513-6.93c12.578,0,18.225-4.62,16.171-12.834
		c-0.77-3.08,0.257-8.471,2.31-12.321c2.053-3.85,3.594-8.214,3.594-9.754c0-6.674,37.219-58.268,55.187-76.749
		c18.481-18.738,19.508-20.535,17.968-28.749c-1.283-7.444-2.567-8.471-9.241-8.471c-4.364,0-10.011,1.283-12.834,2.567
		c-5.39,3.08-6.674-0.513-1.54-4.62c1.54-1.283,10.524-4.364,19.508-6.674c9.241-2.31,17.968-5.39,19.765-6.931
		c2.31-1.797,4.62-1.797,7.957,0.257c3.85,2.567,9.754,1.283,30.289-5.904c85.219-29.775,110.375-37.989,113.968-37.219
		c3.594,0.77,15.658,15.914,15.658,19.765c0,0.77-12.321,6.16-27.722,11.551c-15.144,5.647-28.492,11.037-29.519,11.807
		c-1.283,1.027-1.027,5.904,0.257,10.524c1.797,7.701,3.337,8.727,10.267,8.727c7.444,0,8.984,1.54,16.941,17.198
		c9.754,18.738,9.241,20.535-5.39,23.872c-5.39,1.027-8.471,0.77-8.471-1.027c0-1.54,1.797-2.824,3.85-2.824
		c6.417,0,6.674-5.39,1.54-19.251l-4.877-12.834l-16.428,0.77l-16.171,0.77l6.161-4.877c5.647-4.364,5.904-5.647,3.337-13.348
		c-1.797-4.62-2.31-9.241-1.54-10.524c0.77-1.283,7.187-4.107,14.631-6.16c13.604-3.85,42.096-14.888,44.15-17.198
		c0.77-0.513-1.283-3.594-4.62-6.674l-5.904-5.647l-18.995,6.16c-10.524,3.08-24.898,8.214-32.086,11.037
		c-6.931,3.08-19.765,7.957-28.235,11.037s-17.198,6.417-19.251,7.701c-2.31,1.027-7.957,2.824-12.834,3.85
		c-4.877,1.027-12.834,3.594-17.454,5.647c-6.417,3.08-8.984,3.337-12.064,0.77c-5.904-4.877-18.225,2.31-17.198,10.267
		c2.053,14.888,2.823,15.144,84.706,5.904c7.701-0.77,13.348-0.513,13.348,1.027c0,2.053-33.112,6.93-84.963,12.321
		c-13.091,1.54-16.171,3.08-30.289,15.658c-8.471,7.701-18.995,18.995-23.102,24.898c-12.834,18.481-36.963,60.834-35.423,62.631
		c2.31,2.31,18.225-10.267,42.866-33.882c40.043-37.989,43.636-40.813,48.257-36.449c2.053,2.31,4.364,11.037,5.39,20.278
		l1.54,16.171l17.968,0.77c10.781,0.513,25.925-0.77,37.989-3.594l20.021-4.62l-1.797-13.348l-1.54-13.604l9.754-4.107
		c13.604-5.647,21.562-7.444,21.562-4.62c0,1.283-4.877,3.85-10.781,5.904c-8.984,3.08-11.294,5.134-11.807,11.037
		c-0.513,4.107,1.283,10.267,3.594,14.118c2.567,3.85,4.877,10.781,5.39,15.658c0.257,4.62,2.31,10.524,4.62,12.834
		c5.647,6.417,4.877,7.701-5.134,12.064c-10.267,4.107-11.294,8.471-3.594,13.604l5.647,3.337l-7.187,5.647l-7.187,5.647
		l4.364,21.818c2.31,11.808,5.39,24.642,6.417,28.492c1.283,3.85,1.54,14.374,1.027,23.358c-1.283,14.888-2.053,16.941-7.187,17.968
		c-6.417,1.027-39.529-8.471-39.786-11.551c0-3.337,8.984-2.31,24.385,3.08c8.214,2.823,15.144,5.134,15.401,5.134
		c3.08,0-3.85-55.957-8.727-71.872c-3.85-12.578-3.594-19.508,1.283-24.385c3.85-3.85,3.85-4.364-0.257-8.984
		c-5.39-5.904-3.337-9.754,7.957-14.374c4.877-2.053,8.727-4.62,8.727-5.904c0-4.107-8.214-18.738-11.294-19.765
		c-1.797-0.77-10.524,0.513-19.765,2.824c-8.984,2.053-23.872,3.85-33.369,3.85h-16.684l-22.588,19.251
		c-12.321,10.781-26.952,22.332-32.599,25.669c-5.39,3.594-10.011,7.444-10.011,8.727c0,2.31,11.551,4.107,42.61,6.93l18.225,1.797
		l12.321-14.631c12.064-13.861,28.749-26.439,31.572-23.615c0.513,0.77-8.214,10.781-20.021,22.075l-21.048,20.792l5.39,11.294
		c7.187,15.401,6.931,18.995-3.08,23.102c-7.444,3.08-14.631,12.578-14.631,19.251c0,1.283,2.824,5.647,6.417,10.011
		c7.187,8.214,10.524,8.214,21.562-0.257c6.417-4.877,13.091-6.16,13.091-2.31c0,3.08-21.562,15.658-26.439,15.658
		c-3.85,0-12.834-9.497-18.738-19.508c-2.823-4.62-3.337-4.62-14.118,1.283c-15.658,8.471-15.914,8.727-12.064,16.941
		c2.824,6.16,2.567,7.444-1.797,10.524C1356.079,1053.982,1354.025,1054.238,1351.715,1051.672z M1367.63,1018.559
		c7.187-3.85,13.091-7.957,13.091-8.984c0-2.823-21.305-12.578-27.465-12.578c-7.187,0-26.439,8.214-26.439,11.294
		c0.257,1.54,6.16,5.904,13.604,9.497c7.444,3.594,13.604,6.93,13.861,7.187C1354.282,1024.976,1360.443,1022.153,1367.63,1018.559z
		 M1394.068,1000.591c3.08-3.594,7.957-7.444,11.037-8.727c5.647-2.053,5.647-2.567,2.053-13.861
		c-3.337-9.754-5.134-11.807-10.781-12.064c-3.594-0.257-9.497-0.77-13.091-1.027c-3.594-0.513-14.118-1.54-23.615-2.567
		c-22.588-2.567-26.182-1.283-21.305,8.214c2.054,3.85,3.85,9.241,3.85,11.807c0,2.823,3.594,5.904,9.754,8.471
		c5.134,2.053,14.631,6.417,21.048,10.011C1387.651,1008.548,1387.908,1008.548,1394.068,1000.591z"/>
	<path id="path142" fill="#FFFFFF" d="M1339.651,1047.051c-2.053-2.31-2.053-3.85-0.513-3.85
		c3.08,0,6.674,4.877,4.877,6.674C1343.501,1050.388,1341.448,1049.361,1339.651,1047.051z"/>
	<path id="path144" fill="#FFFFFF" d="M1240.571,1040.634
		c-2.567-12.578-17.968-19.251-29.005-12.321c-2.567,1.54-6.674,2.053-9.497,0.77c-4.364-1.797-4.107-2.31,2.824-5.39
		c4.364-1.797,14.118-4.107,21.818-5.134c7.7-0.77,14.888-2.054,15.914-2.567c1.027-0.77,0-5.134-2.053-10.011
		c-5.134-12.578-4.62-15.401,5.39-26.695l9.241-10.011l-5.39-8.984c-4.877-8.214-5.134-9.754-1.54-27.979
		c4.62-23.615,16.428-55.187,28.492-75.209c11.807-19.251,29.519-40.043,38.503-44.92c6.417-3.337,7.187-3.337,11.551,2.567
		c4.62,6.16,4.62,6.16,10.267,1.283c5.39-4.877,5.647-4.877,4.877-0.257c-1.54,7.701-8.727,10.781-16.171,6.93
		c-5.904-3.337-7.187-2.824-16.428,4.62c-19.251,15.144-42.866,56.984-52.364,92.15c-4.364,16.428-4.877,22.588-2.824,26.182
		c1.797,2.823,2.053,5.39,0.513,6.93c-4.364,4.364,5.134,18.738,13.348,20.535c4.107,0.77,7.444,2.567,7.444,3.85
		c0,1.54-2.824,1.797-6.417,1.027c-6.674-1.797-21.818,4.364-21.818,8.471c0,1.283,2.31,2.824,5.134,3.594
		c2.823,0.77,5.134,2.567,5.134,4.107c0,1.797-2.567,2.31-6.93,1.283c-7.444-2.053-7.187-3.85-1.54,21.562
		c1.283,4.62,0.257,5.647-5.39,5.647c-8.471,0-8.727,4.364-0.257,8.214c4.107,1.797,6.16,4.364,5.134,6.674
		c-0.77,1.797-1.283,5.134-1.283,7.187C1247.245,1051.415,1242.111,1048.335,1240.571,1040.634z"/>
	<path id="path146" fill="#FFFFFF" d="M1194.624,1038.067c-0.77-1.283-0.257-2.567,1.027-2.567
		c1.54,0,2.824,1.283,2.824,2.567c0,1.54-0.513,2.567-1.027,2.567C1196.677,1040.634,1195.394,1039.607,1194.624,1038.067z"/>
	<path id="path148" fill="#FFFFFF" d="M1260.079,1022.409c0-1.283,1.283-1.797,2.567-1.027
		c1.54,0.77,2.567,2.054,2.567,2.824c0,0.513-1.027,1.027-2.567,1.027C1261.362,1025.233,1260.079,1023.95,1260.079,1022.409z"/>
	<path id="path150" fill="#FFFFFF" d="M1169.982,987.5c0-1.283-0.513-10.011-0.513-19.765
		l-0.513-17.968l-10.267-1.797c-26.182-5.134-47.487-11.037-47.487-13.604c0-1.54,5.39-5.904,11.551-9.754
		c10.011-5.904,11.551-8.214,11.551-15.401c0-8.984,9.497-30.545,17.198-39.529c5.39-6.16,19.765-12.578,23.358-10.267
		c1.283,0.77,1.797,4.364,1.027,7.957c-1.283,7.444-0.257,7.701,10.267,2.31c7.957-4.107,15.658-4.107,36.963,0.513
		c7.957,1.54,8.471,1.027,16.428-14.631c4.62-8.984,11.551-21.305,15.401-27.209c7.701-11.294,7.444-15.144-0.513-10.781
		c-3.594,1.797-5.904,2.053-7.701,0.257c-3.337-3.337-0.513-8.214,4.364-8.214c3.08,0,25.925-6.417,55.444-15.401
		c3.594-1.027,9.241-3.337,12.578-5.134c3.08-1.54,26.695-10.267,52.107-19.251c76.492-26.439,99.337-35.166,99.337-37.476
		c0-1.283-6.674-6.417-14.631-11.551c-8.214-5.134-19.765-12.578-25.412-16.685c-10.011-6.93-10.781-6.93-14.631-2.824
		c-2.053,2.31-6.16,8.984-9.241,14.631c-2.823,5.647-10.267,17.198-16.171,25.412c-10.524,14.374-12.064,15.401-30.289,21.048
		c-10.524,3.337-21.305,6.16-23.615,6.16c-2.567,0-9.241-6.417-14.888-14.118c-14.374-19.508-20.021-19.251-30.802,2.053
		c-4.62,8.727-12.834,21.048-18.225,27.209c-5.647,6.16-10.011,12.834-10.011,14.631c0,2.054-1.027,3.594-2.567,3.594
		c-1.283,0-2.567-1.027-2.567-2.31c0-1.54,1.283-3.337,2.567-4.107c1.54-0.77,2.567-3.337,2.567-5.134
		c0-3.594,20.278-36.963,30.546-50.31c6.16-8.214,4.877-10.011-7.187-10.011c-22.845,0-39.273,10.011-53.904,33.112
		c-10.011,15.401-10.011,20.535-0.257,29.775c8.984,8.471,9.497,11.037,3.337,13.348c-14.118,4.877-17.711,17.968-7.957,28.235
		c5.134,5.39,5.39,6.417,1.54,10.011c-3.337,3.594-5.647,3.594-13.091,1.283c-5.134-1.797-10.781-5.904-13.091-9.241
		c-3.85-5.904-4.364-5.904-13.091-2.567c-16.685,7.187-37.219,3.08-26.182-5.134c6.931-4.877,5.134-6.674-5.134-4.877
		c-6.674,1.027-13.861-0.257-22.588-3.594c-14.888-5.904-16.941-11.808-4.364-12.834c10.781-1.027,10.524-3.85-0.77-7.957
		c-10.781-3.85-18.995-14.631-19.765-26.182c-0.77-7.444,0.257-8.727,5.134-9.497c3.08-0.513,5.647,0.257,5.647,1.283
		c0,6.674,7.701,11.551,21.305,13.348c16.428,2.31,19.508,0.513,12.064-6.16c-5.647-5.134-6.674-14.118-2.053-18.738
		c1.797-1.797,7.444-3.08,12.834-3.08c8.214,0,10.267,1.027,12.321,6.417c2.823,7.187,13.091,13.091,18.995,10.781
		c5.134-2.053,3.594-15.914-3.337-29.519c-7.701-14.888-19.251-27.465-36.193-39.016c-17.711-12.064-34.652-30.546-39.016-42.866
		c-2.567-7.187-4.107-8.471-8.984-7.187c-3.08,0.77-6.417,0.257-7.187-1.283c-2.31-3.85-20.278-11.294-45.69-18.995
		c-40.3-12.578-58.524-34.139-58.781-69.818c-0.257-16.171,9.497-34.139,23.872-44.663c15.914-11.551,51.08-12.834,51.08-2.053
		c0,1.54,1.797,4.877,4.107,7.444c3.08,3.594,5.647,3.85,12.834,1.797c11.551-3.08,15.144-1.797,15.144,5.647
		c0,4.364,1.797,6.674,6.16,7.701c15.658,3.594,6.417,11.551-27.465,23.358c-12.321,4.364-29.005,10.781-37.476,14.374
		c-8.214,3.337-16.428,5.647-18.225,4.877c-5.904-2.31-17.711-24.898-15.144-29.005c3.594-5.904,37.219-18.995,40.813-16.171
		c1.797,1.54,5.134,7.187,7.7,12.834c2.567,5.647,6.161,10.267,7.957,10.267c6.674,0,31.829-11.037,31.829-14.118
		c0-1.54-2.31-5.134-4.877-7.444c-3.85-3.594-6.16-3.85-10.267-1.797c-8.471,4.62-10.524,3.337-15.915-8.727l-5.134-11.551h-13.604
		c-16.428,0-27.465,6.417-38.246,22.588c-12.834,19.251-9.754,46.717,7.444,66.995c8.214,9.754,15.658,13.348,46.973,22.332
		c12.064,3.594,25.412,8.727,29.775,11.294c7.444,4.364,7.957,4.364,16.428-0.257c10.011-5.39,15.401-3.85,9.497,2.567
		c-3.337,3.85-3.08,5.647,3.08,17.455c5.134,9.754,13.348,18.481,30.032,32.342c28.749,23.615,44.15,40.813,47.23,52.877
		c4.364,17.198,5.904,35.679,3.08,37.219c-5.904,3.85-22.075-2.053-32.599-11.807c-11.294-10.267-16.428-11.037-16.428-2.053
		c0,5.647,9.241,12.834,16.171,12.834c3.08,0,4.364,1.54,3.85,4.62c-0.77,3.85-3.85,4.364-23.102,4.364
		c-19.508,0-22.845-0.77-28.235-5.904c-7.957-7.444-11.037-4.364-4.62,4.62c6.93,9.497,30.289,16.941,41.583,13.091
		c10.524-3.85,14.888-3.594,14.888,0.513c0,2.053-7.701,6.16-17.968,9.754c-9.754,3.337-17.968,6.93-17.968,7.957
		c0,1.283,5.134,2.053,11.294,2.053c7.701,0,14.118-2.053,20.535-6.417c7.957-5.39,9.754-5.904,11.037-2.31
		c0.77,2.054-1.027,7.187-4.107,11.294c-6.417,8.984-6.674,10.267-1.283,10.267c2.053,0,7.444-3.337,11.807-7.701
		c9.497-9.497,11.294-9.497,13.604-0.77c4.107,16.428,10.781,17.711,10.524,2.31c-0.257-8.471,1.283-12.834,5.647-17.455
		c6.674-7.187,7.187-11.807,1.797-13.861c-2.053-1.027-3.85-4.62-3.85-8.727c0-20.791,26.182-53.39,47.23-58.781
		c16.941-4.107,28.749-3.594,34.139,2.053c2.567,2.567,7.187,5.647,10.267,6.417c5.134,1.54,14.118,10.781,24.385,25.155
		c3.337,4.62,4.877,5.39,7.444,2.823c1.797-1.797,5.134-3.337,7.444-3.337s5.39-1.283,6.93-2.824
		c6.161-6.16-13.861-32.599-32.086-42.866c-6.674-3.594-13.348-0.513-13.348,6.16c0,2.053-1.027,3.594-2.31,3.594
		c-1.54,0-1.797-3.85-1.027-8.727c1.283-8.214,1.027-8.471-8.471-10.011c-5.647-1.027-21.562-1.797-35.679-1.797
		c-26.952,0-64.171-5.39-73.925-10.524c-11.037-6.16-40.299-34.396-40.299-39.273c0-7.701,22.075-26.695,33.112-28.749
		c15.144-2.31,16.941-3.337,13.604-6.674c-3.594-3.594-4.107-16.428-0.77-18.481c1.283-1.027,3.08,2.053,4.107,6.417
		c2.054,8.727,18.995,22.845,27.722,22.845c2.823,0,7.444,2.053,10.011,4.364c4.107,3.594,6.16,3.85,12.578,1.54
		c9.754-3.85,14.888-1.797,17.968,6.16c2.31,5.904,3.337,6.417,13.861,4.877c9.497-1.54,11.551-1.027,14.118,3.337
		c1.283,2.824,2.31,6.674,2.053,8.471c-0.513,2.31,2.31,3.337,8.984,3.08c10.011-0.257,11.551,1.027,6.417,6.16
		c-2.31,2.31-2.31,3.85-0.257,5.904c4.107,4.107,9.241,0.257,7.701-5.647c-1.797-6.417,1.283-6.16,7.187,0.257
		c7.444,8.214,20.278,9.241,33.369,2.567c12.321-6.417,16.685-5.647,28.749,4.62l8.214,6.93l-8.984,18.738
		c-8.214,17.198-14.374,23.872-18.225,20.278c-1.54-1.797-0.77-3.85,9.241-21.048c8.984-15.144,9.497-18.738,3.594-23.358
		c-6.417-4.62-12.064-4.364-18.738,1.027l-5.647,4.62l5.647,9.497c7.7,12.834,5.39,17.455-2.567,5.39
		c-8.214-12.578-29.776-21.048-41.326-16.171c-8.984,3.594-15.144,1.54-15.144-5.134s-10.781-9.754-19.508-5.647
		c-9.241,4.107-16.685-0.513-15.914-9.497c0.77-6.16,0-6.93-5.647-6.16c-17.968,2.054-18.738,1.797-23.102-5.904
		c-3.337-6.16-7.957-8.984-21.562-13.348c-15.144-4.877-19.508-5.39-31.829-3.08c-14.374,2.823-31.316,13.348-31.316,19.765
		c0,4.107,25.668,28.235,35.679,33.626c10.267,5.647,25.925,7.957,70.845,10.267c34.139,1.54,43.38,3.08,55.187,7.957
		c16.941,7.187,36.706,25.155,43.893,40.299l5.39,11.037l7.444-3.85c4.107-2.31,7.444-6.16,7.444-8.727
		c0-2.567,2.31-6.674,4.877-8.984c2.824-2.567,10.011-13.091,16.171-23.615c11.294-19.508,14.374-21.818,20.021-15.144
		c1.797,2.053,4.364,3.85,5.647,3.85s7.187,3.337,13.091,7.187c5.904,4.107,15.144,10.011,20.535,13.091l10.011,6.16l-1.797-11.551
		c-1.027-6.417-4.364-20.791-7.444-31.829c-5.134-18.481-6.16-20.278-12.064-19.765c-3.337,0.257-8.984,0-12.321-0.77
		c-5.134-1.027-5.647-2.31-4.364-10.011l1.797-8.984h-10.524c-6.161,0-15.915,2.824-23.615,6.674
		c-17.711,8.984-34.652,11.294-53.39,7.444c-19.508-4.107-24.385-7.444-51.08-34.652c-15.401-15.658-25.668-23.872-34.139-27.209
		c-6.93-2.567-12.321-5.647-12.321-6.674c0-1.283,9.754-2.053,21.305-2.053c11.807,0,22.332-0.77,23.102-1.797
		c1.027-0.77-0.513-4.107-3.337-7.187c-5.904-6.16-10.011-24.385-5.647-24.385c1.54,0,7.957,2.31,14.631,5.134
		c10.524,4.62,15.401,4.877,41.07,3.594c33.369-2.053,43.636,0.257,70.845,15.914c8.984,5.134,21.562,12.321,27.979,15.658
		c6.417,3.594,15.401,8.727,20.021,11.551c10.781,6.674,24.128,5.134,38.246-4.364c7.957-4.877,13.091-6.674,20.278-5.904
		c9.497,0.77,10.011,1.283,10.781,10.011c0.77,7.957-0.513,10.267-6.931,14.888c-4.107,3.08-10.781,5.39-14.888,5.39
		c-13.604,0-42.096-10.011-62.631-21.818c-13.861-7.957-21.562-11.037-23.615-9.497c-1.797,1.283-10.781,3.337-20.278,4.364
		c-20.021,2.054-20.021,2.054-19.765-0.513c0.513-2.567,19.508-8.471,27.465-8.471c3.08,0,5.647-0.77,5.647-1.797
		c0-5.904-40.3-21.305-55.187-21.305c-12.321,0-32.086,3.08-32.086,4.877c0,1.027,6.674,5.39,14.888,9.754
		c21.305,11.807,27.979,17.455,13.348,11.294c-19.251-7.957-53.391-26.182-56.727-30.032c-3.85-4.62-10.011-4.62-10.011,0
		c0,2.054,2.824,7.187,6.417,11.294c8.471,10.011,8.471,17.968,0,20.021c-3.594,0.77-8.214,1.027-10.267,0
		c-6.674-2.567-4.364,1.027,16.684,23.872c34.139,37.476,60.834,44.663,96.257,25.669c22.332-11.808,48-8.984,44.15,4.877
		c-1.54,6.93,2.31,9.754,7.187,5.647c3.08-2.567,5.134-2.31,9.497,0.513c4.62,3.08,7.187,10.781,14.118,44.406
		c4.62,22.332,8.214,40.813,7.701,41.07c-1.54,1.283-61.348,23.102-74.952,27.465c-8.471,2.824-18.738,6.674-23.102,8.471
		c-4.107,1.797-17.968,6.931-30.802,11.037c-30.289,10.011-45.433,15.401-63.658,22.845c-8.214,3.08-16.685,5.904-18.738,5.904
		s-3.594,1.797-3.594,3.85c0,2.053-5.134,11.807-11.551,21.818c-6.417,10.011-13.861,23.102-16.941,29.519l-5.39,11.294
		l-11.807-1.54c-18.738-2.567-22.332-2.31-22.332,1.797c0,2.567,4.364,4.364,13.604,5.904c14.888,2.567,15.144,2.824,8.214,21.048
		c-2.567,6.93-5.134,7.957-9.497,3.594c-1.283-1.283-7.701-2.31-13.861-1.797c-9.241,0.513-11.294,1.797-11.294,5.904
		c0,4.364,2.567,5.39,14.888,7.444c7.957,1.027,14.631,3.08,14.631,4.364c0,1.54-1.797,6.674-3.85,11.807
		c-3.85,8.984-3.85,9.241-16.171,7.444c-10.524-1.283-13.348-0.77-17.198,3.594c-4.877,5.39-3.594,6.674,8.727,8.214
		c10.524,1.283,9.241,6.674-1.54,7.701c-6.931,0.513-10.011,2.054-10.524,5.39c-1.027,5.647,2.053,5.647,15.658-0.513
		c15.914-6.93,31.572-11.294,35.422-9.754c2.567,0.77,2.053,1.797-1.54,3.08c-17.455,6.16-36.193,14.888-43.38,20.535
		C1173.319,989.554,1170.496,990.581,1169.982,987.5z M1175.373,933.853c0-7.957,12.321-49.797,16.171-54.417
		c4.364-5.39,0-6.417-7.957-1.54c-9.497,5.39-15.914,3.337-15.914-5.39c0-9.241-3.85-7.957-12.321,4.62
		c-8.984,13.091-14.374,28.235-12.064,34.909c1.283,4.107-0.77,6.674-8.727,11.807c-5.904,3.594-10.524,7.701-10.524,8.984
		c0,1.54,5.39,2.824,12.321,2.824c6.674,0.257,15.658,1.283,19.765,2.31C1171.522,941.81,1175.373,941.04,1175.373,933.853z
		 M1208.742,934.367c0-5.39-1.54-6.417-10.524-7.957c-11.294-2.053-16.941,0.77-14.374,7.444c1.283,3.337,7.187,5.134,20.535,6.417
		C1207.458,940.527,1208.742,938.73,1208.742,934.367z M1218.496,895.094c0.77-5.39,0-5.904-12.064-5.904
		c-13.091,0-17.198,2.567-14.631,9.241c1.027,2.824,4.62,3.594,13.604,3.08C1215.929,900.741,1217.726,899.971,1218.496,895.094z
		 M1288.057,657.147c2.31-2.567,2.31-4.107,0.257-5.39c-4.107-2.567-10.267,0.513-10.267,5.134
		C1278.047,661.767,1284.207,662.024,1288.057,657.147z M1257.255,644.569c1.54-2.053,2.053-4.364,1.283-5.134
		c-2.567-2.31-11.551,3.337-10.011,6.16C1250.838,648.933,1253.918,648.42,1257.255,644.569z M1521.897,610.174
		c10.524-13.348,0.257-17.968-16.171-6.93c-5.904,4.107-11.294,7.701-12.064,8.214c-2.567,1.797,6.931,5.647,14.631,5.647
		C1513.94,617.104,1518.047,615.051,1521.897,610.174z M1034.196,559.607c0-3.337,2.567-7.957,5.647-10.781
		c5.39-4.877,5.39-4.877,3.337,0.257c-3.08,7.444-4.62,19.251-2.823,19.251c3.85,0,16.941-7.957,16.941-10.267
		c0-6.16-6.417-15.144-11.294-15.914c-6.674-1.027-24.642,7.444-24.642,11.807c0,4.877,7.957,14.631,10.524,13.091
		C1033.169,566.024,1034.196,562.944,1034.196,559.607z"/>
	<path id="path152" fill="#FFFFFF" d="M1455.159,910.238c0-1.283,3.594-4.62,7.7-7.701
		c8.984-6.93,10.267-3.85,1.797,4.107C1458.496,912.548,1455.159,913.832,1455.159,910.238z"/>
	<path id="path154" fill="#FFFFFF" d="M1013.661,900.227c0.257-5.39,28.235-53.39,31.059-53.647
		c2.053-0.257,4.62-0.513,5.904-0.77c1.283,0,0.513-2.31-1.797-4.877c-4.107-4.364-3.85-5.647,3.594-19.251
		c4.364-7.957,8.984-14.631,10.267-14.631c3.594,0,2.823,2.053-4.62,15.658l-6.93,12.321l5.647,6.16
		c7.957,8.471,7.187,12.064-3.08,12.064c-8.214,0-9.497,1.283-18.225,16.941c-9.754,17.711-10.011,21.048-2.053,16.685
		c12.834-6.93,50.31-21.048,66.738-25.155c10.267-2.567,18.738-5.39,18.738-6.16c0-0.77-4.62-2.823-10.267-4.62
		c-6.931-2.053-12.064-5.647-15.144-10.781c-2.567-4.364-7.187-9.497-10.267-11.551c-7.444-5.39-6.674-12.321,2.31-25.412
		c7.957-11.551,9.497-17.711,5.134-20.535c-5.39-3.337-2.567-16.941,5.134-24.898c4.364-4.107,7.701-9.497,7.701-11.551
		c0-4.62,22.075-45.947,25.669-48.257c5.134-3.08,2.31,6.16-7.957,25.412c-5.647,11.037-9.754,21.562-8.984,24.128
		c1.027,3.08-1.54,6.674-7.701,11.551c-9.241,7.701-9.754,9.754-4.62,27.722c0.513,2.31-2.824,10.267-7.957,17.711
		c-4.877,7.187-8.214,14.374-7.444,15.658c1.797,3.08,9.754,2.824,13.091-0.513c4.364-4.364,6.674,1.797,3.08,7.444
		c-1.797,2.824-2.567,6.674-1.54,8.984c2.053,5.647,25.412,12.578,35.936,10.781c5.134-1.027,9.497-0.513,10.524,0.77
		c2.567,4.364-21.305,18.481-30.802,18.481c-4.107,0-87.273,29.519-93.947,33.369
		C1015.458,902.538,1013.661,902.794,1013.661,900.227z"/>
	<path id="path156" fill="#FFFFFF" d="M1569.127,823.222c-0.77-2.567-3.85-10.011-6.93-16.941
		l-5.39-12.064l8.984-7.701c4.877-4.107,14.631-8.727,22.332-10.524c7.187-1.797,13.348-3.85,13.348-4.877
		c0-3.594-84.449-84.963-91.38-88.043c-11.807-5.134-26.952-15.144-26.182-16.941c10.781-20.791,10.781-21.048,16.171-19.508
		c45.947,14.631,110.375-14.631,123.465-55.957c12.578-40.043-17.198-73.669-65.455-73.669c-23.358,0-38.759,4.107-73.412,20.021
		c-23.615,10.781-27.465,11.807-46.203,11.807c-16.941,0-23.102-1.027-35.422-6.93c-28.749-13.091-42.61-28.749-46.203-51.08
		l-1.54-9.497l12.834-2.567c7.187-1.54,16.685-2.824,21.305-2.824c4.877,0,9.754-1.54,11.037-3.08
		c5.647-7.187,11.037-50.824,6.674-50.824c-8.984,0-40.556,7.957-46.717,11.807c-4.364,2.824-16.941,10.267-27.722,16.941
		c-26.182,15.914-45.69,31.059-44.15,34.139c0.513,1.54,6.931,2.567,13.861,2.567c11.037,0,12.834,0.77,13.348,5.134
		c1.283,10.267-7.187,15.914-26.695,17.968c-10.011,1.027-18.738,0.77-19.508-0.513c-0.513-1.027-1.797-6.417-2.823-11.551
		c-1.54-7.957-1.027-9.754,2.31-9.754c2.824,0,3.85,2.567,3.85,8.984c0,10.524,3.594,11.294,22.845,5.39
		c16.171-4.62,17.455-10.267,2.053-7.957c-10.781,1.54-12.064,1.283-16.171-5.134c-4.62-6.93-4.62-7.187,2.823-13.348
		c8.727-6.931,25.155-17.968,63.658-42.353c20.535-13.091,28.235-19.251,31.059-25.668c4.877-11.551,11.551-20.021,11.551-14.888
		c0,2.053-1.54,6.16-3.594,8.727c-6.674,8.727-1.283,8.984,14.888,0.513l15.914-8.214l-0.257-13.604
		c-0.513-15.914,4.62-16.941,6.674-1.283c0.77,5.39,2.567,10.011,3.85,10.011c1.54-0.257,10.781-2.824,20.535-5.647
		c10.011-3.08,27.209-7.701,38.503-10.011c11.294-2.31,21.562-5.134,22.588-6.16s-4.107-6.417-11.551-12.064
		c-7.444-5.904-18.481-15.144-24.385-21.048c-5.904-5.904-11.807-10.524-13.091-10.524c-1.283,0-7.957,9.754-14.888,21.818
		c-11.807,20.535-16.428,25.668-16.428,18.738c0-1.54,4.107-10.011,8.984-18.995c4.877-8.727,8.984-16.685,8.984-17.711
		s-4.877-1.54-10.781-1.027c-6.161,0.257-15.401-0.257-21.048-1.54c-7.957-1.54-10.267-1.283-12.321,2.31
		c-1.283,2.31-3.337,4.107-4.62,4.107c-5.134,0-2.31-4.107,6.674-10.011c7.7-5.39,10.011-5.904,14.118-3.337
		c6.93,4.364,17.454,3.594,29.775-2.053l10.781-4.877l4.62,5.904c5.647,6.93,26.695,25.155,42.866,37.219
		c6.674,4.877,11.294,9.241,10.781,10.011c-0.77,0.513-0.257,3.337,1.283,5.904c2.053,4.107,1.54,4.877-4.364,4.877
		c-6.417,0-38.503,6.931-61.348,13.091c-9.497,2.567-32.856,12.064-55.701,22.332c-11.294,5.134-12.834,9.241-2.567,6.417
		c3.85-1.027,9.754-1.797,13.348-2.053c6.161,0,6.417,0.513,5.904,15.401c-0.513,18.995-5.647,46.973-8.727,49.027
		c-1.283,0.77-11.294,2.824-22.332,4.364c-21.818,3.337-24.128,5.904-18.225,20.278c4.107,10.011,29.262,28.492,46.46,34.396
		c19.508,6.417,42.61,3.85,69.305-8.214c45.177-19.765,69.048-24.642,97.797-18.995c13.091,2.31,19.251,5.39,30.802,14.631
		c16.428,13.348,22.075,23.615,24.128,42.61c1.027,11.037,0,16.171-6.417,30.032c-16.941,37.733-64.171,62.118-111.401,58.011
		c-15.914-1.54-17.455-1.027-20.278,4.107c-2.567,4.62-2.31,6.16,0.513,7.701c25.925,14.888,74.182,44.663,78.289,48.513
		c6.931,6.417,8.471,4.364,6.16-7.957c-1.027-5.39-0.77-11.551,0.257-13.348c1.283-1.797,2.31-7.187,2.31-11.808
		c0-4.62,1.027-10.267,2.31-12.834c1.54-2.31,5.134-10.011,8.471-16.685c3.85-8.471,11.037-16.685,21.562-25.155
		c8.727-7.187,16.941-15.658,18.738-19.251l2.823-6.16l9.497,5.134c5.39,2.824,11.037,5.134,12.834,5.134
		c2.823,0,12.578-15.144,10.524-16.428c-0.513-0.257-4.877-2.31-10.011-4.62c-8.214-3.594-9.497-5.647-12.064-17.968
		c-3.08-15.914-1.797-19.508,4.62-13.604s13.604,3.08,23.615-9.241c7.187-8.984,9.241-10.267,16.171-8.984
		c7.701,1.54,7.957,1.027,22.845-27.979c8.471-16.171,16.171-29.519,17.198-29.519s4.107,3.08,6.931,7.187
		c3.594,4.364,6.16,6.16,7.701,4.364c3.337-3.594,11.807-26.695,10.267-28.235c-0.77-0.77-13.861-2.053-29.262-2.824
		c-15.401-0.77-28.749-2.053-29.775-3.08s0.77-8.984,3.85-17.968l5.647-16.171l-8.471-6.931
		c-9.497-7.957-11.294-20.021-3.594-26.952c5.134-4.62,18.481-5.904,18.481-1.797c0,1.54-2.053,2.567-4.62,2.567
		c-6.417,0-14.374,8.984-12.321,14.118c0.77,2.053,4.364,5.134,7.701,6.417c7.957,2.824,10.781,12.321,7.187,25.155
		c-1.283,5.134-2.823,11.294-3.337,13.348c-1.54,5.904,41.07,6.93,52.364,1.283c9.497-4.877,15.144-1.283,8.984,5.647
		c-2.053,2.567-5.647,9.241-7.957,14.888c-2.053,5.647-6.417,15.914-9.241,22.845l-5.647,12.578l-7.701-7.444
		c-6.417-6.16-8.214-6.674-10.267-3.594c-3.337,5.134-18.738,34.652-32.086,61.861c-5.904,12.064-14.631,28.235-19.508,35.936
		c-4.62,7.444-10.267,17.198-12.321,21.048c-2.053,4.107-5.647,8.471-7.957,9.497c-2.31,1.283-7.957,8.214-12.578,15.401
		c-7.957,12.578-8.214,12.578-12.578,7.444c-3.08-3.85-7.444-5.39-16.941-5.647c-12.064-0.513-12.834-0.257-12.834,5.904
		c0,5.904,1.283,6.674,14.888,8.727c16.685,2.567,19.251,8.727,2.824,6.93c-21.562-2.567-25.412-1.797-26.182,3.85
		c-0.77,4.877,0.77,5.647,12.834,7.187c8.727,1.283,13.861,1.027,14.374-0.77c0.513-1.54,1.797-2.823,3.08-2.823
		c2.053,0-0.257,12.321-4.62,23.358c-1.54,3.594-3.08,12.834-3.594,20.535l-0.77,13.861l12.834-0.257
		c7.187-0.257,15.401-1.283,18.738-2.31c4.107-1.283,5.647-0.77,5.647,2.054c0,5.39-6.417,7.187-29.262,7.444
		c-22.332,0.257-31.316-2.824-48.513-16.428c-6.931-5.39-13.861-9.754-15.401-9.754c-2.567,0,26.695,32.086,43.893,48
		c11.294,10.524,9.497,14.888-7.187,17.198c-8.471,1.027-16.428,4.107-21.818,8.471l-8.214,6.674l4.877,9.754
		c2.567,5.39,4.62,11.037,4.62,12.578c0,4.107,6.674,3.08,30.289-5.134c39.016-13.861,49.54-18.481,46.717-21.818
		c-3.594-4.364-7.444-34.396-5.134-42.096c2.053-7.957,3.85-4.107,6.674,14.118c1.027,6.93,4.107,16.941,6.93,22.332
		c2.824,5.39,4.107,10.524,3.337,11.551c-4.364,4.107-81.626,31.316-89.326,31.316
		C1572.721,827.586,1569.897,825.532,1569.127,823.222z M1608.657,721.831c0.77-11.551,0.513-11.807-8.214-14.888
		c-9.754-3.08-14.374-1.797-14.374,3.85c0,2.31,2.31,3.594,5.904,3.08c3.594-0.257,5.647,0.77,5.647,3.337
		c0,2.31-1.797,3.594-4.364,3.08c-7.187-1.283-5.39,6.417,2.567,10.524C1605.833,736.206,1607.887,734.922,1608.657,721.831z
		 M1614.561,697.446c3.08-8.471,1.283-10.267-13.091-11.551c-10.781-0.77-11.551-0.257-11.551,5.647s2.053,7.187,21.305,12.578
		C1611.48,704.377,1613.021,701.297,1614.561,697.446z M1641.256,640.206c4.364-4.62,4.364-5.134,0-6.674
		c-2.31-1.027-8.471-1.797-13.604-2.053c-12.578-0.257-14.374,6.93-2.567,10.524
		C1636.635,645.853,1636.122,645.853,1641.256,640.206z M1652.807,623.521c4.877-5.647-8.984-10.524-17.455-5.904
		c-5.647,2.824-5.647,3.337-1.54,6.417C1639.972,628.398,1648.956,628.141,1652.807,623.521z M1677.962,588.355
		c4.364-4.364-8.727-18.995-15.915-17.711c-11.807,1.797-12.321,12.064-0.77,16.941
		C1671.545,592.206,1674.111,592.206,1677.962,588.355z M1690.026,566.024c4.62-10.267,3.594-15.658-2.567-15.658
		c-4.62,0-11.807,16.685-10.011,21.818C1680.015,578.858,1685.149,576.291,1690.026,566.024z"/>
	<path id="path158" fill="#FFFFFF" d="M1770.882,812.698c0-2.567,1.027-5.647,2.31-6.93
		c2.823-3.337,7.701-23.872,6.16-25.412c-0.77-0.77-4.62,0.257-8.727,2.31c-7.701,4.107-17.711,5.134-17.711,2.054
		c0-1.283,1.797-6.931,3.85-13.091c2.31-6.16,3.337-12.064,2.567-13.348c-1.283-2.054-44.406,14.888-76.235,30.289
		c-4.107,2.054-1.54-5.647,10.524-31.316c6.931-14.374,13.348-30.032,14.374-34.396c3.08-14.374,14.118-17.711,14.118-4.107
		c0,3.337,2.31,8.471,4.877,11.037c4.62,4.62,4.877,5.134,0.513,8.984c-6.417,5.904-7.957,5.134-7.957-3.337
		c0-8.984-4.364-12.834-6.674-6.16c-1.027,2.567-5.647,13.604-10.524,24.898c-8.471,19.765-9.241,25.412-2.823,20.278
		c1.797-1.283,7.957-4.364,13.604-6.417c5.647-2.31,17.968-7.701,27.465-12.064c25.412-11.807,30.802-10.011,25.412,8.984
		c-1.54,5.134-2.053,10.267-1.54,11.294c0.77,1.027,6.417,0.257,12.834-2.053c6.417-2.053,12.321-3.337,12.834-2.567
		c0.513,0.513-0.77,7.701-2.823,15.914c-2.053,8.214-3.337,15.401-2.824,15.914c0.513,0.513,6.417-1.797,12.834-5.647
		c8.984-4.877,12.064-8.214,12.064-12.578c0-3.337,2.567-12.321,5.39-20.278c3.08-7.957,4.877-15.144,3.85-16.171
		c-0.77-1.027-5.134,1.027-9.497,4.107c-11.037,8.214-13.348,4.62-11.294-16.171c1.54-12.578,2.823-16.941,5.647-16.941
		c3.337,0,3.594,2.31,2.31,12.321c-0.77,6.93-1.027,13.091,0,13.861c0.77,0.77,5.904-0.257,11.551-2.567
		c5.39-2.053,10.781-3.08,11.807-2.31c0.77,1.027-0.77,9.497-3.85,19.251c-3.08,9.497-6.674,21.818-8.214,27.722
		c-2.31,9.754-3.85,11.294-21.562,19.765C1773.962,818.602,1770.882,819.115,1770.882,812.698z"/>
	<path id="path160" fill="#FFFFFF" d="M1006.731,801.404c-11.037-12.321-8.984-26.182,6.16-37.989
		c8.727-6.93,16.171-5.647,21.305,3.337c3.85,6.93,3.594,7.187-4.364,13.604c-10.011,7.701-10.524,11.807-2.823,16.941
		c7.187,4.877,4.107,9.754-6.674,9.754C1014.945,807.051,1010.068,804.997,1006.731,801.404z M1012.378,791.906
		c-1.027-3.594,1.027-7.187,8.727-13.348c10.781-8.471,11.551-12.578,2.567-12.578c-11.294,0-23.102,21.818-15.914,29.005
		C1011.094,798.58,1013.918,796.527,1012.378,791.906z"/>
	<path id="path162" fill="#FFFFFF" d="M1039.33,790.623c0-5.647,5.39-8.471,19.508-10.524
		c10.011-1.283,13.604-0.77,16.171,2.31c4.364,5.134,1.283,10.781-3.594,6.674c-2.567-2.054-6.931-1.797-16.941,1.027
		C1038.303,794.987,1039.33,794.987,1039.33,790.623z"/>
	<path id="path164" fill="#FFFFFF" d="M1049.854,768.035c0-1.797,4.877-13.604,11.037-25.925
		c10.524-22.075,11.551-26.952,4.107-22.075c-5.647,3.337-15.401,2.824-15.401-1.027c0-5.39,2.824-6.93,7.957-4.364
		c3.08,1.797,5.134,1.797,6.16,0c0.77-1.283,3.85-2.567,6.417-2.567c3.85,0,8.214-6.674,17.968-27.465
		c6.93-14.888,13.604-26.439,14.631-25.669c0.77,1.027-2.053,9.497-6.16,18.995c-4.364,9.754-12.834,28.492-18.481,41.84
		c-5.904,13.348-12.064,26.695-13.604,29.519c-1.54,2.824-4.62,8.214-6.417,12.064
		C1053.961,769.575,1049.597,772.912,1049.854,768.035z"/>
	<path id="path166" fill="#FFFFFF" d="M1742.133,735.436c-3.08-3.594-3.337-5.647-1.283-7.701
		c3.594-3.594,9.497-3.594,9.497-0.257c0,4.62,5.134,2.823,5.134-1.797c0.257-5.39,17.198-16.941,22.075-15.144
		c1.797,0.77,3.594,4.364,4.107,8.471c0.513,5.39,2.053,6.93,5.904,6.674c2.823-0.257,3.594,0,2.053,0.77
		c-1.797,0.77-3.337,3.08-3.337,4.877c0,2.054-1.283,4.364-2.567,5.134c-3.85,2.31-10.267-3.594-10.267-9.241
		c0-7.957-7.444-5.647-13.091,4.107C1754.454,741.34,1748.293,742.623,1742.133,735.436z"/>
	<path id="path168" fill="#FFFFFF" d="M1014.688,718.751
		c-10.524-4.62-21.562-19.251-21.562-28.492c0-26.182,40.299-50.824,56.727-34.396c6.674,6.674,5.39,9.754-6.417,15.914
		c-5.39,2.823-10.267,6.674-11.037,8.471c-1.797,4.62-5.904,4.62-5.904,0.257c0-5.134,8.471-12.064,14.888-12.064
		s6.674-0.77,3.08-7.957c-5.647-10.524-26.182-3.594-37.219,12.321c-7.444,11.294-7.957,17.455-2.31,28.749
		c4.364,8.471,17.198,15.658,29.005,15.658c3.594,0,8.471,1.283,10.524,2.567C1050.624,723.628,1023.929,722.858,1014.688,718.751z"
		/>
	<path id="path170" fill="#FFFFFF" d="M1033.939,706.687c-7.444-7.957-9.754-15.144-4.877-15.144
		c1.54,0,2.567,2.31,2.567,5.134c0,3.337,3.08,7.187,7.701,9.754c7.701,4.364,10.011,8.214,4.877,8.214
		C1042.667,714.644,1038.046,711.051,1033.939,706.687z"/>
	<path id="path172" fill="#FFFFFF" d="M1716.464,688.976c-6.16-8.727-9.754-9.241-24.128-4.364
		c-5.647,2.053-13.604,4.364-18.225,5.134c-7.444,1.54-8.214,1.027-9.754-6.674c-1.027-4.62-3.594-10.011-5.39-12.321
		c-3.08-3.337-3.08-4.62-0.513-6.674c4.877-3.85,26.695-12.834,44.406-18.225l15.144-4.62l-0.77-12.578
		c-1.027-18.481-3.08-20.021-18.995-12.834c-15.401,6.93-32.856,11.037-28.749,6.93c2.567-2.567,16.428-8.727,42.866-18.481
		c13.091-4.877,16.941-3.337,12.064,4.62c-2.31,3.594-2.31,7.701-0.513,15.658c1.797,6.417,1.797,11.037,0.257,12.064
		c-1.283,0.77-1.283,2.824,0.513,4.877c3.594,4.364,3.337,4.364-23.615,12.834c-12.578,3.85-24.642,8.727-27.465,11.037
		c-4.877,4.364-9.754,18.481-6.16,18.481c3.594,0,34.139-10.011,39.273-12.834c4.364-2.31,5.904-1.283,11.807,7.701
		c7.701,11.551,7.444,11.551,36.963,0.77c9.241-3.08,18.481-5.904,20.535-5.904c2.31,0,5.647-1.54,7.187-3.08
		c2.567-2.567,1.54-4.62-5.134-10.011c-10.524-8.727-8.471-11.808,15.144-22.588c20.535-9.754,45.69-29.519,50.567-40.043
		c17.455-37.219,20.791-49.284,12.578-46.46c-8.984,2.823-45.69,16.171-50.054,17.968c-8.727,3.85-9.241-1.283-1.797-16.428
		c4.107-8.471,7.444-16.171,7.444-16.941c0-0.77,1.54-5.134,3.594-9.497c6.16-13.861,14.374-40.043,14.374-46.203
		c0-6.417-20.021-28.492-40.299-44.663c-7.187-5.647-26.695-16.941-43.123-25.412c-21.305-10.781-28.492-15.401-24.385-15.914
		c13.091-2.053,68.535,30.289,91.893,53.39c14.888,14.888,41.84,47.23,45.947,55.187c4.62,8.727,9.241,39.529,7.957,52.107
		c-0.77,6.674-6.16,22.075-12.064,34.652c-10.011,20.535-12.321,23.615-29.262,35.936c-10.267,7.444-24.128,16.428-31.316,19.765
		c-6.93,3.594-13.348,6.674-13.861,7.187c-0.77,0.257,3.08,4.107,8.471,8.471c5.134,4.364,8.984,9.241,8.727,10.524
		c-0.77,2.31-10.011,5.647-46.973,17.198C1723.652,697.446,1722.882,697.446,1716.464,688.976z M1824.529,554.986
		c15.144-4.877,36.193-14.888,36.193-17.198c0-12.321-6.931-32.342-14.374-40.556c-9.497-11.294-11.294-10.267-17.198,8.214
		c-2.053,7.187-6.93,20.791-10.524,30.802C1809.641,560.89,1809.384,560.12,1824.529,554.986z"/>
	<path id="path176" fill="#FFFFFF" d="M1355.052,632.762c0-1.283,4.107-10.781,8.984-21.048
		c5.904-12.578,9.241-17.198,10.524-14.374c0.77,2.31-2.567,11.294-7.957,20.791
		C1357.362,634.559,1355.052,637.639,1355.052,632.762z"/>
	<path id="path178" fill="#FFFFFF" d="M1542.432,625.061c0-6.93,6.674-17.968,15.401-25.925
		c13.348-11.807,15.658-21.048,6.674-26.952c-4.877-3.337-10.011-4.107-18.225-3.337c-11.294,1.283-19.251-2.824-19.251-10.267
		c0-6.417,14.888-13.348,28.492-13.348c29.775,0,50.31,24.898,41.07,49.54c-3.85,9.754-23.358,27.209-33.626,30.032
		C1551.673,627.885,1542.432,628.141,1542.432,625.061z M1576.058,607.35c19.765-19.765,19.508-34.909-0.77-50.054
		c-12.578-9.241-39.016-7.444-42.61,2.823c-0.77,2.567,2.31,3.08,14.374,1.54c15.144-1.54,15.914-1.283,23.615,6.16
		c11.807,11.807,9.754,20.535-8.471,36.706c-6.417,5.39-9.754,10.267-8.471,12.064
		C1557.32,622.238,1563.737,619.671,1576.058,607.35z"/>
	<path id="path180" fill="#FFFFFF" d="M1113.255,607.093c-8.727-2.823-14.374-6.93-19.251-13.861
		c-6.674-9.241-12.834-11.551-22.332-7.957c-6.417,2.567-4.877,8.471,3.08,10.267c11.037,2.31,21.048,6.674,21.048,8.984
		c0,3.85-5.647,5.39-8.471,2.567c-1.54-1.54-5.39-2.823-8.471-2.823c-6.674,0-21.562-11.551-21.562-16.685
		c0-1.797,5.39-5.39,12.321-7.701c6.674-2.567,15.658-5.904,19.765-7.701c4.364-2.053,11.294-4.364,15.401-5.39
		c4.364-1.027,10.781-3.594,14.631-5.647c6.674-3.85,7.187-3.85,13.348,2.823c8.214,8.984,12.834,8.984,10.781,0.257
		c-2.053-7.444,2.053-12.064,14.631-16.685c10.011-3.85,8.984-11.551-2.053-16.941c-10.011-4.877-11.551-8.471-3.594-8.471
		c8.471,0,15.401,4.877,19.251,14.118c3.337,8.214,4.364,8.727,20.278,10.267c24.385,2.823,27.465,0.513,15.144-10.267
		c-17.198-15.144-58.524-33.112-65.711-28.492c-5.134,3.08-12.321-2.053-12.321-8.727c0-4.107,7.444-12.834,11.294-12.834
		c1.027,0,5.647,4.107,10.011,8.984c5.904,6.417,12.578,10.267,21.818,12.578c9.241,2.567,19.765,8.727,35.422,21.048l22.075,17.198
		l-5.904,4.877c-5.39,4.364-8.727,4.62-26.695,3.337c-35.936-3.08-48.77-0.77-46.973,8.471c0.77,3.594,10.781,10.524,21.305,14.374
		c1.54,0.513,1.797,1.797,0.77,2.824c-2.567,2.824-38.759-3.594-43.38-7.957c-3.594-3.337-6.16-3.337-17.711-0.513
		c-18.738,4.877-21.818,10.267-11.037,20.021c4.62,4.107,12.578,8.214,17.968,8.984c16.171,2.824,17.198,3.337,13.604,7.701
		C1128.143,612.484,1128.913,612.484,1113.255,607.093z M1145.854,499.286c1.797-3.08-3.08-6.16-6.417-4.107
		c-2.823,1.797-1.027,6.417,2.567,6.417C1143.287,501.596,1144.827,500.569,1145.854,499.286z"/>
	<path id="path184" fill="#FFFFFF" d="M1201.555,590.922c0.77-2.053,5.904-3.594,13.091-4.107
		c13.091-0.77,14.888-3.08,6.674-8.471c-7.701-5.134-4.107-11.037,11.294-18.738c7.444-3.85,16.685-9.497,20.535-12.834l7.187-5.904
		l-22.075-13.091c-12.321-7.444-23.358-13.348-24.642-13.348c-1.54,0-15.144-6.417-30.032-14.631
		c-15.144-7.957-30.802-15.914-35.166-17.968c-4.107-2.053-9.754-4.877-12.321-6.16c-3.594-2.053-5.904-1.54-9.241,1.283
		c-2.31,2.053-9.241,4.62-15.144,5.647c-5.904,1.027-10.781,3.08-10.781,4.62c0,1.54,4.107,6.16,9.241,10.011
		c4.877,4.107,10.011,10.011,11.294,13.348c1.283,3.594,5.134,6.674,10.011,7.701c11.294,2.31,10.267,7.444-1.283,5.647
		c-11.037-1.797-16.428-5.904-16.428-12.064c0-2.567-4.62-8.471-10.524-12.834c-14.118-11.294-13.091-18.225,3.337-21.818
		c6.417-1.283,12.834-3.337,13.861-4.364c5.904-6.16,25.668,0.77,62.631,22.075c6.417,3.594,13.091,7.444,14.888,8.214
		c4.877,2.31,7.444-1.283,3.08-4.107c-6.93-4.107-35.679-29.519-35.679-31.316c-0.513-4.364,4.877-1.283,23.358,14.118
		c27.979,22.845,54.161,42.353,74.695,55.187c9.497,6.16,10.524,10.781,2.31,10.781c-5.39,0-36.449,19.508-36.449,22.845
		c0,1.54,1.283,5.647,3.08,9.241c3.85,8.727,1.283,10.524-16.941,12.834C1203.608,594.002,1200.785,593.746,1201.555,590.922z"/>
	<path id="path186" fill="#FFFFFF" d="M1476.977,582.708c-5.904-8.984-3.85-18.995,4.364-24.128
		c6.674-3.85,7.187-3.85,13.604,2.053c7.701,7.187,8.214,16.171,1.283,23.102C1489.298,590.666,1481.854,590.152,1476.977,582.708z
		 M1493.149,569.874c-1.027-6.417-6.93-7.187-10.524-1.027c-2.053,3.08-1.797,5.39,0.513,8.214
		C1487.758,582.452,1494.175,577.575,1493.149,569.874z"/>
	<path id="path190" fill="#FFFFFF" d="M1743.93,560.633c-6.417-6.93-2.567-18.225,6.93-21.562
		c13.604-4.877,19.251,7.444,9.497,20.021C1753.941,567.051,1750.09,567.564,1743.93,560.633z M1757.277,553.96
		c2.31-5.904-3.337-10.267-8.214-6.16c-3.08,2.567-3.337,4.107-1.027,6.674C1751.887,559.093,1755.224,559.093,1757.277,553.96z"/>
	<path id="path192" fill="#FFFFFF" d="M1652.037,543.435c-3.337-3.85-3.594-6.417-1.283-15.144
		c1.54-5.904,2.053-12.578,1.027-15.144c-1.54-4.364-2.053-4.364-7.444,1.027c-8.214,7.444-18.225,6.931-24.642-1.283
		c-3.08-3.85-5.39-7.957-5.39-9.497c0-1.283,5.134-7.444,11.294-13.604c12.578-12.834,22.332-14.631,33.112-6.16
		c7.7,6.16,12.064,6.417,18.738,1.283s12.321-4.877,17.711,1.283c4.62,5.134,4.364,5.39-3.08,14.888
		c-5.134,6.16-8.471,13.861-9.497,22.332c-1.283,7.187-4.364,15.401-7.444,18.738
		C1668.721,548.826,1657.684,549.596,1652.037,543.435z M1670.261,538.558c4.62-3.08,5.647-6.417,5.647-17.198
		c0-11.807,1.027-14.374,7.701-20.278c13.091-11.551,8.727-16.171-7.444-8.214c-7.957,4.107-8.727,3.85-15.914-1.283
		c-10.781-8.214-20.278-6.931-30.546,3.594c-7.187,7.444-8.214,10.011-6.16,13.604c4.62,7.187,11.807,6.931,17.968-1.027
		c5.647-6.931,5.904-6.931,12.321-2.567c7.187,4.62,8.984,15.658,3.85,24.898c-1.797,3.85-1.797,6.16,0.513,8.984
		C1662.047,543.692,1663.074,543.692,1670.261,538.558z"/>
	<path id="path194" fill="#FFFFFF" d="M1247.245,507.243c0-4.107,10.011-11.294,13.091-9.497
		c2.053,1.54,1.283,3.337-3.08,6.674C1250.581,509.553,1247.245,510.58,1247.245,507.243z"/>
	<path id="path196" fill="#FFFFFF" d="M1226.966,485.168c-5.134-6.16-1.54-11.294,9.241-13.091
		c19.251-3.337,36.193-9.241,40.3-13.861c4.107-4.62,3.85-4.877-6.674-6.674c-6.161-1.027-16.685-1.797-23.615-1.797
		c-10.781-0.257-13.604-1.54-22.588-9.754c-9.241-8.984-10.011-10.524-8.214-19.765c2.053-12.064,9.497-24.642,17.711-30.032
		c7.701-5.134,11.551-3.594,17.455,6.674c4.62,7.957,4.62,8.214-0.257,14.631c-5.647,7.701-16.171,10.011-21.048,4.364
		c-5.39-6.674-7.701-4.62-7.701,5.904c0,10.781,2.824,14.374,13.091,16.941c8.984,2.31,27.209-11.807,35.679-27.722
		c8.214-15.144,5.647-20.791-10.011-21.818c-17.968-1.283-11.551-5.39,8.214-5.39c10.011,0.257,21.818-1.027,25.925-2.567
		c6.417-2.567,8.214-2.31,13.348,2.567c7.187,6.674,11.294,4.364,19.508-11.294c3.337-6.931,5.904-9.241,7.701-7.444
		c1.797,1.797,0.77,5.39-3.594,11.294c-3.594,4.62-13.091,19.765-21.048,33.369c-13.091,22.075-22.075,34.139-22.075,29.262
		c0-0.77,5.134-10.267,11.551-20.535c6.417-10.524,11.551-20.278,11.551-21.562c0-3.594-8.984-10.781-13.604-10.781
		c-5.134,0-5.647,2.824-1.283,7.187c5.904,5.904-0.513,6.417-6.674,0.77c-8.214-7.701-12.578-5.134-7.701,4.364
		c1.797,3.85,3.594,9.754,3.594,12.834c0,8.727-7.187,22.845-14.888,28.749c-7.701,6.16-5.647,9.754,3.337,5.647
		c3.594-1.797,7.701-3.08,8.984-3.08c3.594,0,3.08,9.497-0.257,11.807c-1.54,0.77-4.364,5.134-6.161,9.754
		c-2.31,5.39-5.39,8.214-9.497,8.471c-8.984,0.513-28.492,3.594-32.599,4.877c-2.567,0.77-2.823,2.053-0.77,4.107
		c2.053,2.053,5.904,1.797,14.888-0.257c7.444-2.053,13.091-2.053,14.374-0.77c3.594,3.594,0.257,4.877-17.455,6.931
		C1233.383,488.762,1229.533,488.248,1226.966,485.168z M1238.26,406.622c-0.77-1.283-2.567-2.567-4.107-2.567
		c-1.283,0-2.31,1.283-2.31,2.567c0,1.54,1.797,2.567,4.107,2.567C1238.004,409.189,1239.031,408.163,1238.26,406.622z
		 M1247.758,398.409c-2.31-2.31-3.08-1.797-3.08,3.08s0.77,5.39,3.08,3.08C1250.068,402.259,1250.068,400.719,1247.758,398.409z"/>
	<path id="path198" fill="#FFFFFF" d="M1435.138,476.697c7.187-8.214,13.091-44.15,9.497-56.727
		c-0.513-2.053,0.77-4.62,2.824-5.647c5.904-3.337,52.877-11.037,67.765-11.294c11.294-0.257,13.091,0.513,13.091,4.877
		c0,3.337-2.31,5.39-7.701,6.417c-11.807,2.567-34.652,17.968-34.652,23.615c0,2.31,6.674,1.797,55.957-4.62
		c37.989-5.134,41.07-2.824,30.032,23.358c-1.797,4.364-4.107,9.754-4.877,12.321c-1.283,4.107-4.107,4.364-25.155,3.594
		c-14.631-0.513-36.193,0.77-55.957,3.85c-17.711,2.567-37.219,4.62-43.38,4.62C1432.058,481.061,1431.544,480.804,1435.138,476.697
		z M1479.031,469.51c14.888-2.053,38.759-3.594,53.134-3.594c14.374,0.257,26.952-0.77,28.235-1.797
		c3.594-3.85,7.701-22.588,5.39-24.898c-1.027-1.027-11.807-1.027-23.615,0.513c-37.219,4.364-63.401,5.647-65.198,3.08
		c-2.053-3.594,15.401-22.075,24.385-25.925c4.364-1.797,7.701-4.107,7.701-5.39s-0.513-2.31-1.027-2.31
		c-3.08,0-51.08,10.524-52.62,11.551c-1.283,0.513-2.823,8.471-3.594,17.198c-1.027,8.984-2.567,20.535-3.337,25.925
		c-1.027,5.39-0.77,9.497,0.77,9.497C1450.539,473.361,1463.887,471.564,1479.031,469.51z"/>
	<path id="path200" fill="#FFFFFF" d="M1601.726,466.173c-4.107-7.701-3.594-13.604,2.053-22.588
		c3.08-4.877,4.107-9.241,2.824-11.551c-3.594-5.39-1.027-6.93,15.914-8.727c8.984-1.027,18.995-3.08,22.332-4.364
		c9.497-3.594,12.064,1.283,5.39,10.267c-7.444,10.011-4.877,14.374,7.444,12.064c20.278-3.594,27.208-2.824,27.979,2.567
		c0.257,2.824-1.027,7.957-2.824,11.551c-2.823,5.647-5.647,6.674-28.749,9.497c-14.118,1.797-31.059,3.85-37.733,4.877
		C1606.09,471.307,1604.293,470.794,1601.726,466.173z M1653.833,458.216c15.144-1.027,21.048-2.567,23.102-5.904
		c4.107-6.674,0.513-7.957-13.604-4.62c-16.941,4.107-23.358,0.77-23.358-11.807c0-8.984,0-8.984-9.497-7.187
		c-12.321,2.31-11.294,1.283-18.481,14.631c-8.727,16.171-6.417,21.048,9.497,18.481
		C1628.165,460.783,1642.796,459.243,1653.833,458.216z"/>
	<path id="path202" fill="#FFFFFF" d="M1120.955,466.687c-0.77-0.77-6.417-1.283-12.321-1.54
		h-10.781l1.797-14.631c1.027-7.957,2.31-22.332,3.08-32.342c0.513-9.754,2.567-26.952,4.107-37.733l2.824-19.765l11.551-1.54
		c22.588-2.567,45.433-6.674,73.412-13.091c15.658-3.337,36.193-7.957,46.203-10.267c9.754-2.31,21.818-5.647,26.695-7.701
		c8.984-3.85,18.225-2.824,18.225,1.797c0,1.54-2.31,1.797-5.134,1.027c-3.08-1.027-6.674-0.513-8.471,0.77
		c-6.161,5.134-27.465,10.524-104.471,25.925c-21.305,4.364-21.818,4.62-21.818,12.064c0,8.727-4.62,12.321-5.904,4.877
		c-1.797-8.727-5.134-10.781-15.144-9.241l-9.754,1.54l-1.797,16.685c-2.053,19.251,0.77,25.155,7.701,15.914
		c5.647-7.187,8.214-5.134,5.904,4.107c-1.54,5.39-3.594,7.187-9.754,7.701l-7.701,0.77l-1.797,22.075
		c-1.027,12.578-0.77,23.102,0.513,24.385c2.823,2.824,28.749-0.257,28.749-3.337c0-1.027-1.027-4.877-2.567-8.471
		c-2.053-5.39-4.107-6.674-11.807-6.674c-6.16,0-8.727-1.027-7.957-3.08c0.513-2.053,4.364-3.08,8.984-2.567
		c6.16,0.513,10.011-1.027,15.144-6.16c6.16-6.16,7.701-6.674,14.118-4.107c7.701,2.824,7.701,3.08,11.294-8.984
		c1.797-6.674,5.134-3.08,4.107,4.364c-1.54,10.781-5.904,13.604-14.631,9.754c-6.16-2.824-7.187-2.31-12.578,4.364l-5.904,7.444
		l5.134,7.187c5.904,7.957,7.701,8.214,35.166,3.85c21.818-3.594,23.615-5.39,27.722-31.316c1.283-8.471,3.08-17.455,4.364-19.765
		c1.283-3.594,0.513-4.62-3.594-4.62c-3.08,0-5.39-1.54-5.39-3.85c0-4.877,12.578-5.134,14.374-0.257
		c0.77,2.053-0.257,11.037-2.567,20.021c-2.053,8.727-4.364,21.562-5.39,28.235c-0.77,6.674-2.824,12.834-4.107,13.861
		c-3.594,2.31-31.829,6.16-53.647,7.444c-10.524,0.77-19.508,2.31-20.021,3.85C1126.089,468.484,1123.266,468.997,1120.955,466.687z
		"/>
	<path id="path204" fill="#FFFFFF" d="M1328.614,433.061c-4.107-3.85-1.283-16.428,5.39-24.385
		c3.85-4.62,10.267-12.834,14.118-17.968c5.134-6.93,10.267-10.524,17.968-12.578c16.684-4.364,22.332-8.984,22.332-17.968
		c0-7.444-0.513-7.957-6.93-6.16c-4.107,0.77-11.807,6.417-17.198,12.321c-8.471,8.984-10.524,10.011-11.294,6.16
		c-0.513-2.567,0.513-8.214,2.31-12.578c3.08-7.187,2.823-8.471-2.824-12.834c-3.08-2.567-5.134-5.39-4.107-6.417
		c0.77-0.77,3.594,0.257,6.16,2.567c5.904,5.39,19.251,5.647,23.615,0.513c1.797-2.053,6.16-3.85,10.011-3.85
		c6.674,0,6.674,0.257,6.674,18.738c0,17.968-0.257,18.481-6.417,18.995c-12.064,1.027-35.422,13.091-37.219,19.251
		c-1.027,3.337-5.39,8.984-9.754,12.578c-6.161,5.39-7.957,8.984-7.957,16.171C1333.491,434.601,1332.207,436.655,1328.614,433.061z
		"/>
	<path id="path206" fill="#FFFFFF" d="M1179.993,415.093c-8.471-1.283-9.497-4.62-2.053-6.674
		c2.823-0.77,6.16-4.364,7.7-8.471c2.054-5.134,3.594-6.16,5.647-4.107c2.053,2.053,2.053,3.85,0,6.417
		c-1.54,1.797-2.31,5.904-1.283,8.984c0.77,3.08,0.257,5.39-0.77,5.39C1187.95,416.376,1183.843,415.606,1179.993,415.093z"/>
	<path id="path208" fill="#FFFFFF" d="M1135.587,408.419c-1.027-2.567-1.283-5.39-0.257-6.16
		c2.567-2.567,4.62,1.027,3.337,6.16C1137.64,412.783,1137.64,412.783,1135.587,408.419z"/>
	<path id="path210" fill="#FFFFFF" d="M1146.111,404.569c-1.283-2.053,3.08-16.941,6.931-23.102
		c4.364-6.674,6.16-0.257,3.08,11.551C1153.298,404.569,1149.191,409.446,1146.111,404.569z"/>
	<path id="path212" fill="#FFFFFF" d="M1189.234,382.237c-4.62-3.594-4.62-3.594,1.027-3.85
		c3.337,0,8.984-2.31,12.834-4.877c15.658-11.037,127.573-23.615,127.573-14.374c0,1.54-15.658,3.85-35.936,5.39
		c-48.77,4.107-83.423,10.267-90.096,16.685C1198.474,387.114,1195.907,387.371,1189.234,382.237z"/>
	<path id="path214" fill="#FFFFFF" d="M1398.689,381.981c0-2.053,1.283-3.08,2.567-2.31
		c1.54,0.77,2.567,2.567,2.567,4.107c0,1.283-1.027,2.31-2.567,2.31C1399.972,386.088,1398.689,384.291,1398.689,381.981z"/>
	<path id="path216" fill="#FFFFFF" d="M1647.16,379.414c-4.62-4.364-2.053-9.241,3.85-7.701
		c4.364,1.027,7.701-0.257,11.294-4.364c13.348-15.144,12.578-31.572-2.567-56.471c-11.551-18.995-14.374-35.936-7.701-49.284
		c8.727-17.968,23.358-21.048,37.476-7.957c8.727,7.957,9.497,23.358,1.797,33.112c-13.091,16.685,3.08,34.139,17.455,18.995
		c3.08-3.337,5.647-7.444,5.647-8.984c0-5.134,10.011-13.348,16.171-13.348c19.251,0,25.668,40.556,9.241,56.984
		c-7.187,7.444-23.358,10.011-26.695,4.62c-2.567-4.364-11.294-2.824-14.118,2.31c-1.283,2.824-2.567,7.957-2.567,11.551
		c0,10.011-14.118,19.251-32.342,21.048C1655.887,380.697,1648.186,380.697,1647.16,379.414z M1679.245,370.43
		c7.187-3.85,8.984-6.417,12.064-18.481c1.54-5.134,5.647-11.294,8.984-13.604c5.904-3.85,6.931-3.85,12.834,0
		c8.727,5.904,15.915,5.134,23.102-2.31c5.134-4.877,6.417-8.727,6.417-18.481c0-23.872-13.348-35.166-22.075-18.225
		c-6.93,13.861-13.861,20.021-22.845,20.021c-15.658,0-24.385-21.048-14.118-34.139c7.444-9.497,6.16-23.872-2.824-30.546
		c-6.417-4.877-7.187-4.877-14.631-1.027c-11.807,6.16-15.401,20.021-9.497,37.989c2.31,7.444,7.444,17.198,11.551,21.562
		c4.107,4.62,7.957,12.834,8.984,18.738c1.797,11.551-0.513,30.289-4.107,32.599c-2.567,1.54-3.337,8.727-0.77,8.727
		C1673.085,373.253,1676.165,371.97,1679.245,370.43z"/>
	<path id="path218" fill="#FFFFFF" d="M1171.522,373.253c0.77-1.283,2.567-2.567,4.107-2.567
		c1.283,0,2.31,1.283,2.31,2.567c0,1.54-1.797,2.567-4.107,2.567C1171.779,375.82,1170.752,374.794,1171.522,373.253z"/>
	<path id="path220" fill="#FFFFFF" d="M1549.619,369.146c-1.027-0.77,0-4.364,2.053-8.214
		c8.471-16.171,1.283-40.043-12.321-42.096c-7.444-1.027-15.914-15.658-13.861-23.872c1.027-3.594,4.62-8.214,8.214-10.524
		c8.984-6.16,16.941-1.797,24.128,13.091c5.134,10.781,5.647,14.888,4.62,38.503C1561.17,364.269,1556.55,376.334,1549.619,369.146z
		 M1557.833,315.756c0-4.877-9.754-26.695-12.834-28.492c-5.647-3.337-12.834,3.85-12.834,13.091c0,7.957,1.027,9.497,11.037,13.861
		C1556.55,320.12,1557.833,320.376,1557.833,315.756z"/>
	<path id="path222" fill="#FFFFFF" d="M1601.47,367.606c0-1.54,2.054-5.134,4.62-7.957
		c8.727-9.754,2.31-48-7.957-48c-1.797,0-6.931-3.85-11.294-8.214c-20.535-22.075-16.685-53.39,6.674-53.39
		c6.16,0,11.294,1.797,13.604,4.62c18.225,20.535,25.155,88.556,11.037,109.861C1614.047,370.943,1601.47,373.253,1601.47,367.606z
		 M1618.668,309.596c-1.797-19.251-8.214-40.556-14.118-47.23c-7.701-9.241-26.182-2.824-26.182,8.984
		c0,14.374,5.904,24.898,18.738,32.856c7.701,4.62,13.604,10.524,15.401,15.401C1617.384,332.441,1620.208,328.077,1618.668,309.596
		z"/>
	<path id="path224" fill="#FFFFFF" d="M1401.255,360.419c-2.053-1.283-3.08-2.824-2.31-3.594
		c1.797-2.053,12.578,1.283,12.578,3.85C1411.523,363.756,1406.132,363.499,1401.255,360.419z"/>
	<path id="path226" fill="#FFFFFF" d="M1326.303,330.13c-6.161-4.364-9.754-8.984-9.754-12.834
		c0-8.214-4.877-8.984-16.685-3.08c-5.39,2.824-13.348,5.134-17.711,5.134h-7.444l1.797-13.348c0.77-7.444,1.54-16.171,1.54-18.995
		c0-5.134,1.54-5.647,27.722-6.674c26.952-1.283,89.07-11.807,112.941-18.738c13.091-4.107,14.888-3.594,12.064,3.08
		c-1.027,2.567-2.31,9.241-2.567,15.144c-0.77,13.861-6.674,29.262-11.037,29.262c-2.567,0-3.08-1.54-1.797-4.364
		c1.027-2.567,3.337-11.294,5.134-19.508l3.337-15.144l-9.497,1.283c-15.144,1.797-47.487,7.444-51.594,8.984
		c-6.674,2.31-13.091,3.08-44.92,5.134c-29.775,1.797-30.545,2.053-32.342,8.214c-4.877,17.968,1.027,24.642,13.604,15.401
		c12.578-9.241,17.711-7.957,21.562,5.904c2.053,6.674,5.39,12.064,7.187,12.064c2.053,0,6.16,2.31,9.497,5.134
		C1346.838,339.884,1337.598,338.344,1326.303,330.13z"/>
	<path id="path228" fill="#FFFFFF" d="M1351.715,304.719c-2.823-2.567-2.053-7.187,2.053-12.578
		c3.337-4.62,3.594-4.364,3.85,4.877C1357.619,306.002,1355.566,308.826,1351.715,304.719z"/>
</g>
</svg>
